<svg width="117" height="97" viewBox="0 0 117 97" fill="none" xmlns="http://www.w3.org/2000/svg">
<path d="M80.0637 20.4047C79.1424 18.3492 78.1811 16.2046 71.6729 17.6552C68.1781 18.4341 65.2487 21.186 62.854 25.2727C61.0522 28.5228 59.5299 32.7256 58.3154 37.7647C55.834 48.0615 54.7886 61.3811 55.2773 74.3313L54.1943 74.3598L54.18 73.9692C53.8495 64.6179 54.3135 55.0919 55.5377 46.6464C50.3293 42.1233 44.3927 38.5582 40.0667 37.3741C29.8152 35.4853 27.1069 40.4753 27.174 44.9265C27.1863 45.7404 27.5267 46.4174 27.8697 47.0993C28.2243 47.8045 28.5816 48.515 28.5816 49.3879C28.5816 49.9668 27.0323 51.1625 25.0183 52.7169C21.0589 55.7727 15.3036 60.2146 15.9944 64.0802C16.6327 67.6525 20.681 70.3651 24.4072 71.8234C24.772 71.9662 25.1694 72.2314 25.6474 72.5506C25.9875 72.7776 26.3683 73.0319 26.8073 73.2888L26.8411 73.3083C27.186 73.5068 27.7552 73.7868 28.5487 74.1484L28.7935 74.2593C40.0194 79.3194 53.048 75.9104 57.1078 74.6521L57.3451 74.5778L86.135 74.3101L86.1314 74.2912C86.1234 74.252 86.1106 74.1938 86.094 74.1186C85.8234 72.8931 84.5523 67.1368 87.2589 64.817C95.7111 57.5727 104.979 36.8408 92.3779 28.1532C89.5932 26.2333 86.8299 25.0662 84.7078 24.1698C83.4189 23.6254 82.3664 23.1809 81.6893 22.7283C80.8554 22.1709 80.4633 21.2962 80.0637 20.4047Z" fill="#9D2E00"/>
<path fill-rule="evenodd" clip-rule="evenodd" d="M29.0779 43.609C28.4435 43.5169 29.5648 44.5682 29.5648 44.5682C29.5648 44.5682 29.7124 43.7012 29.0779 43.609Z" fill="white"/>
<path fill-rule="evenodd" clip-rule="evenodd" d="M38.5678 74.3908C38.5678 74.3908 31.7528 72.0084 31.7528 68.6913C31.7528 67.7182 32.4813 67.8117 33.9383 68.9717C34.0967 69.0979 34.3237 69.2915 34.6193 69.5527C34.8003 69.7128 30.7103 65.5629 32.7712 64.7867C34.7801 64.03 35.2474 67.9584 35.3524 67.9041C35.4692 67.8438 35.435 66.6553 35.9 66.1298C36.1505 65.8467 36.8871 65.7861 37.4444 66.1298C40.3725 67.9349 38.5678 74.3908 38.5678 74.3908Z" fill="white"/>
<path fill-rule="evenodd" clip-rule="evenodd" d="M35.6385 50.0575C35.6385 50.0575 32.8037 49.9358 32.4172 49.1827C32.0308 48.4295 34.133 48.8576 34.133 48.8576L35.6385 50.0575Z" fill="white"/>
<path fill-rule="evenodd" clip-rule="evenodd" d="M30.8442 46.487C30.2095 46.1902 30.5705 45.4827 30.8442 45.4533C31.6545 45.3661 32.2938 46.8664 32.3831 47.0166C32.5378 47.2767 31.1662 46.6375 30.8442 46.487Z" fill="white"/>
<path fill-rule="evenodd" clip-rule="evenodd" d="M37.3703 51.0347C37.3703 51.0347 35.8182 47.7283 37.255 47.9888C38.6919 48.2494 38.2785 52.0931 38.2785 52.0931L37.3703 51.0347Z" fill="white"/>
<path fill-rule="evenodd" clip-rule="evenodd" d="M36.3282 48.6263C36.3485 49.1625 36.6227 49.9853 37.1493 51.1071C37.1565 51.1224 37.1659 51.1369 37.1774 51.1502L38.0857 52.2087C38.2138 52.358 38.4952 52.2939 38.5149 52.1109L38.5313 51.9525C38.7866 49.3897 38.418 47.9968 37.3054 47.7951C36.658 47.6777 36.3045 48.0012 36.3282 48.6263ZM37.2287 48.1873C37.92 48.3354 38.2414 49.4072 38.1009 51.4189L38.0921 51.5356L37.5803 50.939L37.4907 50.7449C37.0485 49.7738 36.8195 49.0601 36.8026 48.6137L36.8013 48.5513C36.8003 48.2132 36.9114 48.1294 37.2047 48.1825L37.2287 48.1873Z" fill="#00160A"/>
<path fill-rule="evenodd" clip-rule="evenodd" d="M31.8891 64.5862C30.8893 64.9628 30.9585 65.9129 31.7217 67.2071L31.7804 67.3049C31.92 67.5342 32.0793 67.7712 32.2555 68.0143L32.3162 68.0971L32.3086 68.0929C32.0232 67.9343 31.777 67.8414 31.5651 67.8143C31.0025 67.7421 30.7157 68.0885 30.7157 68.6913C30.7157 71.0128 33.0619 72.9749 37.6923 74.5936C37.8424 74.6461 38.013 74.5733 38.0501 74.4408C39.2748 70.0597 38.8892 67.2243 36.8267 65.9528C36.1939 65.5627 35.279 65.587 34.9144 65.999L34.8828 66.0363C34.7278 66.2266 34.6197 66.4772 34.5395 66.7887L34.536 66.8026L34.5257 66.7683C34.4687 66.5818 34.4084 66.406 34.3402 66.2296C34.1142 65.6454 33.8439 65.1866 33.5049 64.8796C33.0586 64.4754 32.5038 64.3547 31.8891 64.5862ZM34.1541 67.372L34.2696 67.8272L34.283 67.8745C34.2915 67.9031 34.2992 67.9261 34.3071 67.9457C34.3176 67.972 34.3287 67.9937 34.3461 68.0167C34.3678 68.0454 34.3948 68.0706 34.4377 68.0922C34.5212 68.1344 34.6284 68.1368 34.7168 68.0911C34.8306 68.0324 34.8584 67.982 34.8895 67.8157L34.9041 67.7327C34.9144 67.6712 34.952 67.4102 34.9583 67.3688C34.9837 67.2039 35.0089 67.0678 35.0399 66.9381C35.1128 66.6338 35.2108 66.4038 35.3376 66.2604C35.5111 66.0644 36.096 66.0489 36.5142 66.3067L36.569 66.3412C38.3086 67.4606 38.6851 69.9964 37.6397 73.9646L37.6074 74.0857L37.5004 74.047C33.3092 72.5196 31.242 70.7296 31.242 68.6913C31.242 68.3211 31.3194 68.2276 31.4853 68.2489C31.7789 68.2866 32.2919 68.5808 32.9828 69.1308L33.071 69.2023C33.1764 69.2888 33.3057 69.3989 33.4589 69.5324L33.6629 69.7113C33.6664 69.7141 33.6716 69.718 33.6821 69.7259L33.6854 69.7326C33.6935 69.7436 33.7194 69.7476 33.8919 69.7744L33.9521 69.7567C34.0232 69.7342 34.0345 69.7193 34.095 69.6399L34.1087 69.5917C34.1171 69.56 34.1159 69.5525 34.1115 69.5251L34.1 69.4861C34.0975 69.4785 34.0956 69.4745 34.0924 69.4689L34.0897 69.4642C34.0827 69.4515 34.0786 69.4449 34.0719 69.4364L34.0003 69.3559L33.818 69.1542C33.7867 69.1192 33.7551 69.0836 33.7201 69.0439C33.4202 68.7037 33.1293 68.3523 32.8559 67.9896C32.5998 67.6499 32.3763 67.3222 32.1938 67.0127C31.5498 65.9208 31.4985 65.2157 32.1053 64.9871C32.8357 64.712 33.3965 65.2198 33.8394 66.3649C33.9599 66.6761 34.0552 66.9896 34.1541 67.372Z" fill="#00160A"/>
<path fill-rule="evenodd" clip-rule="evenodd" d="M32.7052 47.1378L32.9213 47.3022C35.6017 49.3466 37.4678 50.9778 38.4626 52.1097C40.1989 54.0854 41.5981 56.1347 42.7773 58.3046C43.1964 59.0758 43.5757 59.8393 43.9496 60.65L44.0514 60.8723C44.168 61.1283 44.2806 61.3812 44.4034 61.6615L44.9266 62.8676C46.3419 66.1052 45.8734 66.2631 44.5261 63.1139L43.9969 61.8928C43.8861 61.639 43.7845 61.4097 43.6825 61.1835L43.6057 61.014C43.202 60.127 42.7958 59.3024 42.3431 58.4693C41.1769 56.3233 39.7938 54.2977 38.0782 52.3456L37.9996 52.2571C36.9804 51.1231 35.0883 49.4839 32.3846 47.4328C32.2871 47.3588 32.2798 47.2328 32.3684 47.1514C32.4569 47.0699 32.6077 47.0638 32.7052 47.1378ZM26.4315 42.6221L29.7694 45.0027C30.0823 45.227 30.3262 45.4027 30.4426 45.4884C30.5414 45.5612 30.5509 45.6871 30.4638 45.7696C30.3767 45.8522 30.226 45.8601 30.1272 45.7874L29.2586 45.1616C28.105 44.336 26.2838 43.041 26.1214 42.9248C26.0213 42.8532 26.0096 42.7275 26.0953 42.6439C26.1809 42.5603 26.3314 42.5505 26.4315 42.6221Z" fill="#00160A"/>
<path fill-rule="evenodd" clip-rule="evenodd" d="M32.6004 48.5314C32.1622 48.6145 32.0146 48.9012 32.1991 49.2608C32.5069 49.8607 33.648 50.1706 35.6263 50.2555C35.8461 50.2649 35.9615 50.0409 35.8023 49.914L34.2968 48.7141C34.2667 48.6901 34.2296 48.6731 34.1892 48.6649C33.4549 48.5154 32.9324 48.4685 32.6004 48.5314ZM34.0151 49.0378L34.9968 49.82L34.9378 49.8154L34.7896 49.8023C33.5258 49.684 32.807 49.4391 32.6353 49.1046L32.6175 49.0687C32.565 48.9586 32.5839 48.9412 32.7054 48.9182C32.9294 48.8758 33.3487 48.9092 33.946 49.0243L34.0151 49.0378Z" fill="#00160A"/>
<path fill-rule="evenodd" clip-rule="evenodd" d="M31.207 75.555C30.6093 75.8425 30.8528 76.1419 32.1416 76.6198C33.5323 77.1423 36.1206 78.151 40.5662 78.4352C47.4519 78.8754 53.7212 78.0449 61.6358 78.0449C72.5929 78.0449 77.4025 80.0566 81.2374 79.5926C91.5178 78.349 93.8468 75.9354 90.7798 75.3126C87.4127 74.6288 76.7105 74.7123 73.1079 74.5157L71.9929 74.456L71.0352 74.4359C60.6656 74.2231 44.0437 74.4359 40.7975 74.4359C34.175 74.4359 31.207 75.555 31.207 75.555Z" fill="white"/>
<path fill-rule="evenodd" clip-rule="evenodd" d="M61.6358 78.0449C72.5929 78.0449 77.4025 80.126 81.2374 79.6621C91.5178 78.4184 93.8467 75.9353 90.7798 75.3125C87.4127 74.6288 75.1811 74.4067 72.1693 74.4612C72.1693 74.4612 86.0155 76.599 85.2746 77.3069C83.0685 79.415 77.5752 76.8676 67.5981 76.9419C65.5427 76.9573 61.6358 78.0449 61.6358 78.0449Z" fill="#E7EAEE"/>
<path fill-rule="evenodd" clip-rule="evenodd" d="M41.4548 74.5263C41.188 74.5275 40.9738 74.5281 40.7975 74.5281L40.4953 74.5287C36.1899 74.5455 33.0497 74.9237 31.0613 75.6733L31.0303 75.6866C30.5659 75.9101 30.3879 76.2392 30.6798 76.5771C30.8685 76.7956 31.2636 77.002 31.9304 77.253L32.4973 77.4646C33.2047 77.7264 33.6242 77.8682 34.254 78.0534L34.3224 78.0734C36.1392 78.6037 38.1554 78.9658 40.5392 79.1182C42.233 79.2265 43.9591 79.2637 45.8513 79.2417L46.5137 79.232C47.7578 79.2106 48.8176 79.1741 50.7538 79.0872L54.1007 78.9324C57.29 78.7881 59.2356 78.7305 61.5327 78.7288L61.6358 78.7288C65.7469 78.7288 69.1052 78.9902 72.8301 79.4998L73.1534 79.5448C73.7146 79.6263 76.8016 80.0807 77.6539 80.1831L77.6834 80.1866C79.1708 80.3614 80.2712 80.3964 81.2881 80.2734L81.5724 80.2385C86.19 79.6619 89.5268 78.8031 91.2119 77.853C92.8955 76.9037 92.7431 75.8161 90.9192 75.4247L90.8634 75.4131C89.3488 75.1055 86.4737 74.9347 82.0062 74.8228L81.0899 74.8012C80.8229 74.7952 80.5468 74.7892 80.2567 74.7833L76.3675 74.7081C74.8698 74.6772 73.9515 74.6505 73.2562 74.6151L72.0156 74.5488L71.0441 74.5282L70.0566 74.5095C67.1928 74.4596 63.7724 74.4357 59.8573 74.4337L58.6932 74.4337C55.9649 74.4351 53.1412 74.4463 49.9885 74.466L41.4548 74.5263ZM60.7678 75.0262C64.6754 75.0318 68.0637 75.0604 70.8655 75.1164L71.9841 75.1397L73.2559 75.2078C73.9558 75.2427 74.8722 75.2691 76.3469 75.2995L80.093 75.3717C80.5347 75.3807 80.9428 75.3895 81.3344 75.3986L82.2518 75.421C86.5106 75.5316 89.2787 75.7002 90.6962 75.988L90.7811 76.0059C91.9567 76.2638 91.9953 76.6975 90.8158 77.3625C89.203 78.2719 82.5822 80.7083 77.9035 79.8777L77.6883 79.8523C76.6994 79.7293 73.3851 79.1083 73.1898 79.0812L72.7095 79.0155C69.1218 78.5328 65.8473 78.2797 61.8999 78.2689L61.3259 78.2689C58.9655 78.2741 56.9324 78.34 53.478 78.4998L51.0809 78.6113C48.7623 78.7169 47.6568 78.7547 46.2143 78.7765L46.0982 78.7782C38.7826 79.0155 34.3224 77.5916 34.3224 77.5916C33.7386 77.4174 32.2281 76.979 32.2281 76.979L32.1156 76.936C28.5915 75.9363 36.2858 75.1367 40.5015 75.1203L41.8157 75.1161L49.4501 75.0611C53.0042 75.038 56.1333 75.0255 59.16 75.0252L60.7678 75.0262Z" fill="#00160A"/>
<path fill-rule="evenodd" clip-rule="evenodd" d="M77.0252 70.2565C77.0252 70.2565 77.0067 71.1335 77.3298 71.5393C77.6529 71.9452 78.5539 73.0741 79.3919 73.3711C79.6501 73.4626 80.6357 73.4743 81.2278 73.7634C82.4174 74.3441 82.6823 75.3902 81.2278 75.6119C78.3402 76.0518 77.3298 74.7801 77.3298 74.7801C77.3298 74.7801 76.1402 73.3711 74.948 72.4367C73.7557 71.5024 72.8059 71.221 72.8059 71.221" fill="white"/>
<path d="M86.9904 31.6976C86.5886 31.6724 86.3523 31.9277 86.3523 32.2367C86.3523 33.3066 88.4441 34.7696 89.8072 34.7696C90.2067 34.7696 90.5336 34.5308 90.4176 34.1658C90.3738 34.0282 90.2731 33.9062 90.108 33.7558L90.0716 33.7231C89.8861 33.5584 89.6942 33.4114 89.264 33.102L88.6049 32.6301C88.4432 32.5131 88.1861 32.3266 88.1083 32.2711L88.0147 32.2047C87.8346 32.0778 87.6953 31.9853 87.571 31.9119C87.3511 31.782 87.1808 31.7096 86.9904 31.6976Z" fill="white"/>
<path fill-rule="evenodd" clip-rule="evenodd" d="M73.6275 52.6732C73.6275 52.6732 72.8355 50.7845 70.7999 50.273C70.1531 50.1104 72.9824 53.6782 70.4852 55.0091C69.7057 55.4246 68.3198 55.6401 66.6144 55.843C59.0121 56.7471 56.72 54.3769 52.0271 53.2194C50.1454 52.7553 40.9925 50.7022 39.6086 61.1607C38.7424 67.7069 45.3033 69.7358 51.1829 70.7759C62.9617 72.8596 81.0104 72.0384 86.6393 65.1705C93.3491 56.9837 83.0364 49.8544 81.5835 49.1008C81.2316 48.9183 82.2406 51.2579 82.3527 52.4412C82.4648 53.6246 81.5835 54.0549 81.5835 54.0549C81.5835 54.0549 81.2361 52.802 78.1653 52.5871C75.0944 52.3721 73.6275 52.6732 73.6275 52.6732Z" fill="white"/>
<path fill-rule="evenodd" clip-rule="evenodd" d="M28.4454 43.9576C28.553 44.1696 28.8034 44.4504 29.2104 44.832C29.4791 45.084 29.9778 44.9582 30.0346 44.624C30.1646 43.8607 29.8927 43.3248 29.1592 43.2183C28.5851 43.1349 28.2143 43.5023 28.4454 43.9576ZM29.5647 44.5682L29.4919 44.4994C28.807 43.8464 28.669 43.5497 29.0779 43.609C29.5009 43.6705 29.6632 43.9902 29.5647 44.5682Z" fill="#00160A"/>
<path fill-rule="evenodd" clip-rule="evenodd" d="M30.8139 45.2566C30.5471 45.2853 30.3296 45.547 30.2697 45.836C30.2008 46.1685 30.3488 46.4826 30.7283 46.66L30.99 46.7812C31.2424 46.8967 31.469 46.9959 31.6896 47.0845L31.7919 47.1249C31.9562 47.1883 32.0892 47.2327 32.1903 47.256C32.2937 47.2797 32.3723 47.2865 32.456 47.2609C32.6351 47.2063 32.6665 47.0649 32.6046 46.9446L32.5851 46.9081C32.5603 46.8597 32.4992 46.7379 32.4641 46.67L32.4564 46.6554C32.3606 46.4723 32.263 46.3035 32.1554 46.1425C31.7572 45.5463 31.3289 45.2012 30.8139 45.2566ZM31.7899 46.4108C31.8544 46.5119 31.9159 46.6176 31.9764 46.7293L31.9963 46.7668L31.9378 46.7441L31.8952 46.7271C31.6127 46.6136 31.3141 46.4795 30.9601 46.3139C30.7689 46.2245 30.7008 46.0801 30.7374 45.9037C30.7533 45.827 30.7893 45.7528 30.8344 45.6986C30.8482 45.682 30.8618 45.6685 30.874 45.6587L30.8873 45.649L30.8745 45.6499C31.1215 45.6234 31.4326 45.8741 31.741 46.3358L31.7899 46.4108Z" fill="#00160A"/>
<path fill-rule="evenodd" clip-rule="evenodd" d="M34.8725 48.6765C34.8303 48.5229 32.4662 44.923 34.1262 45.0361C35.7863 45.1492 35.391 49.2292 35.3332 49.2292C35.2652 49.2292 34.9028 48.7868 34.8725 48.6765Z" fill="white"/>
<path fill-rule="evenodd" clip-rule="evenodd" d="M33.2986 45.5723C33.2987 45.9167 33.4362 46.3727 33.6829 46.9267C33.7569 47.093 33.8399 47.2658 33.9311 47.4451L33.9868 47.5535C34.2059 47.9753 34.645 48.7347 34.6412 48.7209C34.6648 48.8067 34.7635 48.9497 34.8935 49.107L34.9412 49.1642C35.1003 49.353 35.1795 49.4213 35.3137 49.4271L35.3703 49.4283C35.5313 49.4354 35.5311 49.4816 35.5683 49.2859L35.5818 49.2144C35.5874 49.185 35.5931 49.1468 35.5988 49.1012L35.6022 49.073C35.6171 48.9458 35.6305 48.7798 35.6395 48.5982C35.663 48.1292 35.6564 47.6272 35.6104 47.1589L35.5979 47.04C35.4495 45.7269 35.0183 44.8979 34.1455 44.8385C33.5877 44.8005 33.2985 45.0921 33.2986 45.5723ZM34.1069 45.2338C34.6631 45.2716 35.0205 46 35.1374 47.1913C35.1816 47.642 35.188 48.128 35.1653 48.5817L35.1575 48.7165L35.149 48.7045C35.1261 48.6716 35.1103 48.6467 35.1053 48.6359L35.1038 48.6321C35.0936 48.5949 34.6174 47.7714 34.4222 47.3956C34.312 47.1834 34.2134 46.9809 34.1277 46.7884C33.8993 46.2753 33.7733 45.8577 33.7733 45.5723C33.7732 45.3123 33.8529 45.223 34.0818 45.2324L34.1069 45.2338Z" fill="#00160A"/>
<path fill-rule="evenodd" clip-rule="evenodd" d="M41.3964 55.9898C41.3964 55.9898 41.9164 55.3861 42.2087 55.0863C42.501 54.7865 42.8143 54.5356 42.8143 54.5356C42.8143 54.5356 35.7548 53.9486 33.3094 52.4278C30.1163 50.4418 27.2519 47.148 24.3667 46.4513C20.9174 45.6184 19.6408 47.5502 18.6459 47.7077C15.6152 48.1875 10.0644 49.5529 12.6026 53.677C13.3862 54.9502 15.9246 55.5422 17.7129 54.8324C19.709 54.0401 22.1673 52.0993 24.7527 52.0993C27.7424 52.0993 28.2629 54.1458 32.0581 55.2308C34.3875 55.8967 41.3964 55.9898 41.3964 55.9898Z" fill="white"/>
<path fill-rule="evenodd" clip-rule="evenodd" d="M49.8024 70.5831C49.8024 70.5831 51.5259 72.155 52.24 73.1663C52.9541 74.1776 52.7039 74.726 53.6953 75.1934C55.1847 75.8956 56.7198 75.7185 57.4029 75.3451C58.086 74.9717 57.4451 74.016 56.0133 74.016C55.6611 74.016 55.2468 73.3402 55.0462 72.8931C54.8456 72.4461 54.9374 71.3459 54.9374 71.3459L49.8024 70.5831Z" fill="white"/>
<path fill-rule="evenodd" clip-rule="evenodd" d="M81.9031 49.4966C81.9031 49.4966 93.1325 61.0047 77.341 67.7599C66.2967 72.4843 48.1517 69.9335 48.1517 69.9335C48.1517 69.9335 67.9047 74.3706 80.8152 69.0212C89.053 65.6079 90.6824 59.8059 86.7524 53.8987C85.724 52.3528 81.9031 49.4966 81.9031 49.4966Z" fill="#E7EAEE"/>
<path fill-rule="evenodd" clip-rule="evenodd" d="M81.2436 48.9227C81.385 48.7661 81.6056 48.7641 81.7702 48.8494C82.3003 49.1244 83.2594 49.7899 84.1819 50.5705C85.4623 51.654 86.6055 52.8817 87.4822 54.205C89.8823 57.828 89.6679 61.6211 86.6218 65.3376C83.9294 68.6227 78.6618 70.6054 71.2677 71.4935C64.8004 72.2703 57.3134 72.1628 51.1096 71.0653L50.7985 71.0094C47.248 70.3618 44.6306 69.5391 42.6503 68.2677C40.053 66.6 38.8414 64.2664 39.2567 61.1282C39.8853 56.3778 42.1329 53.7377 45.5212 52.8129C46.7808 52.4691 48.1299 52.3845 49.5222 52.4993C50.4769 52.578 51.2786 52.7264 52.1274 52.9357L52.2782 52.9734C53.2002 53.207 53.9849 53.465 55.1951 53.913L56.0898 54.2479C57.9437 54.9422 59.0165 55.2715 60.4053 55.5055C62.1529 55.7999 64.0771 55.8346 66.4116 55.5679L66.758 55.5268C68.6636 55.2947 69.6865 55.0839 70.2948 54.7597C71.007 54.3801 71.2612 53.7649 71.1594 52.9131C71.1131 52.5256 70.9979 52.1169 70.8161 51.6403L70.766 51.5118C70.6876 51.3172 70.4583 50.7701 70.4161 50.6512C70.3638 50.504 70.3399 50.4014 70.3484 50.3061C70.3699 50.0668 70.621 49.9191 70.9018 49.9897C72.3867 50.3628 73.4531 51.4464 74.108 53.203C74.1661 53.359 74.0619 53.5249 73.8752 53.5735C73.6885 53.622 73.4901 53.535 73.4319 53.379C72.9333 52.0417 72.2053 51.1719 71.252 50.747L71.1893 50.72L71.4471 51.3481L71.4542 51.3661C72.1087 53.6982 71.6224 55.5268 67.2204 56.0918C66.9781 56.1229 62.1102 56.4729 60.0891 56.055C57.0271 55.4219 52.6816 53.0593 50.0765 52.9734C47.4714 52.8875 46.8986 53.0593 45.7411 53.3753C42.6355 54.223 40.0524 56.9688 39.5312 61.5036C39.2559 63.8982 40.8039 66.3244 43.3424 67.8191C49.8024 71.6229 64.7831 71.804 71.1669 71.0372C78.384 70.1704 83.7902 68.1231 86.3471 65.0033C89.2301 61.4858 89.1409 57.9307 86.8626 54.4915C86.0197 53.2191 84.9157 52.0335 83.678 50.9862C83.1143 50.5092 82.5379 50.078 82.0699 49.7636L81.9912 49.7111L82.0596 49.9366L82.2789 50.6405L82.3589 50.9042C82.3714 50.9458 82.3834 50.9865 82.3951 51.0265L82.4369 51.1713C82.5849 51.6913 82.675 52.0949 82.7056 52.4179C82.7902 53.3105 82.4809 53.9593 81.7621 54.3103C81.5933 54.3927 81.3764 54.3452 81.2778 54.2041C81.1791 54.0631 81.236 53.8819 81.4048 53.7995C81.8611 53.5767 82.0646 53.1497 81.9997 52.4646C81.9726 52.1782 81.8877 51.7988 81.747 51.3047L81.7073 51.1671C81.6901 51.1083 81.6721 51.048 81.6532 50.9851L81.3447 49.9889C81.2987 49.8381 81.2642 49.7195 81.2366 49.6162L81.2285 49.5857C81.1814 49.4062 81.1567 49.2778 81.1553 49.181C81.1539 49.082 81.1709 49.0031 81.2436 48.9227Z" fill="#00160A"/>
<path fill-rule="evenodd" clip-rule="evenodd" d="M73.5992 52.3472L73.8521 52.3116C75.5224 52.0814 76.8703 51.9982 77.9004 52.0633C78.9871 52.1321 80.1391 52.3776 81.3565 52.7985C81.5171 52.8541 81.5934 53.0079 81.5269 53.1421C81.4605 53.2762 81.2764 53.34 81.1158 53.2845C79.9572 52.8839 78.8696 52.6521 77.8528 52.5878C76.8309 52.5231 75.4469 52.6151 73.7059 52.8655C73.5347 52.8901 73.3719 52.7941 73.3424 52.6509C73.3129 52.5078 73.4279 52.3718 73.5992 52.3472Z" fill="#00160A"/>
<path fill-rule="evenodd" clip-rule="evenodd" d="M75.6121 51.1673C76.3659 51.038 77.0544 51.1049 77.6687 51.37C78.2567 51.6238 78.7662 51.943 79.1961 52.3274C79.286 52.4078 79.2809 52.5339 79.1846 52.609C79.0884 52.6842 78.9375 52.6799 78.8476 52.5995C78.4556 52.2489 77.99 51.9571 77.4498 51.724C76.9358 51.5022 76.3583 51.4461 75.708 51.5577C75.579 51.5798 75.453 51.5104 75.4265 51.4026C75.4 51.2948 75.4831 51.1895 75.6121 51.1673Z" fill="#00160A"/>
<path fill-rule="evenodd" clip-rule="evenodd" d="M77.1364 50.124C77.2039 50.0296 77.3504 49.9988 77.4634 50.0553C78.068 50.3574 78.5685 50.6955 78.964 51.0699C79.3634 51.448 79.6913 51.9312 79.9492 52.5185C79.9946 52.6218 79.9311 52.7362 79.8075 52.7741C79.6839 52.8121 79.5469 52.759 79.5015 52.6557C79.263 52.1125 78.9641 51.6721 78.6065 51.3336C78.2451 50.9914 77.7827 50.6791 77.2186 50.3972C77.1056 50.3408 77.0688 50.2184 77.1364 50.124Z" fill="#00160A"/>
<path fill-rule="evenodd" clip-rule="evenodd" d="M70.2275 54.8582C70.3272 54.7393 70.5235 54.7104 70.6658 54.7938C70.8082 54.8771 67.7697 58.4927 67.7697 59.1942C67.7697 59.9549 68.2169 60.464 69.4082 61.2671L69.913 61.6024L70.0598 61.7008C70.7983 62.1993 71.2284 62.549 71.594 62.9931C72.105 63.6137 72.3455 64.3066 72.2842 65.1284C72.2087 66.142 71.8426 66.8424 71.1174 67.6507L71.0517 67.7231C70.9702 67.811 70.6112 68.1942 70.5129 68.3063C70.162 68.7067 69.9969 69.0081 69.9669 69.362C69.8345 70.9214 70.7127 72.8044 72.6197 75.0041C72.7217 75.1217 72.6903 75.2861 72.5495 75.3713C72.4087 75.4565 72.212 75.4302 72.11 75.3126C70.1242 73.0221 69.1944 71.0285 69.339 69.3248C69.3774 68.873 69.5745 68.4985 69.9581 68.0498L70.0051 67.9956C70.1179 67.8668 70.5298 67.4278 70.5644 67.3898C71.2553 66.6326 72.2541 65.5246 71.4543 63.4162C71.0517 62.3547 67.2286 61.6024 67.1029 59.3428C67.0732 58.8105 68.1354 57.3536 70.2275 54.8582Z" fill="#00160A"/>
<path d="M71.3846 65.7905L70.9454 65.7944C68.3455 65.8222 66.7641 65.9317 66.2756 66.1068L66.2578 66.1134C65.5394 66.3886 64.9744 66.7619 64.5424 67.2092C64.207 67.5566 63.97 67.929 63.815 68.3008C63.7688 68.4116 63.7331 68.5151 63.7064 68.6094L63.6883 68.6763L64.4403 69.4815C64.4478 69.4896 64.4547 69.4979 64.4609 69.5064L64.4682 69.515L64.4919 69.5439C64.6544 69.7408 64.8388 69.9332 65.076 70.1576L65.1854 70.2593C65.3802 70.437 66.0004 70.9956 66.2112 71.1967C66.662 71.6268 67.0417 72.0406 67.4054 72.5158C67.9597 73.24 68.4486 74.0765 68.8875 75.0893L68.9191 75.1633L68.9506 75.2393C68.989 75.333 69.0265 75.4294 69.0672 75.538L69.2525 76.0458C69.5261 76.7944 69.7173 77.1381 70.0204 77.3464L70.0713 77.3804C70.4684 77.6389 70.8386 77.7027 71.8677 77.73L72.1684 77.737C73.5364 77.7683 74.25 76.8605 73.4672 76.2009C73.2217 75.9941 72.4121 75.8337 71.0878 75.7666C70.9143 75.7578 71.0773 75.3842 71.0878 75.2393C71.0983 75.0943 71.2475 74.9839 71.421 74.9927C71.5744 75.0005 71.7218 75.0094 71.8631 75.0195C70.1092 72.8956 69.253 71.0856 69.3891 69.4815C69.4275 69.0297 69.3694 68.8528 69.7531 68.4042L69.8264 68.3203C69.9661 68.1644 70.327 67.7796 70.3594 67.7442C70.6547 67.4205 70.8605 67.1552 71.0256 66.8657L71.0581 66.8075L71.069 66.7866L71.0873 66.7528C71.1741 66.5868 71.266 66.3007 71.3597 65.8997L71.3846 65.7905Z" fill="white"/>
<path fill-rule="evenodd" clip-rule="evenodd" d="M63.9932 68.3712C64.2411 68.9756 64.6737 69.3446 65.276 69.9156L65.3607 69.995C65.5112 70.1332 66.1931 70.7466 66.4162 70.9595C66.8671 71.3897 67.2468 71.8035 67.6104 72.2786C68.1647 73.0029 68.6536 73.8393 69.0925 74.8521C69.1137 74.9009 69.1346 74.9507 69.1556 75.0021L69.213 75.1459C69.2259 75.1788 69.2389 75.2126 69.2521 75.2475L69.3272 75.4494C69.3655 75.5543 69.4432 75.7693 69.4576 75.8086L69.499 75.9206C69.751 76.5921 69.9379 76.9117 70.2254 77.1092L70.2763 77.1433C70.6565 77.3907 71.012 77.4597 71.9448 77.4891L72.3735 77.4998C73.7415 77.5311 74.455 76.6234 73.6722 75.9638C73.4268 75.7569 72.6171 75.5966 71.2928 75.5294C71.1193 75.5206 70.9872 75.3959 70.9978 75.251C71.0083 75.106 71.1575 74.9956 71.331 75.0044L71.4961 75.0134C72.8791 75.0934 73.7387 75.2729 74.1192 75.5935C75.3445 76.626 74.2535 78.0398 72.4123 78.0264L72.1907 78.0218C70.8762 77.9922 70.405 77.9135 69.8256 77.5154C69.4123 77.2315 69.1878 76.8497 68.8994 76.0805L68.7125 75.5683L68.6525 75.4074C68.6269 75.34 68.6026 75.2775 68.5783 75.2171L68.56 75.1721C68.5402 75.1237 68.5205 75.0768 68.5007 75.0311C68.0774 74.0543 67.6089 73.2529 67.0801 72.5619C66.7613 72.1454 66.4293 71.7783 66.041 71.4007L65.9427 71.306C65.7155 71.0892 64.9753 70.424 64.8724 70.3279C64.2012 69.701 63.8001 69.1946 63.514 68.5273L63.4848 68.4577C62.9282 67.1008 62.2136 66.6379 61.28 66.9271C61.117 66.9776 59.2931 67.7086 61.0596 66.7272C62.8261 65.7458 63.9932 68.3712 63.9932 68.3712Z" fill="#00160A"/>
<path fill-rule="evenodd" clip-rule="evenodd" d="M74.9756 59.0291C74.6327 59.0291 74.1406 58.2061 74.1406 57.8039C74.1406 57.4018 75.372 57.5378 75.372 57.5378C75.372 57.5378 76.6652 57.6827 76.4869 58.0872C76.3087 58.4916 75.1662 59.0291 74.9756 59.0291Z" fill="#FFB61D"/>
<ellipse cx="72.9483" cy="56.0682" rx="0.679169" ry="1.06016" fill="#00160A"/>
<ellipse cx="79.4437" cy="56.308" rx="0.744328" ry="1.04355" fill="#00160A"/>
<path fill-rule="evenodd" clip-rule="evenodd" d="M78.958 58.06C79.525 57.8565 80.1524 57.818 80.8335 57.9423C81.4998 58.0638 83.5067 59.1133 83.4365 59.2064C83.3663 59.2995 81.3341 58.4415 80.7318 58.3316C80.1445 58.2244 79.6182 58.2567 79.1462 58.4261C79.0252 58.4695 78.885 58.4228 78.833 58.3217C78.781 58.2206 78.837 58.1034 78.958 58.06Z" fill="#00160A"/>
<path fill-rule="evenodd" clip-rule="evenodd" d="M79.3192 58.7486C79.9143 58.7749 80.0693 58.6615 80.8846 59.1037C81.6999 59.5459 82.3091 60.5873 82.1976 60.6458C82.0861 60.7043 81.4355 59.7755 80.6888 59.3079C79.9422 58.8402 79.0615 59.0469 79.0685 58.937C79.075 58.8333 79.1755 58.7523 79.2975 58.7485L79.3192 58.7486Z" fill="#00160A"/>
<path fill-rule="evenodd" clip-rule="evenodd" d="M75.1862 59.4607C75.0207 60.3194 75.0623 60.866 75.1242 61.4759C75.1862 62.0859 75.7697 62.964 75.8282 63.3311C75.8867 63.6981 74.7244 62.1845 74.6541 61.5428C74.5838 60.9011 74.0855 59.1569 74.9558 59.238C74.9558 59.238 75.2045 59.3654 75.1862 59.4607Z" fill="#00160A"/>
<path fill-rule="evenodd" clip-rule="evenodd" d="M70.8551 58.165C71.3836 58.165 71.5977 58.1759 72.1123 58.2605C72.2415 58.2817 72.3256 58.3865 72.3002 58.4944C72.2748 58.6024 72.1494 58.6727 72.0202 58.6515C71.8371 58.6213 71.4858 58.4933 70.9034 58.4985C70.1073 58.5055 69.4144 58.8747 69.3797 58.8135C69.3233 58.7141 70.3265 58.165 70.8551 58.165Z" fill="#00160A"/>
<path fill-rule="evenodd" clip-rule="evenodd" d="M71.7194 57.3095C71.8476 57.3348 71.927 57.4421 71.8968 57.5492C71.8665 57.6563 71.7381 57.7226 71.61 57.6974C70.4651 57.4717 69.5465 57.4778 68.8986 57.4567C68.2613 57.4359 66.8318 57.5193 66.79 57.4149C66.7481 57.3106 70.5473 57.0786 71.7194 57.3095Z" fill="#00160A"/>
<path fill-rule="evenodd" clip-rule="evenodd" d="M77.0307 69.9936C77.2045 69.9962 77.3429 70.116 77.3399 70.2612C77.3285 70.7973 77.4184 71.1759 77.5918 71.3937C78.3192 72.3075 78.9362 72.924 79.5148 73.129C79.5306 73.1347 79.5682 73.1426 79.6267 73.1522L79.7135 73.1652C79.7785 73.1743 80.0532 73.2089 80.1013 73.2153C80.2822 73.2392 80.4314 73.2621 80.5768 73.2896C80.8981 73.3505 81.1653 73.4283 81.3866 73.5363C82.0515 73.861 82.4904 74.3356 82.5331 74.8023C82.5825 75.3416 82.1134 75.7442 81.2843 75.8706C79.2483 76.1808 77.8233 75.8767 77.0726 74.9317C76.2912 74.0062 75.5109 73.2385 74.7326 72.6285C73.9668 72.0284 73.287 71.6425 72.7006 71.4688C72.5368 71.4203 72.4511 71.27 72.5092 71.1331C72.5673 70.9962 72.7472 70.9246 72.911 70.9731C73.5912 71.1746 74.3394 71.5993 75.1632 72.245C75.9746 72.8808 76.7822 73.6754 77.5919 74.6347C78.1835 75.3792 79.3571 75.6296 81.1713 75.3532C81.7094 75.2712 81.9276 75.0838 81.9055 74.8424C81.8806 74.5704 81.5709 74.2355 81.069 73.9904C80.9122 73.9139 80.7016 73.8525 80.4376 73.8025C80.324 73.781 80.2053 73.7623 80.0646 73.743L79.6097 73.6839L79.5219 73.6709C79.413 73.6538 79.3354 73.6367 79.2689 73.6132C78.8363 73.4598 78.3917 73.1298 77.9263 72.6647C77.6194 72.3581 77.3838 72.082 77.0677 71.685C76.8103 71.3616 76.6972 70.885 76.7105 70.2519C76.7136 70.1067 76.857 69.9911 77.0307 69.9936Z" fill="#00160A"/>
<path fill-rule="evenodd" clip-rule="evenodd" d="M79.5727 74.8449C79.6038 74.758 79.7134 74.7085 79.8175 74.7345C80.1415 74.8154 80.3709 74.9048 80.5108 75.011C80.6435 75.1117 80.7745 75.2663 80.9088 75.4762C80.9601 75.5562 80.9239 75.6558 80.8282 75.6986C80.7324 75.7414 80.6132 75.7113 80.5619 75.6312C80.447 75.4516 80.3401 75.3255 80.2462 75.2543C80.1596 75.1885 79.9774 75.1174 79.7049 75.0494C79.6008 75.0235 79.5416 74.9319 79.5727 74.8449Z" fill="#00160A"/>
<path fill-rule="evenodd" clip-rule="evenodd" d="M80.5989 74.4971C80.6332 74.411 80.7446 74.3644 80.8477 74.393C81.1252 74.4702 81.3315 74.5582 81.4685 74.6622C81.6044 74.7654 81.7348 74.9321 81.8668 75.1645C81.9134 75.2465 81.8716 75.3445 81.7735 75.3834C81.6754 75.4224 81.558 75.3874 81.5114 75.3054C81.3995 75.1084 81.2946 74.9743 81.2039 74.9055C81.1144 74.8375 80.9536 74.7689 80.7235 74.7049C80.6204 74.6763 80.5646 74.5832 80.5989 74.4971Z" fill="#00160A"/>
<path fill-rule="evenodd" clip-rule="evenodd" d="M72.1782 76.762C72.2125 76.6759 72.3239 76.6293 72.4269 76.6579C72.7045 76.7351 72.9107 76.8231 73.0477 76.9271C73.1836 77.0302 73.3141 77.197 73.4461 77.4293C73.4927 77.5113 73.4509 77.6094 73.3528 77.6483C73.2546 77.6872 73.1373 77.6523 73.0907 77.5703C72.9787 77.3732 72.8739 77.2392 72.7832 77.1704C72.6936 77.1024 72.5328 77.0338 72.3027 76.9698C72.1997 76.9412 72.1439 76.8481 72.1782 76.762Z" fill="#00160A"/>
<path fill-rule="evenodd" clip-rule="evenodd" d="M72.7505 76.2041C72.7848 76.118 72.8961 76.0714 72.9992 76.1001C73.2767 76.1773 73.483 76.2652 73.62 76.3693C73.7559 76.4724 73.8863 76.6391 74.0184 76.8715C74.0649 76.9535 74.0232 77.0515 73.925 77.0905C73.8269 77.1294 73.7096 77.0945 73.663 77.0125C73.551 76.8154 73.4462 76.6814 73.3555 76.6125C73.2659 76.5446 73.1051 76.476 72.875 76.412C72.7719 76.3833 72.7162 76.2903 72.7505 76.2041Z" fill="#00160A"/>
<path fill-rule="evenodd" clip-rule="evenodd" d="M49.5898 70.3892C49.718 70.2911 51.8903 72.3729 52.3562 73.0326C52.5064 73.2453 52.6249 73.45 52.7303 73.669C52.7627 73.7364 52.793 73.8032 52.8258 73.8786L52.9493 74.1701C53.1325 74.5957 53.437 74.7697 53.8499 74.9644C55.0615 75.5356 56.4922 75.5287 57.2306 75.125C57.64 74.9012 57.087 74.2789 56.0133 74.2789C55.5114 74.2789 55.0797 73.7168 54.7515 72.9854C54.5978 72.6429 54.5594 72.096 54.6235 71.3276C54.6356 71.1827 54.7859 71.0734 54.9593 71.0835C55.1327 71.0936 55.2635 71.2193 55.2514 71.3641C55.1931 72.0627 55.2272 72.5474 55.3409 72.8008L55.374 72.8724C55.5951 73.3354 55.9203 73.753 56.0133 73.753C56.7698 73.753 57.4098 73.9965 57.7538 74.3837C58.1179 74.7933 58.0699 75.2947 57.5752 75.5651C56.6343 76.0795 54.9516 76.0877 53.5406 75.4224C52.9954 75.1654 52.7564 74.8989 52.5327 74.3959L52.4126 74.1133C52.3724 74.0189 52.3381 73.942 52.3011 73.8651C52.207 73.6696 52.1022 73.4886 51.9689 73.2999C51.506 72.6443 50.7058 71.7963 49.5703 70.7607C49.4529 70.6536 49.4617 70.4873 49.5898 70.3892Z" fill="#00160A"/>
<path fill-rule="evenodd" clip-rule="evenodd" d="M55.4176 74.8449C55.4487 74.758 55.5583 74.7085 55.6624 74.7345C55.9865 74.8154 56.2158 74.9048 56.3557 75.011C56.4884 75.1117 56.6194 75.2663 56.7537 75.4762C56.805 75.5562 56.7689 75.6558 56.6731 75.6986C56.5773 75.7414 56.4581 75.7113 56.4069 75.6312C56.2919 75.4516 56.185 75.3255 56.0911 75.2543C56.0045 75.1885 55.8223 75.1174 55.5498 75.0494C55.4457 75.0235 55.3866 74.9319 55.4176 74.8449Z" fill="#00160A"/>
<path fill-rule="evenodd" clip-rule="evenodd" d="M56.1577 74.5768C56.192 74.4907 56.3034 74.4441 56.4065 74.4727C56.684 74.5499 56.8903 74.6379 57.0273 74.7419C57.1632 74.8451 57.2936 75.0118 57.4256 75.2442C57.4722 75.3262 57.4304 75.4242 57.3323 75.4631C57.2342 75.502 57.1168 75.4671 57.0703 75.3851C56.9583 75.1881 56.8534 75.054 56.7627 74.9852C56.6732 74.9172 56.5124 74.8486 56.2823 74.7846C56.1792 74.756 56.1234 74.6629 56.1577 74.5768Z" fill="#00160A"/>
<path fill-rule="evenodd" clip-rule="evenodd" d="M19.8783 46.763L19.8118 46.8013C19.6012 46.9243 19.1956 47.1715 19.1063 47.224L19.0972 47.2293C18.8658 47.3625 18.7095 47.43 18.5874 47.4493C16.4296 47.7909 14.566 48.1732 13.2904 48.9802C11.5067 50.1086 10.5431 52.0818 11.7653 54.0676C12.635 55.4807 15.9227 55.8341 17.848 55.0699C18.1773 54.9392 18.5282 54.7755 18.9515 54.5591L19.1275 54.4683C19.1884 54.4366 19.251 54.4038 19.3176 54.3686L19.7786 54.1228L20.2825 53.8531L20.467 53.7557C22.3199 52.7829 23.4972 52.3623 24.7527 52.3623C25.7904 52.3623 26.5207 52.6003 27.4382 53.1628L27.5074 53.2056C27.6667 53.305 28.7006 53.9941 29.0497 54.2064C29.9542 54.7568 30.8474 55.1626 31.9562 55.4796L32.0537 55.5067C33.6765 55.9455 36.7806 56.1915 41.3915 56.2527C41.4945 56.254 41.5917 56.2132 41.6519 56.1433L41.8316 55.936C42.0898 55.64 42.2971 55.4119 42.4527 55.2524C42.6395 55.0607 42.8326 54.8851 43.032 54.7255C43.226 54.5701 43.1128 54.2962 42.8454 54.2739L42.5681 54.2504C38.0676 53.8592 35.038 53.175 33.4973 52.2168L33.385 52.1464C32.5634 51.6273 31.7787 51.0415 30.5825 50.0826L29.0368 48.8418C28.4256 48.3553 28.2108 48.1971 27.7826 47.8932L27.7156 47.8457C26.7146 47.1364 25.8461 46.6501 25.0037 46.36C24.8188 46.2964 24.6357 46.2425 24.454 46.1987C22.5781 45.7457 21.2314 45.9974 19.8783 46.763ZM24.2793 46.7039C24.4384 46.7423 24.5998 46.7898 24.7638 46.8463C25.5103 47.1034 26.3005 47.5406 27.2165 48.182L27.5749 48.4365C27.9694 48.72 28.2426 48.9321 29.1519 49.6622L30.2302 50.5289C31.4513 51.5057 32.2512 52.0974 33.1215 52.6387L33.1726 52.6701C34.7536 53.6297 37.6256 54.3042 41.8035 54.7092L42.1452 54.7414L42.1405 54.7459C42.101 54.7837 42.0618 54.8222 42.0228 54.8612L41.937 54.9487L41.8713 55.0175C41.7466 55.1493 41.5983 55.3129 41.4261 55.5084L41.2372 55.7245L40.8548 55.7186C36.5177 55.645 33.6114 55.397 32.16 54.982C31.155 54.6947 30.3413 54.3315 29.5189 53.8408L29.4201 53.7813C29.0851 53.5775 28.0552 52.8911 27.884 52.7843C26.8335 52.1285 25.9684 51.8364 24.7526 51.8364C23.3433 51.8364 22.0833 52.2861 20.1353 53.3087L19.8359 53.4673L19.1939 53.8112C19.0034 53.9128 18.8528 53.9921 18.7064 54.0676L18.5438 54.1508C18.1734 54.3383 17.8641 54.4813 17.5779 54.5949C15.9458 55.2427 13.5886 54.7041 12.8824 53.5567C11.8023 51.8017 12.1824 50.5118 13.7259 49.5354C14.905 48.7894 16.6346 48.2938 18.7045 47.9661C18.9212 47.9318 19.13 47.8451 19.4024 47.6919L19.4542 47.6624C19.535 47.616 20.0248 47.3169 20.2117 47.2096L20.2312 47.1985C21.4397 46.5147 22.5986 46.2981 24.2793 46.7039Z" fill="#00160A"/>
<path fill-rule="evenodd" clip-rule="evenodd" d="M99.6508 53.8507L99.6212 53.9109L99.5614 54.0354C98.7873 55.6762 98.104 58.1902 97.5074 61.5834L97.4726 61.7828L97.4706 61.7731C97.2396 60.6352 96.9478 59.7511 96.5927 59.1178C95.9758 58.0176 95.0968 57.6022 94.0581 57.997C90.6873 59.2783 90.8884 64.4883 94.4581 73.6441C94.5056 73.7659 94.6415 73.8483 94.7948 73.8483H98.6701C98.7741 73.8483 98.8729 73.8101 98.9401 73.7438C103.779 68.9746 105.947 65.7683 105.417 64.0068L105.4 63.9509C104.917 62.4355 103.712 62.1108 101.993 62.9251L101.932 62.9543L102.017 62.7895C105 57.0164 105.547 53.4618 103.532 52.0764C102.052 51.0593 100.702 51.7322 99.6508 53.8507ZM103.14 52.3048C104.914 53.5244 104.283 57.5183 100.918 63.7083C100.764 63.9914 104.73 61.773 104.73 64.1509L104.743 64.1962C105.125 65.6598 103.154 68.6146 98.8085 72.9558L98.5057 73.2566L94.7948 73.4776C94.7948 73.4776 89.7918 59.675 94.3513 58.5355C95.6634 58.2076 96.6314 59.7998 97.1115 64.1063C97.1508 64.4589 97.7638 64.4664 97.8155 64.1149L97.8575 63.8312C98.5472 59.2252 99.3656 55.9701 100.305 54.0773L100.359 53.9706C101.236 52.2542 102.148 51.6233 103.14 52.3048Z" fill="#00160A"/>
<path d="M103.082 52.5333C104.856 53.7529 104.137 57.4873 100.772 63.6774C100.618 63.9605 101.024 64.2249 101.315 64.0311L101.433 63.9533C103.345 62.7097 104.325 62.8048 104.73 64.151L104.743 64.1962C105.125 65.6598 103.154 68.6146 98.8086 72.9558L98.5057 73.2567H95.0521L94.9282 72.9342C91.6723 64.4076 91.5438 59.6027 94.3513 58.5356C95.6464 58.0433 96.6314 59.7998 97.1115 64.1063C97.1508 64.459 97.7638 64.4664 97.8155 64.1149L97.8575 63.8312C98.5473 59.2252 99.3656 55.9701 100.305 54.0773L100.359 53.9706C101.236 52.2542 102.091 51.8518 103.082 52.5333Z" fill="white"/>
<ellipse cx="93.8559" cy="62.3076" rx="1.25885" ry="1.05184" fill="#E7EAEE"/>
<ellipse cx="101.724" cy="55.4706" rx="1.25885" ry="1.05184" fill="#E7EAEE"/>
<ellipse cx="102.353" cy="65.5945" rx="1.25885" ry="1.05184" fill="#E7EAEE"/>
<path fill-rule="evenodd" clip-rule="evenodd" d="M35.6308 74.579C33.4087 74.6084 25.7672 75.0815 25.6352 74.8446C25.4663 74.5415 33.7993 74.143 35.6157 74.119L36.1847 74.1126C37.8362 74.0976 35.6308 74.579 35.6308 74.579ZM68.317 73.9636C68.5125 73.9593 68.6752 74.0882 68.6803 74.2515C68.6855 74.4148 68.5312 74.5507 68.3357 74.555L65.1731 74.6203C63.2046 74.6581 60.923 74.6972 57.5515 74.7527C57.356 74.7559 57.1944 74.6261 57.1905 74.4627C57.1867 74.2994 57.342 74.1644 57.5375 74.1611L63.5076 74.0595C65.3201 74.0267 66.7763 73.9976 68.317 73.9636ZM76.4744 73.8257C76.6699 73.8232 76.8309 73.9535 76.834 74.1169C76.8371 74.2802 76.6811 74.4148 76.4856 74.4173L75.656 74.4258L73.1176 74.4405C72.586 74.445 72.17 74.4511 71.6795 74.4611C71.484 74.4651 71.3217 74.336 71.3169 74.1726C71.3121 74.0093 71.4667 73.8737 71.6622 73.8697L72.2866 73.8584C72.6954 73.8522 73.1108 73.8483 73.6628 73.8449L75.7736 73.8332C76.019 73.8312 76.2411 73.8288 76.4744 73.8257ZM99.4202 73.2567C99.4202 73.2567 100.056 73.165 104.697 73.4553C104.892 73.4675 105.038 73.6095 105.023 73.7724C105.009 73.9353 102.714 73.853 99.5764 73.8484L98.7136 73.8496C96.4099 73.8581 94.2698 73.9102 90.7179 74.0324L86.2349 74.1906C84.3218 74.2561 83.1805 74.288 81.7925 74.3153C81.5971 74.3192 81.4349 74.1899 81.4302 74.0266C81.4256 73.8632 81.5804 73.7277 81.7758 73.7238L82.8904 73.6995C84.2162 73.6675 85.5786 73.6229 87.994 73.5367L90.5554 73.4458C94.5603 73.3075 96.7873 73.2567 99.4202 73.2567Z" fill="#00160A"/>
<path d="M88.6922 30.6725L88.7733 30.5478C89.4083 29.587 89.9613 29.11 90.6061 29.2657C90.6584 29.2783 90.7097 29.2955 90.7599 29.3172C91.1551 29.4884 91.25 29.8067 91.1391 30.2411L91.1319 30.2679L91.1505 30.2456C91.3378 30.0233 91.5164 29.8516 91.7016 29.7242L91.7414 29.6976C92.1531 29.4299 92.5898 29.405 92.9853 29.6839C93.6168 30.1294 93.5452 30.8765 93.0296 31.3364L93.001 31.3611C92.9294 31.4217 92.8862 31.5527 92.8381 31.8611L92.7964 32.1312C92.7464 32.4429 92.7128 32.5796 92.6342 32.7908C92.4855 33.1896 92.2418 33.5223 91.8624 33.794C91.3854 34.1356 90.5804 34.0879 89.4467 33.6986C89.3249 33.6568 89.2667 33.5404 89.3168 33.4386C89.3668 33.3368 87.7264 32.1281 87.6768 32.1811L87.6608 32.1965C87.5695 32.2758 87.4186 32.2783 87.3236 32.2021L87.0932 32.0166C86.9544 31.9048 87.0236 31.7087 87.2128 31.6777C87.5593 31.6209 87.8282 31.5582 88.0171 31.4912C88.1758 31.435 88.2624 31.3812 88.283 31.3464C88.283 31.3464 88.6275 30.7732 88.6922 30.6725Z" fill="white"/>
<path fill-rule="evenodd" clip-rule="evenodd" d="M86.9904 31.6976C86.5886 31.6724 86.3522 31.9277 86.3522 32.2367C86.3522 33.3066 88.444 34.7696 89.8071 34.7696C90.2067 34.7696 90.5336 34.5308 90.4175 34.1658C90.3738 34.0282 90.2731 33.9062 90.108 33.7558L90.0716 33.7231C89.886 33.5584 89.6942 33.4114 89.2639 33.102L88.6049 32.6301C88.4432 32.5131 88.186 32.3266 88.1083 32.2711L88.0147 32.2047C87.8346 32.0778 87.6953 31.9853 87.5709 31.9119C87.3511 31.782 87.1807 31.7096 86.9904 31.6976ZM86.8291 32.2368C86.8291 31.8185 87.5463 32.3968 88.4095 33.0156L88.983 33.4255C89.685 33.9313 90.5419 34.4574 90.108 34.496C88.7332 34.6182 86.8291 33.095 86.8291 32.2368Z" fill="#00160A"/>
<path fill-rule="evenodd" clip-rule="evenodd" d="M87.1005 28.894C87.1991 28.8211 87.6913 28.5339 87.4371 28.911C87.1829 29.288 85.7133 29.7663 87.1829 31.6732C87.2388 31.7457 87.1707 31.8912 87.0481 31.9315C86.9256 31.9717 86.7872 31.9212 86.7391 31.8188C86.3675 31.0281 86.1956 30.4556 86.2285 30.0835C86.2634 29.6891 86.5596 29.2947 87.1005 28.894Z" fill="#00160A"/>
<path fill-rule="evenodd" clip-rule="evenodd" d="M85.2643 29.5579C85.2902 29.45 85.545 29.183 85.545 29.4017C85.545 29.6204 85.1706 30.1751 85.6976 30.8002C86.2245 31.4252 87.1312 31.8492 87.0537 31.9381C86.9762 32.027 86.827 32.0466 86.7206 31.9818C85.9576 31.5175 85.4944 31.1541 85.3198 30.8694C85.1377 30.5722 85.1252 30.1374 85.2643 29.5579Z" fill="#00160A"/>
<path fill-rule="evenodd" clip-rule="evenodd" d="M88.6922 30.6725L88.7733 30.5478C89.4083 29.587 89.9613 29.11 90.6061 29.2657C90.6584 29.2783 90.7097 29.2955 90.7599 29.3172C91.1551 29.4884 91.25 29.8067 91.1391 30.2411L91.1319 30.2679L91.1505 30.2456C91.3378 30.0233 91.5164 29.8516 91.7016 29.7242L91.7414 29.6976C92.1531 29.4299 92.5898 29.405 92.9853 29.6839C93.6168 30.1294 93.5452 30.8765 93.0296 31.3364L93.001 31.3611C92.9294 31.4217 92.8862 31.5527 92.8381 31.8611L92.7964 32.1312C92.7464 32.4429 92.7128 32.5796 92.6342 32.7908C92.4855 33.1896 92.2418 33.5223 91.8624 33.794C91.3854 34.1356 90.5804 34.0879 89.4467 33.6986C89.3249 33.6568 89.2667 33.5404 89.3168 33.4386C89.3668 33.3368 91.0835 34.1703 91.7414 33.5224C92.3992 32.8744 92.4702 31.534 92.6599 31.1278L92.7058 31.057C93.0695 30.7497 93.0817 30.2734 92.6777 29.9884C92.4692 29.8413 92.2802 29.8521 92.0343 30.0121C91.8102 30.1578 91.5768 30.4079 91.3074 30.772L91.2287 30.8806C91.0962 31.0673 90.8308 31.4544 90.7956 31.5036L90.7472 31.5707C90.5838 31.7937 90.3756 31.9333 90.3447 31.9393C90.3139 31.9453 90.27 31.9246 90.2591 31.736C90.2555 31.6739 90.2743 31.6115 90.3139 31.5266L90.3296 31.4937C90.3774 31.3964 90.6409 30.9391 90.6591 30.9063C90.7389 30.7623 90.8032 30.6368 90.8563 30.5184C91.0708 30.0412 90.7517 29.7625 90.5404 29.671C90.5178 29.6612 90.4956 29.6537 90.4738 29.6485C90.1463 29.5694 89.6906 29.9757 89.1586 30.7895L89.0433 30.9696C88.958 31.1055 88.8746 31.2452 88.7106 31.5227C88.5914 31.7246 88.2731 31.8693 87.7426 31.986L87.7135 31.9921L87.716 31.9979C87.7393 32.0591 87.7264 32.1281 87.6768 32.1811L87.6608 32.1965C87.5695 32.2758 87.4186 32.2783 87.3236 32.2021L87.0932 32.0166C86.9544 31.9048 87.0236 31.7087 87.2128 31.6777C87.5593 31.6209 87.8282 31.5582 88.0171 31.4912C88.1758 31.435 88.2624 31.3812 88.283 31.3464L88.5059 30.9717C88.5743 30.8584 88.6275 30.7732 88.6922 30.6725Z" fill="#00160A"/>
<ellipse cx="91.8209" cy="31.2818" rx="0.541756" ry="0.371119" fill="#FFB61D"/>
<ellipse cx="90.273" cy="30.2471" rx="0.541756" ry="0.371118" fill="#FFB61D"/>
<path fill-rule="evenodd" clip-rule="evenodd" d="M86.9426 32.8501C86.8669 32.7941 86.7726 32.693 86.6892 32.5836L86.582 32.6235L86.4551 32.6689C86.4296 32.6786 86.4132 32.6862 86.4081 32.6924C86.3935 32.7151 86.3598 32.7238 86.3323 32.7117C86.3055 32.6997 86.2947 32.6715 86.3093 32.6488C86.3194 32.6272 86.3906 32.5596 86.5229 32.4934C86.5468 32.4814 86.5733 32.4702 86.6018 32.4594C86.553 32.3831 86.5147 32.3095 86.4967 32.2504C86.4695 32.1633 86.4912 32.1016 86.527 32.0799C86.562 32.0584 86.65 32.0544 86.7839 32.1473C86.8086 32.163 86.8125 32.1923 86.7938 32.2127C86.7751 32.2329 86.7402 32.2367 86.7155 32.221C86.69 32.2053 86.6643 32.1964 86.6435 32.19L86.6537 32.2233C86.6576 32.2352 86.6625 32.2477 86.6693 32.2598C86.6933 32.3037 86.7238 32.3537 86.7581 32.4052C86.8629 32.3721 86.982 32.3422 87.1107 32.3277C87.1735 32.3207 87.2374 32.3193 87.3039 32.3197C87.342 32.3176 87.3752 32.3419 87.3777 32.3739C87.3802 32.4058 87.3512 32.4334 87.313 32.4355C87.1581 32.448 87.015 32.4807 86.8886 32.5175L86.8472 32.5299C86.9156 32.6192 86.9888 32.7003 87.0516 32.7461C87.0856 32.7713 87.089 32.815 87.0593 32.8437C87.0287 32.8725 86.9766 32.8753 86.9426 32.8501Z" fill="#FFB61D"/>
<path fill-rule="evenodd" clip-rule="evenodd" d="M50.543 68.4324C50.1516 69.9735 48.2624 70.4106 48.2828 71.6512C48.2934 72.2929 48.5055 72.8252 48.6796 73.2346C49.0336 74.067 49.9561 74.9243 50.3833 75.7181C50.7485 76.3964 52.5805 75.9376 52.7268 76.9918C52.8065 77.5661 51.5105 77.897 51.1578 77.9193C50.6515 77.9514 50.0098 77.8061 49.2326 77.4835C48.2873 77.0998 47.5286 76.7974 46.9793 76.2445C46.8722 76.1367 46.8049 75.8322 46.6865 75.3535C46.5568 74.8298 46.114 73.4982 44.957 71.3483C44.7918 71.0412 44.1593 69.7846 43.4558 68.4993C42.8753 67.4386 45.2744 65.3139 46.3382 65.3882C48.9512 65.5707 50.8195 67.3439 50.543 68.4324Z" fill="white"/>
<path fill-rule="evenodd" clip-rule="evenodd" d="M48.711 77.5062C48.0605 77.1827 47.5255 76.8097 47.106 76.3875C46.9989 76.2797 46.9201 75.8824 46.8016 75.4037C46.7396 75.1528 44.4812 70.6259 43.7363 68.922C43.5973 68.604 43.9347 68.8265 44.014 68.922C44.4462 69.4423 47.106 72.8748 48.3768 76.0549" fill="#E7EAEE"/>
<path fill-rule="evenodd" clip-rule="evenodd" d="M49.2179 77.371L49.3146 77.4109C50.0456 77.7143 50.6356 77.8479 51.076 77.82C51.5491 77.79 52.3213 77.4336 52.3555 77.1301C52.4103 76.6429 52.2524 76.5047 51.4724 76.2585C51.2462 76.1871 50.6344 76.2027 49.6917 76.322C49.5198 76.3437 49.3594 76.2449 49.3334 76.1014C49.3074 75.9578 49.4256 75.8237 49.5975 75.802L49.7525 75.7829C50.7168 75.6675 51.3487 75.6573 51.6948 75.7665L51.7974 75.7997C52.7336 76.1091 53.0666 76.4289 52.9822 77.1793C52.9106 77.8152 51.866 78.2974 51.1236 78.3444C50.5699 78.3795 49.9026 78.2336 49.1161 77.9153L49.0371 77.8829C48.0533 77.4836 47.2702 76.9928 46.6906 76.4094C46.6143 76.3326 46.5655 76.2302 46.5154 76.0732L46.5038 76.0359C46.4852 75.975 46.4666 75.9073 46.445 75.8226L46.3203 75.311L46.301 75.2364C46.0958 74.4684 45.5013 73.0509 44.6005 71.3669L44.4632 71.1135C44.3785 70.9594 43.1705 69.3236 43.0803 68.9402C42.7432 67.507 44.1218 66.7971 44.1218 66.7971C44.1218 66.7971 43.4068 68.0576 43.6083 68.6772C43.7649 69.159 45.0869 70.8167 45.5572 72.0876C46.0439 73.4029 46.5533 74.8062 47.2974 75.9536C47.8591 76.8198 48.2612 77.2123 49.2179 77.371Z" fill="#00160A"/>
<path fill-rule="evenodd" clip-rule="evenodd" d="M50.7442 77.0763C50.7753 76.9893 50.8849 76.9399 50.989 76.9659C51.313 77.0467 51.5423 77.1361 51.6823 77.2424C51.8149 77.3431 51.946 77.4977 52.0803 77.7076C52.1316 77.7876 52.0954 77.8872 51.9996 77.93C51.9038 77.9728 51.7847 77.9426 51.7334 77.8626C51.6185 77.683 51.5116 77.5569 51.4177 77.4856C51.3311 77.4198 51.1488 77.3488 50.8764 77.2808C50.7723 77.2548 50.7131 77.1633 50.7442 77.0763Z" fill="#00160A"/>
<path fill-rule="evenodd" clip-rule="evenodd" d="M51.2936 76.5691C51.3279 76.483 51.4393 76.4364 51.5423 76.465C51.8198 76.5422 52.0261 76.6302 52.1631 76.7342C52.299 76.8374 52.4294 77.0041 52.5615 77.2365C52.6081 77.3185 52.5663 77.4165 52.4681 77.4554C52.37 77.4943 52.2527 77.4594 52.2061 77.3774C52.0941 77.1803 51.9893 77.0463 51.8986 76.9775C51.809 76.9095 51.6482 76.8409 51.4181 76.7769C51.315 76.7483 51.2593 76.6552 51.2936 76.5691Z" fill="#00160A"/>
<path fill-rule="evenodd" clip-rule="evenodd" d="M49.3242 65.9769C50.0162 66.2095 51.3771 67.4988 51.1666 68.2229C50.9489 68.9716 50.6296 69.2707 50.1215 69.7671L50.0684 69.8183C49.9134 69.9656 49.2735 70.5088 49.2481 70.5316L49.1874 70.5875C48.6172 71.1253 48.3841 71.7198 48.848 72.8155C49.1878 73.6182 49.7468 74.5306 50.5183 75.4007C50.6201 75.5154 50.8733 75.8525 50.7359 75.9376C50.5986 76.0226 50.2734 75.7478 50.1717 75.633C49.3654 74.7237 48.7808 73.8423 48.4191 72.9881C47.8727 71.6975 48.0046 71.1657 48.7586 70.4709L48.8067 70.4275C48.8874 70.3573 49.4419 69.8861 49.5887 69.7493L49.6034 69.7354C50.0772 69.2851 50.3895 68.8081 50.5899 68.1187C50.7285 67.6422 50.1462 66.7962 48.9156 66.1096C48.0988 65.6538 48.6322 65.7443 49.3242 65.9769Z" fill="#00160A"/>
</svg>
