<svg width="167" height="182" viewBox="0 0 167 182" fill="none" xmlns="http://www.w3.org/2000/svg">
<path fill-rule="evenodd" clip-rule="evenodd" d="M47.6678 98.0538C47.8288 98.9009 47.6487 99.7855 47.3542 100.589C47.428 100.665 47.5017 100.742 47.5755 100.819C49.0494 99.5681 50.5463 98.2917 51.6179 96.6245C52.0693 95.9221 51.536 94.8966 50.813 94.5582C50.09 94.2197 49.2679 94.3241 48.4817 94.2878C47.5357 94.2442 46.5986 93.9848 45.7481 93.5312C44.5134 92.8727 43.3803 91.7863 42.0058 91.764C41.8541 91.7615 41.6916 91.7767 41.5724 91.879C41.2817 92.1285 41.4593 92.6364 41.6776 92.9619C42.7612 94.5778 44.3857 95.7529 46.1729 96.2135C46.9454 96.4126 47.5068 97.2067 47.6678 98.0538Z" fill="#E08A00"/>
<path fill-rule="evenodd" clip-rule="evenodd" d="M71.3785 122.734L51.8393 127.486C47.8458 128.458 43.8858 125.717 42.9945 121.365C42.5649 119.267 42.9205 117.069 43.9826 115.258L54.7632 96.8734C58.082 91.2136 59.1933 84.3453 57.8508 77.7898L53.49 56.4956C52.5987 52.1433 55.1136 47.8277 59.1072 46.8564C61.032 46.3882 63.0487 46.7757 64.7106 47.9332L81.58 59.6821C86.7733 63.299 93.0755 64.5101 99.0907 63.047L118.63 58.2946C122.623 57.3232 126.583 60.064 127.475 64.4162C127.904 66.514 127.549 68.7119 126.487 70.523L115.706 88.9076C112.387 94.5673 111.276 101.436 112.618 107.991L116.979 129.285C117.871 133.638 115.356 137.953 111.362 138.925C109.437 139.393 107.42 139.005 105.759 137.848L88.8893 126.099C83.696 122.482 77.3937 121.271 71.3785 122.734Z" fill="#E08A00"/>
<path d="M140.101 114.444C140.101 114.444 52.5361 114.494 17.8671 114.444C15.1459 107.979 18.5692 99.3402 24.7533 97.0667C22.818 99.4729 20.8826 101.879 18.9472 104.285C22.3475 104.248 140.101 104.285 140.101 104.285V114.444Z" fill="white"/>
<path fill-rule="evenodd" clip-rule="evenodd" d="M111.859 114.458C68.3816 114.476 37.0508 114.471 17.8671 114.444C15.1459 107.979 81.8675 110.701 107.168 110.701C132.469 110.701 120.764 114.454 111.859 114.458Z" fill="#E7EAEE"/>
<path fill-rule="evenodd" clip-rule="evenodd" d="M93.7525 40.3292C94.0616 39.9452 94.6714 39.9168 95.0094 40.2707C93.9179 37.9146 90.7245 37.2084 90.0384 34.6772C89.1601 31.437 87.8645 28.3315 86.2016 25.4801C85.5096 28.2835 84.1877 30.8995 82.3837 33.0354C81.9144 33.0378 81.445 33.0401 80.9757 33.0424C79.9095 33.0476 78.8338 33.0539 77.7926 33.3037C75.9191 33.7532 74.24 34.9707 72.342 35.2737C72.4826 35.0817 72.6233 34.8897 72.7639 34.6977C72.7248 34.4995 72.4613 34.4089 72.3248 34.5466C72.0845 33.5044 71.31 32.686 70.4314 32.1982C69.5528 31.7103 68.2573 30.8023 65.6643 31.0411C68.8104 34.8793 67.8361 50.858 68.6101 53.8861C68.874 53.9629 69.0761 53.6484 69.2478 53.4169C69.4195 53.1853 69.8203 53.043 69.913 53.3231C70.5576 55.2699 70.6491 58.2658 72.6245 59.4257C73.0058 59.6496 73.2325 59.2314 73.2029 59.0276C73.1651 58.7674 73.452 58.5669 73.691 58.6064C73.93 58.646 74.1211 58.8346 74.3075 59.0024C77.4497 61.8299 82.5948 60.3724 85.7408 63.195C86.3624 63.7527 86.9101 64.4796 87.6859 64.7144C88.1489 64.8545 88.6421 64.7993 89.1151 64.7069C91.9312 64.1568 94.4384 62.3359 96.3942 60.0604C98.3501 57.7849 99.8104 55.0641 101.17 52.3207C99.9172 51.5477 98.6003 50.7049 97.9198 49.3224C97.3836 48.2331 97.0538 46.6716 95.9262 46.5385C96.2838 47.8046 96.6415 49.0707 96.9992 50.3367C97.1302 50.8003 97.2627 51.2838 97.1934 51.763C97.1242 52.2422 96.7881 52.7129 96.3436 52.7372C95.7403 52.7702 95.3155 52.0261 94.7165 51.9414C94.6029 54.3902 93.7401 56.7908 92.2973 58.6722C91.7967 59.3251 90.8339 59.9179 90.3259 59.2719C91.0971 57.9141 91.8682 56.5563 92.6394 55.1986C93.12 54.3524 93.6132 53.4671 93.7013 52.4766C93.7894 51.4861 93.3387 50.3626 92.4649 50.0738C92.426 49.8119 92.6795 49.587 92.9228 49.5792C93.1661 49.5714 93.3901 49.7117 93.5992 49.8476C94.3771 50.3533 95.155 50.859 95.9329 51.3646C95.6847 49.3543 95.1772 47.3823 94.4299 45.5245C95.1539 45.4498 95.8942 45.5703 96.5666 45.8725C96.0489 44.2405 95.0998 42.774 93.8628 41.6949C93.4969 41.3757 93.4434 40.7131 93.7525 40.3292Z" fill="white"/>
<path fill-rule="evenodd" clip-rule="evenodd" d="M78.2172 35.997C78.8581 36.4593 79.3636 37.1409 79.644 37.9208C79.7312 38.1633 79.9789 38.2803 80.146 38.4665C80.3131 38.6528 80.3408 39.0508 80.1067 39.1028C80.0042 39.1255 79.9037 39.064 79.814 39.0056C78.3771 38.0706 76.6297 37.3156 75.0621 37.9543C75.3199 38.0977 75.45 38.4659 75.3472 38.7608C75.6672 38.7733 75.9655 38.9302 76.2529 39.0839C76.506 39.2193 76.7592 39.3546 77.0123 39.49C76.9858 39.5715 76.9592 39.6529 76.9327 39.7344C75.7882 39.0993 74.3903 39.0332 73.1997 39.558C73.5954 39.6235 73.9985 39.6355 74.3969 39.5936C74.9779 39.9127 75.5588 40.2318 76.1397 40.5508C76.2689 40.6218 76.4052 40.6998 76.4779 40.8362C76.5506 40.9726 76.523 41.184 76.3878 41.2402C75.3381 40.2314 73.8533 39.7852 72.4776 40.0654C72.3171 40.0981 72.2072 39.8541 72.2754 39.6923C72.3435 39.5306 72.5069 39.4475 72.6589 39.3823C73.4215 39.0551 74.2257 38.8435 75.0413 38.7553C74.6333 38.3432 74.1608 38.0071 73.6503 37.7661C73.5662 37.4528 73.981 37.1525 74.2135 37.3583C75.9799 36.981 77.8722 37.3554 79.4041 38.3854C79.417 38.0579 79.1941 37.7825 78.9855 37.5463C78.3337 36.8078 77.6819 36.0693 77.03 35.3308C78.1714 35.4884 79.2902 35.8387 80.3344 36.3652C80.5705 36.4843 80.8037 36.6129 81.0177 36.7743C81.8232 37.3821 82.3026 38.4693 82.2348 39.5345C81.7468 38.4105 80.9744 37.435 80.0255 36.7445C79.4831 36.3498 78.8681 36.0424 78.2172 35.997V35.997Z" fill="#E7EAEE"/>
<path fill-rule="evenodd" clip-rule="evenodd" d="M36.7263 89.1243C35.0734 90.7412 35.2177 93.602 35.8143 95.9336C36.5818 98.9331 37.8797 101.77 39.6158 104.243L18.9472 104.47L24.7533 97.2511C18.5692 99.5246 15.1459 108.163 17.8671 114.628C52.5361 114.678 87.2053 114.601 121.874 114.396C115.55 119.053 109.42 124.704 106.482 132.38C103.544 140.056 104.76 150.149 111.007 154.928C113.334 156.708 116.128 157.62 118.921 158.197C121.801 158.791 125.288 158.816 127.066 156.276C128.104 154.792 127.608 152.465 127.117 150.163C126.774 148.557 126.435 146.964 126.62 145.678C127.25 141.319 129.943 139.108 133.015 136.586L133.015 136.585L133.016 136.585C133.661 136.055 134.323 135.512 134.987 134.932C140.651 129.977 147.144 123.713 148.798 116.005C150.308 108.965 148.646 101.981 144.327 96.4921C142.772 94.5159 140.861 92.7172 138.94 90.9095C136.358 88.4803 133.759 86.0346 131.984 83.1197C130.901 81.3397 130.521 79.4368 130.122 77.44C129.979 76.7233 129.833 75.9945 129.652 75.2549C127.324 65.7593 119.022 60.877 110.473 55.8496C109.39 55.2128 108.303 54.5738 107.224 53.9227C102.277 50.9376 97.2838 47.1165 95.6952 41.1352C96.5713 41.1724 96.896 39.7374 96.3912 38.9562C96.0159 38.3752 95.4228 38.0483 94.8313 37.7222C94.6274 37.6098 94.4236 37.4974 94.2291 37.3749C92.4226 36.2368 91.3871 33.915 90.3265 31.5373C88.7332 27.9651 87.0837 24.2667 82.6794 24.2667C82.5134 25.4787 82.6852 26.5584 82.8462 27.57C83.0949 29.1334 83.3178 30.5342 82.2278 32.009C79.1066 31.6318 75.8799 32.3756 73.1663 34.0979C71.5974 30.8519 67.6185 29.4653 64.3931 30.5162C64.8015 31.0765 65.0438 31.3575 65.2445 31.5905C65.6687 32.0826 65.908 32.3602 67.1385 34.6028C68.9516 37.907 67.803 50.0541 67.516 51.9746C67.2291 53.8951 68.5869 55.2599 69.8288 54.3115C69.2239 57.1581 71.4035 59.8746 74.0835 59.9565C74.9988 60.1344 75.5676 60.617 76.1052 61.073C76.4396 61.3567 76.7619 61.6301 77.148 61.8136C68.6382 68.4472 59.2176 73.6905 49.2975 77.3147L49.123 77.3783C47.2669 78.0554 45.3267 78.7631 44.0124 80.335C42.6569 81.9563 42.3386 84.8344 43.916 86.1966C42.9529 87.1484 41.6348 87.4072 40.3164 87.6661C39.0033 87.9239 37.6899 88.1818 36.7263 89.1243ZM124.636 101.962C123.1 103.544 120.093 103.626 117.98 103.617L90.5795 103.495C89.7879 102.348 90.2775 100.587 91.3001 99.6833C92.3227 98.7798 93.6994 98.5368 95.0117 98.4235C99.2472 98.0581 103.555 98.7213 107.531 100.351C108.648 100.567 109.496 99.0319 109.226 97.8314C108.956 96.6308 108.018 95.7721 107.146 94.9822C104.331 92.4336 101.571 89.5636 100.249 85.8443C98.8791 81.9871 99.2766 77.4368 101.29 73.9307C97.9097 76.9913 97.1994 82.6171 98.7176 87.1118C100.236 91.6064 103.57 95.1026 107.182 97.8304C105.209 98.2712 103.161 97.7802 101.133 97.294C98.6767 96.705 96.2504 96.1233 94.0255 97.2157L93.5667 83.5768L92.3775 95.5319C92.2891 96.4207 92.0323 97.5204 91.2262 97.6858C89.0379 98.1345 87.7406 101.258 88.8751 103.346C87.8973 104.065 86.4055 103.743 85.7527 102.672C85.0999 101.602 85.4058 99.9781 86.393 99.2744C88.7874 97.5674 88.9768 93.8901 88.9117 90.7727L88.4621 69.249C88.4512 68.7294 88.5592 68.0464 89.0315 67.9749C95.9451 66.928 102.092 61.2668 104.192 54.0122C110.319 57.0034 116.447 60.4523 121.391 65.2021C132.705 76.0718 129.602 85.11 128.79 87.4744C128.648 87.8886 128.576 88.098 128.664 88.0765C129.228 87.9391 129.496 87.2468 129.652 86.6402C130.017 85.2232 130.255 83.7674 130.361 82.3002C132.228 86.0807 135.201 88.953 138.18 91.8312C140.902 94.4618 143.63 97.0973 145.523 100.435C148.442 105.583 149.053 112.208 147.133 117.886C144.864 124.594 139.649 129.286 134.505 133.913C133.269 135.025 132.038 136.134 130.852 137.265C128.37 139.634 125.873 142.569 125.793 146.163C125.771 147.126 125.929 148.076 126.087 149.027C126.199 149.699 126.311 150.371 126.359 151.05C126.477 152.689 126.106 154.554 124.832 155.436C124.295 155.807 123.656 155.961 123.026 156.06C116.498 157.087 108.501 152.273 106.639 145.376C104.811 138.609 108.019 130.26 112.233 124.907C114.852 121.58 118.24 119.204 121.639 116.819C123.711 115.365 125.788 113.908 127.697 112.231C129.485 110.66 131.252 108.967 132.384 106.788C133.516 104.609 133.923 101.839 132.906 99.5934C132.072 97.7533 130.43 96.4755 128.82 95.2225C126.794 93.647 124.82 92.1107 124.568 89.545C124.599 90.6978 125.045 91.9892 125.488 93.2692C125.874 94.3853 126.257 95.4927 126.359 96.4921C126.577 98.6377 126.076 100.479 124.636 101.962ZM127.968 97.5623C130.718 97.595 132.334 101.39 131.56 104.267C130.786 107.143 128.514 109.191 126.359 111.054C125.278 111.989 124.084 112.969 122.704 112.98L18.6483 113.829L18.1923 105.031L38.2609 105.011C40.8567 105.008 43.7999 105.17 45.4907 107.316C46.1056 108.097 47.2004 107.247 47.9506 106.622C49.7277 105.143 52.1407 105.071 54.3768 105.061L127.798 104.736C128.585 104.733 129.645 104.445 129.619 103.587L124.682 103.385C126.455 102.055 127.678 99.8868 127.968 97.5623ZM51.6091 104.056C52.7104 101.157 53.546 98.1384 54.0994 95.0593C54.2548 94.1946 54.3884 93.3091 54.2827 92.4354C53.9658 89.8135 51.6813 88.088 49.5826 86.7605C50.4784 86.7409 51.2424 86.0508 51.8174 85.3019C51.9775 85.0934 52.1303 84.8766 52.2831 84.6599C52.6793 84.0977 53.0755 83.5355 53.5976 83.1197C54.6686 82.2666 54.8401 82.2513 57.0527 82.0536C57.2805 82.0333 57.53 82.011 57.8043 81.9856C59.75 81.8059 64.4556 79.8738 67.8915 78.463L67.8917 78.4629L67.8917 78.4629L67.8918 78.4629L67.8918 78.4629L67.8923 78.4627C69.6449 77.743 71.067 77.1591 71.6238 77.0127C79.2445 75.0086 84.5268 77.6324 85.7164 79.0466C86.3656 79.8184 86.5248 80.9251 86.6553 81.9625C87.2421 86.6291 87.8291 91.3694 87.211 96.0313C87.0957 96.9015 86.8823 97.8609 86.2051 98.339C85.5261 98.8183 84.8867 99.3643 84.2972 99.9681C83.352 100.936 82.5021 102.508 83.2364 103.673L51.6091 104.056ZM94.9862 39.9245C94.6482 39.5707 94.0384 39.599 93.7293 39.983C93.4202 40.367 93.4737 41.0295 93.8396 41.3487C95.0766 42.4278 96.0257 43.8943 96.5434 45.5263C95.871 45.2242 95.1307 45.1036 94.4067 45.1783C95.154 47.0361 95.6615 49.0082 95.9097 51.0185L93.576 49.5014C93.3669 49.3656 93.1429 49.2252 92.8996 49.233C92.6563 49.2408 92.4028 49.4657 92.4417 49.7276C93.3155 50.0164 93.7662 51.14 93.6781 52.1305C93.59 53.121 93.0968 54.0063 92.6162 54.8524L90.3027 58.9257C90.8107 59.5717 91.7735 58.9789 92.2741 58.3261C93.7169 56.4447 94.5797 54.0441 94.6933 51.5952C94.9715 51.6346 95.2122 51.8162 95.4506 51.9961C95.7255 52.2035 95.9974 52.4087 96.3204 52.391C96.7649 52.3667 97.101 51.896 97.1702 51.4168C97.2395 50.9377 97.107 50.4542 96.976 49.9906L95.903 46.1923C96.7777 46.2956 97.1723 47.2583 97.5556 48.1935C97.6665 48.4639 97.7763 48.7319 97.8966 48.9762C98.5771 50.3588 99.894 51.2015 101.147 51.9746C99.7872 54.7179 98.3269 57.4387 96.371 59.7142C94.4152 61.9897 91.908 63.8107 89.0919 64.3607C88.6189 64.4531 88.1257 64.5083 87.6627 64.3682C87.0826 64.1927 86.6301 63.7421 86.1788 63.2927C86.0266 63.1411 85.8744 62.9896 85.7176 62.8489C84.1455 61.4384 82.0743 61.0967 80.0033 60.755C77.9297 60.4129 75.8564 60.0708 74.2843 58.6562L74.2396 58.6157L74.2395 58.6157C74.0671 58.4593 73.8877 58.2966 73.6678 58.2603C73.4288 58.2207 73.1419 58.4212 73.1797 58.6815C73.2093 58.8852 72.9826 59.3034 72.6013 59.0796C71.1314 58.2164 70.7046 56.3367 70.3168 54.6291L70.3168 54.629L70.3168 54.6289C70.1834 54.0418 70.0547 53.475 69.8899 52.9769C69.7971 52.6968 69.3963 52.8391 69.2246 53.0707L69.2125 53.0871L69.1828 53.1276C69.0202 53.35 68.8297 53.6106 68.5869 53.54C68.297 52.3783 68.398 51.0652 68.4958 49.7948C68.5355 49.2776 68.5748 48.7675 68.5869 48.2775C68.588 48.2333 68.6005 48.1001 68.6201 47.8912L68.6202 47.8906L68.6202 47.8903L68.6202 47.8897L68.6203 47.8894C68.8448 45.4982 69.9959 33.2385 65.6643 31.0411C66.6942 30.8198 68.3562 31.0246 69.8288 32.009C71.3187 33.005 72.3895 34.831 72.3188 34.9275C73.3478 34.7633 74.3125 34.3302 75.2787 33.8964C76.0946 33.5301 76.9116 33.1633 77.7694 32.9576C78.8106 32.7078 79.8863 32.7014 80.9525 32.6962L82.3605 32.6893C83.8773 30.8933 83.8186 28.9259 83.7506 26.6444C83.7377 26.2125 83.7245 25.7693 83.7215 25.3139C86.3504 25.6902 89.1369 31.0908 90.0152 34.331C90.382 35.6844 91.4656 36.516 92.5615 37.3571C93.5153 38.0891 94.4783 38.8282 94.9862 39.9245ZM50.1784 78.1299C50.4795 78.0466 50.7788 77.9638 51.0739 77.8787C55.59 76.5764 59.805 74.2847 63.9834 72.0083C68.9617 69.2961 74.0258 66.5186 78.0196 62.2941C78.3283 61.9676 78.8179 61.9902 79.2445 62.0501C80.8221 62.2718 82.3739 62.7107 83.8513 63.3531C84.6255 63.6897 85.4962 64.2678 85.5016 65.1762C85.5036 65.496 85.3909 65.8018 85.28 66.0979L84.5362 68.0847C84.2189 68.9324 83.8961 69.8116 83.9235 70.7266C83.9509 71.6416 84.4277 72.6074 85.2354 72.8587C86.0431 73.1101 87.0409 72.2912 86.8322 71.4044C86.4748 69.8859 86.2302 68.3359 86.1016 66.7745C87.6754 70.1712 87.1326 74.224 86.5524 77.9762C84.4694 76.7802 82.289 75.7858 80.0451 75.0086C79.2745 74.7417 78.4106 74.5065 77.6826 74.89C75.9001 75.8293 72.5451 76.0796 72.2147 75.8271C71.8843 75.5747 71.4324 75.6964 71.0518 75.8422C70.4387 76.0771 69.2704 76.5735 67.8745 77.1665C64.4496 78.6217 59.6553 80.6587 58.3353 80.8409C57.9879 80.8888 57.6385 80.9243 57.2892 80.9599L57.2889 80.9599C56.5335 81.0367 55.7783 81.1135 55.0441 81.3159C53.9702 81.612 52.9116 82.2255 52.3432 83.2617C51.9186 83.0071 51.6535 82.557 51.387 82.1045C51.2584 81.886 51.1294 81.667 50.982 81.4692C50.5291 80.8613 49.5783 80.4861 49.1441 81.1099C48.7632 79.6901 46.8347 79.142 45.8661 80.1783C45.7164 80.3385 45.5915 80.523 45.4666 80.7075C45.3368 80.8993 45.207 81.0911 45.0494 81.2554C44.7402 81.5777 44.2452 81.7763 43.8864 81.5222C45.3528 79.4651 47.8212 78.7821 50.1784 78.1299ZM45.3988 103.914C44.2924 104.347 43.0717 103.925 41.9742 103.465C40.9367 103.031 39.8537 102.513 39.2234 101.515C38.4649 100.314 38.5467 98.7298 38.6584 97.2772L39.1266 91.1923C38.4323 91.8287 37.9224 92.7005 37.6861 93.6551C37.125 92.3061 37.9596 90.5044 39.2886 90.1953C38.7272 89.6885 37.8029 90.021 37.4066 90.6879C37.0103 91.3548 37.0193 92.2136 37.1352 92.9981C37.1664 93.2097 37.2045 93.421 37.2425 93.6324C37.3456 94.2043 37.4486 94.7764 37.4169 95.3555C36.5827 93.9348 36.4236 92.0696 37.0034 90.5057C37.266 89.7974 37.7314 89.1044 38.4121 88.922C39.0927 88.7396 39.935 89.3457 39.8223 90.0996C39.5639 91.8274 40.3032 93.601 41.4369 94.8412C42.5705 96.0814 44.0561 96.8626 45.5557 97.4902C46.1076 97.7212 46.7937 98.2503 46.5247 98.8239C46.2436 99.4231 46.0498 100.101 46.1463 100.766C46.2428 101.43 46.6895 102.065 47.298 102.18C48.0479 102.321 48.7153 101.688 49.2544 101.103L52.4395 97.6444C52.015 98.9296 51.5171 100.186 50.9496 101.404C50.5609 102.238 50.1162 103.083 49.4134 103.62C48.7106 104.158 47.6818 104.297 47.017 103.705C46.6466 103.376 46.1413 103.595 45.6708 103.799C45.5784 103.839 45.4873 103.879 45.3988 103.914ZM45.0835 91.8117L45.0834 91.8117C44.7863 91.597 44.489 91.382 44.1809 91.1926C43.2263 90.6058 41.9587 90.2903 41.0824 91.0076C40.8015 90.0223 41.3568 88.964 42.0811 88.2995C43.3624 87.124 45.2408 86.7792 46.8047 87.4325C48.2875 88.0519 49.7925 88.7262 50.9703 89.887C52.1481 91.0478 52.9533 92.8031 52.6507 94.5019C52.3194 94.5898 52.043 94.3 51.7847 94.0291L51.7844 94.0288C51.7352 93.9772 51.6867 93.9263 51.6385 93.8789C50.906 93.1567 49.9013 93.1371 48.8774 93.1172C48.2549 93.1051 47.6252 93.0928 47.0453 92.9224C46.3287 92.7118 45.7068 92.2623 45.0835 91.8118L45.0835 91.8117ZM47.3543 100.589C47.6489 99.7856 47.829 98.901 47.668 98.0539C47.507 97.2068 46.9456 96.4126 46.1731 96.2135C44.3859 95.7529 42.7614 94.5779 41.6778 92.962C41.4595 92.6364 41.2818 92.1285 41.5726 91.8791C41.6918 91.7768 41.8543 91.7616 42.006 91.764C42.9847 91.7799 43.8409 92.3352 44.6986 92.8915C45.0455 93.1164 45.3927 93.3416 45.7483 93.5312C46.5988 93.9848 47.5359 94.2442 48.4819 94.2879C48.6714 94.2967 48.8631 94.2972 49.055 94.2978C49.6588 94.2996 50.2645 94.3014 50.8132 94.5582C51.5362 94.8967 52.0695 95.9221 51.6181 96.6245C50.5465 98.2917 49.0496 99.5682 47.5757 100.819L47.3543 100.589ZM101.601 52.933C101.765 52.6091 102.009 52.2371 102.347 52.279C102.784 52.3332 102.872 52.9831 102.812 53.4578C102.386 56.8261 100.473 59.8207 98.0389 61.9478C95.605 64.0748 92.6767 65.4214 89.7146 66.4889C89.511 66.5623 89.3115 66.7006 89.1155 66.8365C88.741 67.0962 88.3796 67.3469 88.0281 67.1172C87.6231 66.8525 87.7265 66.1264 88.095 65.8046C88.4294 65.5126 88.8746 65.45 89.3038 65.3896C89.3477 65.3834 89.3914 65.3773 89.4348 65.3709C92.2987 64.9507 94.8565 63.0989 96.8131 60.7812C98.7696 58.4636 100.201 55.6883 101.601 52.933ZM48.4972 81.3043C48.7552 81.6393 49.0395 82.0084 49.4311 81.9991C49.7604 81.9913 49.9656 82.2828 50.1782 82.5849C50.3289 82.799 50.4834 83.0184 50.6885 83.1403C51.179 83.4317 51.2211 84.243 50.8992 84.7406C50.5773 85.2381 50.0186 85.4803 49.4781 85.6342C48.376 85.9479 47.2123 86.0022 46.0897 85.792C45.3576 85.655 44.5986 85.3745 44.1371 84.7401C43.6757 84.1057 43.6625 83.04 44.2736 82.5796C44.478 82.4256 44.724 82.3538 44.9687 82.2825C45.2604 82.1974 45.5501 82.1129 45.7647 81.8902C45.924 81.7249 46.0195 81.5046 46.1148 81.2846C46.2146 81.0541 46.3143 80.824 46.487 80.6579C46.7668 80.389 47.1906 80.3521 47.5426 80.4865C47.8946 80.6209 48.184 80.9023 48.4257 81.2119L48.4462 81.2383L48.4972 81.3043ZM46.4335 106.072C46.3203 106.121 46.1927 106.129 46.0752 106.094C45.9615 106.061 45.8578 105.988 45.7829 105.889C45.478 105.487 45.9029 104.759 46.3667 104.89C46.8305 105.02 46.8791 105.881 46.4335 106.072ZM84.1386 103.547C84.0258 103.694 83.7508 103.679 83.7215 103.489C83.6012 102.711 83.5441 101.754 84.1345 101.298L84.2347 102.996C84.246 103.187 84.2514 103.399 84.1386 103.547ZM78.2172 34.7836C78.8581 35.246 79.3636 35.9276 79.644 36.7075C79.7012 36.8664 79.8272 36.9714 79.9544 37.0774C80.0212 37.1331 80.0884 37.189 80.146 37.2532C80.3131 37.4394 80.3408 37.8374 80.1066 37.8894C80.0042 37.9122 79.9037 37.8507 79.8139 37.7923C78.3771 36.8573 76.6297 36.1023 75.0621 36.7409C75.3199 36.8844 75.45 37.2526 75.3472 37.5474C75.6671 37.56 75.9655 37.7168 76.2529 37.8705L77.0123 38.2767L76.9327 38.521C75.7882 37.8859 74.3903 37.8199 73.1997 38.3447C73.5954 38.4102 73.9985 38.4222 74.3969 38.3803L76.1397 39.3375C76.2689 39.4085 76.4052 39.4865 76.4779 39.6229C76.5506 39.7592 76.523 39.9707 76.3878 40.0269C75.3381 39.018 73.8533 38.5719 72.4776 38.8521C72.3171 38.8848 72.2072 38.6407 72.2754 38.479C72.3435 38.3172 72.5069 38.2342 72.6589 38.169C73.4214 37.8418 74.2257 37.6301 75.0413 37.542C74.6333 37.1298 74.1607 36.7938 73.6503 36.5528C73.5662 36.2395 73.981 35.9391 74.2135 36.145C75.9799 35.7677 77.8722 36.1421 79.4041 37.1721C79.417 36.8446 79.1941 36.5692 78.9855 36.3329L77.03 34.1175C78.1714 34.2751 79.2902 34.6253 80.3344 35.1519C80.5705 35.271 80.8037 35.3995 81.0176 35.561C81.8232 36.1687 82.3026 37.2559 82.2348 38.3212C81.7468 37.1971 80.9744 36.2217 80.0255 35.5311C79.4831 35.1364 78.8681 34.8291 78.2172 34.7836ZM82.2385 45.1281C82.1277 44.1881 82.1227 43.1854 82.5329 42.3498C82.6556 42.0999 82.8259 41.8598 83.0676 41.755C83.4373 41.5947 83.8629 41.7993 84.1545 42.0944C84.878 42.8264 85.0318 44.0123 84.9699 45.086C84.943 45.5526 84.88 46.0298 84.6701 46.4375C84.4603 46.8453 84.0764 47.1733 83.6475 47.1801C83.2169 47.1871 82.8238 46.8697 82.5998 46.4689C82.3758 46.068 82.2934 45.5936 82.2385 45.1281ZM71.9401 48.625C71.1265 47.268 71.1813 45.3592 72.0713 44.0604C72.1776 43.9052 72.2985 43.7548 72.4565 43.666C72.7642 43.4932 73.1575 43.5974 73.4241 43.8381C73.6907 44.0789 73.8509 44.4314 73.967 44.7869C74.3107 45.84 74.325 47.0172 74.0068 48.0797C73.8138 48.7241 73.3354 49.4214 72.7226 49.3049C72.3844 49.2405 72.1279 48.9382 71.9401 48.625ZM79.755 55.5948C79.8528 55.5652 79.95 55.5358 80.022 55.4608C80.1745 55.3018 80.1208 54.9945 79.9478 54.8629C79.7747 54.7313 79.5317 54.7541 79.3472 54.8656C79.1603 54.9785 79.0117 55.2019 79.0433 55.4322C79.075 55.6625 79.3452 55.8345 79.519 55.6991C79.588 55.6453 79.6718 55.62 79.755 55.5948ZM81.9518 51.8534C83.3025 51.5272 84.0575 51.5685 85.2164 51.8903L85.4607 51.9598C86.6169 52.2889 87.3392 52.2903 88.8068 51.7718C88.9823 51.7098 89.1706 51.8146 89.2275 52.0058C89.2844 52.1971 86.6064 53.0264 85.3821 52.6894L85.1565 52.6254C84.0294 52.3028 83.3735 52.2557 82.0963 52.5642C81.9162 52.6076 81.7378 52.4838 81.6979 52.2875C81.658 52.0912 81.7717 51.8969 81.9518 51.8534ZM92.5611 48.3378C92.4797 48.1575 92.2795 48.0832 92.114 48.172C89.737 49.4471 88.42 49.6132 86.2524 49.3116L85.7055 49.2378C85.6431 49.2301 85.5883 49.2238 85.5306 49.2177L85.3354 49.1988C84.045 49.0883 83.0218 49.3269 81.7089 50.1814C81.5505 50.2845 81.4988 50.5079 81.5934 50.6805C81.688 50.8531 81.893 50.9095 82.0514 50.8064C83.273 50.0114 84.1748 49.8142 85.3802 49.9336C85.4601 49.9415 85.5268 49.9486 85.6041 49.958L86.4057 50.0654C88.559 50.3379 92.6426 48.5182 92.5611 48.3378ZM76.0709 51.755C76.2548 51.7407 76.4146 51.8917 76.4277 52.0922C76.4408 52.2927 76.3023 52.4669 76.1183 52.4812C75.3569 52.5402 74.8324 52.8224 74.0451 53.5138L73.7604 53.7701L73.5582 53.9546C72.8642 54.5851 72.402 54.9287 71.7889 55.2028C71.6182 55.279 70.4396 55.5404 71.3532 55.0041C72.2667 54.4678 73.4571 53.0977 73.4571 53.0977L73.6313 52.9423C74.5148 52.1674 75.1468 51.8267 76.0709 51.755ZM76.5721 53.4964C76.4996 53.3115 76.3034 53.2256 76.1338 53.3045C75.2953 53.6946 74.8233 54.193 74.0301 55.3245L73.7851 55.6718C73.6246 55.8955 73.4901 56.1213 73.3595 56.3404C73.0716 56.8236 72.803 57.2744 72.3183 57.5994C71.6136 58.0717 72.6206 57.8241 72.7777 57.7188C73.4033 57.2995 73.8092 56.8368 74.4424 55.9355L74.6262 55.6738C75.3134 54.7026 75.7148 54.291 76.396 53.9741C76.5656 53.8952 76.6445 53.6813 76.5721 53.4964Z" fill="#00160A"/>
<path fill-rule="evenodd" clip-rule="evenodd" d="M77.7422 52.3402C77.4689 52.0718 77.072 51.9896 76.8051 51.7137C76.5521 51.4521 76.4553 51.0257 76.5672 50.6657C76.6791 50.3058 76.9938 50.0313 77.3406 49.9912C78.3353 49.8763 79.33 49.7614 80.3248 49.6465C80.5609 49.6192 80.8218 49.5987 81.0131 49.7521C81.3051 49.9862 81.259 50.4977 81.0479 50.8189C80.8368 51.1401 80.5116 51.3471 80.2573 51.6286C79.9295 51.9914 79.7245 52.4832 79.6895 52.991C79.6634 53.368 79.7011 53.8173 79.427 54.049C79.0828 54.3398 78.5738 53.9962 78.3631 53.5808C78.1524 53.1654 78.0657 52.6579 77.7422 52.3402H77.7422Z" fill="#FFB61D"/>
<path fill-rule="evenodd" clip-rule="evenodd" d="M118.077 103.719C120.19 103.729 123.197 103.646 124.733 102.064C126.172 100.582 126.674 98.7401 126.455 96.5945C126.237 94.4489 124.722 91.8052 124.665 89.6474C125.117 94.2535 131.121 95.5417 133.002 99.6958C134.019 101.941 133.613 104.711 132.481 106.89C131.349 109.069 129.582 110.763 127.793 112.334C122.753 116.761 116.545 119.655 112.33 125.009C108.115 130.363 104.908 138.712 106.735 145.479C108.597 152.375 116.595 157.19 123.123 156.162C123.753 156.063 124.392 155.91 124.929 155.538C126.202 154.657 126.574 152.792 126.456 151.153C126.338 149.513 125.852 147.909 125.889 146.266C125.969 142.671 128.466 139.736 130.948 137.368C137.069 131.527 144.415 126.308 147.229 117.989C149.15 112.311 148.539 105.685 145.62 100.538C141.656 93.5476 134.031 89.6384 130.457 82.4026C130.351 83.8698 130.114 85.3256 129.749 86.7426C129.592 87.3491 129.325 88.0415 128.761 88.1789C128.168 88.3232 134.784 78.0786 121.487 65.3045C116.543 60.5547 110.415 57.1058 104.288 54.1146C102.188 61.3691 96.0416 67.0304 89.1281 68.0773C88.6558 68.1488 88.5478 68.8318 88.5587 69.3514C88.7085 76.526 88.8584 83.7005 89.0083 90.8751C89.0734 93.9925 88.884 97.6698 86.4895 99.3768C85.5024 100.081 85.1965 101.704 85.8493 102.775C86.5021 103.845 87.9939 104.167 88.9717 103.448C87.8372 101.36 89.1345 98.2369 91.3227 97.7882C92.1289 97.6228 92.3856 96.5231 92.474 95.6343C92.8705 91.6493 93.2669 87.6642 93.6633 83.6792C93.8162 88.2255 93.9691 92.7718 94.122 97.3181C98.1832 95.3241 102.915 98.9078 107.279 97.9328C103.666 95.205 100.332 91.7088 98.8141 87.2142C97.296 82.7195 98.0063 77.0937 101.387 74.0331C99.3732 77.5392 98.9756 82.0895 100.346 85.9467C101.667 89.666 104.427 92.536 107.242 95.0846C108.115 95.8745 109.053 96.7332 109.323 97.9338C109.593 99.1343 108.745 100.67 107.628 100.453C103.651 98.8237 99.3437 98.1605 95.1083 98.5259C93.796 98.6391 92.4193 98.8822 91.3967 99.7857C90.3741 100.689 89.8845 102.451 90.676 103.597C99.8097 103.638 108.943 103.679 118.077 103.719Z" fill="white"/>
<path fill-rule="evenodd" clip-rule="evenodd" d="M123.026 156.06C123.656 155.96 124.295 155.807 124.832 155.436C126.106 154.554 126.477 152.689 126.359 151.05C126.241 149.411 125.756 147.807 125.792 146.163C125.872 142.569 128.37 139.634 130.852 137.265C136.972 131.424 144.318 126.205 147.133 117.886C148.259 114.555 134.111 124.741 126.359 136.733C120.897 145.183 120.328 156.484 123.026 156.06Z" fill="#E7EAEE"/>
<path fill-rule="evenodd" clip-rule="evenodd" d="M128.231 73.2242C127.272 70.7072 124.599 68.2838 121.391 65.2021C116.447 60.4523 110.319 57.0033 104.192 54.0122C110.2 58.782 117.524 62.7635 122.736 68.7499C125.276 71.6677 126.995 77.5479 128.431 79.4375C129.53 80.884 130.966 80.4024 128.231 73.2242Z" fill="#E7EAEE"/>
<path fill-rule="evenodd" clip-rule="evenodd" d="M85.8947 72.237C86.1127 71.7185 86.266 69.3257 85.1182 69.3257C84.4022 70.2115 84.4757 71.9114 85.8947 72.237Z" fill="#FFB61D"/>
<path fill-rule="evenodd" clip-rule="evenodd" d="M51.0739 77.8786C48.468 78.63 45.5401 79.2023 43.8864 81.5222C44.2452 81.7763 44.7402 81.5777 45.0494 81.2554C45.3586 80.9331 45.5607 80.505 45.8661 80.1783C46.8346 79.142 48.7632 79.6901 49.144 81.1099C49.5783 80.486 50.5291 80.8612 50.982 81.4691C51.4348 82.077 51.7137 82.8842 52.3432 83.2616C52.9116 82.2255 53.9702 81.6119 55.044 81.3159C56.1179 81.0198 57.2364 80.9925 58.3353 80.8408C60.1933 80.5844 62.0086 79.9658 63.6697 79.0232C63.5687 79.2491 70.4511 75.9966 76.749 75.5251C81.348 75.1808 85.6733 77.4714 86.5524 77.9762C87.1326 74.224 87.6754 70.1712 86.1016 66.7745C86.2302 68.3359 86.4748 69.8859 86.8322 71.4044C87.0409 72.2912 86.0431 73.1101 85.2354 72.8587C84.4276 72.6073 83.9509 71.6416 83.9235 70.7266C83.8961 69.8116 84.2189 68.9324 84.5362 68.0847C84.7841 67.4224 85.0321 66.7602 85.28 66.0979C85.3909 65.8018 85.5035 65.496 85.5016 65.1762C85.4962 64.2678 84.6255 63.6897 83.8513 63.353C82.3739 62.7106 80.8221 62.2718 79.2445 62.0501C78.8178 61.9902 78.3283 61.9676 78.0196 62.2941C74.0258 66.5186 68.9617 69.2961 63.9834 72.0083C59.805 74.2847 55.5899 76.5764 51.0739 77.8786Z" fill="white"/>
<path fill-rule="evenodd" clip-rule="evenodd" d="M52.3432 83.2616C52.9116 82.2255 53.9702 81.6119 55.0441 81.3159C56.1179 81.0198 57.2364 80.9925 58.3354 80.8408C58.7641 80.7816 60.5248 80.4788 62.8103 79.6048C66.1148 78.3412 70.6511 76.3239 74.9729 75.8106C80.6146 75.1407 85.6451 77.4552 86.5524 77.9762C87.1326 74.2239 85.1702 74.6745 84.1166 74.5559C60.8241 71.934 51.7137 82.8842 52.3432 83.2616Z" fill="#E7EAEE"/>
</svg>
