<svg width="80" height="76" viewBox="0 0 80 76" fill="none" xmlns="http://www.w3.org/2000/svg">
<path fill-rule="evenodd" clip-rule="evenodd" d="M44.9146 57.5611C38.2185 53.4018 29.2513 52.0312 24.2739 56.1858C16.3365 62.8116 3.74034 54.3733 7.53824 44.5134C11.3362 34.6536 39.009 -2.62791 62.4614 27.4392C85.9132 57.5065 59.3025 66.4975 44.9146 57.5611Z" fill="#9D2E00"/>
<path fill-rule="evenodd" clip-rule="evenodd" d="M37.9568 24.2833C38.9933 24.1524 39.7512 23.4205 40.5152 22.6828C41.211 22.0108 41.9119 21.334 42.833 21.102L42.8025 21.129C41.6309 22.1689 40.4592 23.2088 39.2871 24.2487C40.8163 24.0699 42.1518 24.351 43.7405 25.1078C43.7874 25.687 44.379 25.847 46.0563 26.3004C47.3979 26.663 49.4342 27.2135 52.4419 28.3165C52.7269 28.421 53.0199 28.5339 53.2327 28.7437C53.4793 28.9868 53.5862 29.3273 53.6795 29.6548C55.6469 36.5563 55.2504 44.0609 52.5647 50.7349C54.1755 50.9609 55.667 51.1889 57.1586 51.417L57.159 51.4171C58.6503 51.6451 60.1417 51.8731 61.7523 52.0991C62.4446 52.196 63.3977 52.6986 63.1783 53.3372L63.1625 53.3831C62.953 53.9947 62.8266 54.3636 62.1582 54.4973C61.4733 54.6348 60.7636 54.5392 60.0712 54.4437C58.976 54.2926 57.8785 54.1386 56.7791 53.9843C44.0839 52.2031 31.1346 50.3863 18.5673 52.5962L18.4368 52.6192C17.4717 52.7894 16.4833 52.9637 15.5241 52.7761C15.4369 52.759 15.3505 52.7429 15.2652 52.7269C14.37 52.5595 13.6045 52.4164 13.4806 51.5263C13.4636 51.4041 13.4625 51.2712 13.5337 51.1689C13.6117 51.0571 13.7558 51.0093 13.8898 50.9701C16.3658 50.2404 19.6222 49.6406 22.2061 49.4742C20.3296 43.0586 19.5721 36.3641 20.9239 29.589C20.9907 29.2536 21.1594 28.8411 21.3885 28.5802C21.6095 28.3283 21.8647 28.2472 22.1767 28.1479L22.1768 28.1478C22.2108 28.137 22.2454 28.126 22.2807 28.1145C25.361 27.1137 28.2345 26.3971 31.4426 25.8885C31.7416 25.0862 32.5534 24.5604 33.4293 24.4296C33.6734 24.3931 33.8991 24.3458 34.1167 24.3003C34.6801 24.1822 35.1881 24.0758 35.8145 24.2C34.8399 22.8322 33.6742 21.5901 32.359 20.5175C32.1756 20.368 32.3945 20.0512 32.6348 20.0603C32.875 20.0694 33.0597 20.2594 33.2157 20.4354L34.9522 22.3944L36.2874 23.9005L33.9921 21.6481C34.9299 23.0093 36.2729 24.4958 37.9568 24.2833ZM28.6208 30.0151C28.6208 30.0151 26.082 35.1622 28.887 41.3413L29.4227 41.6451C29.4227 41.6451 42.7692 42.2405 45.4886 42.2396L45.9592 41.834C45.9592 41.834 49.9091 34.9973 46.2517 29.4673C46.2517 29.4673 32.6587 29.2473 28.6208 30.0151ZM32.7926 20.2732L32.7867 20.6115L32.7752 20.6062C32.6177 20.5779 32.5171 20.3894 32.5848 20.2499C32.6545 20.2393 32.7273 20.2475 32.7926 20.2732Z" fill="white"/>
<path fill-rule="evenodd" clip-rule="evenodd" d="M29.9444 31.4683C29.9444 31.4683 28.166 35.6411 29.7541 39.7757C29.7541 39.7757 36.9785 42.0996 44.6284 40.2036C44.6284 40.2036 46.3338 38.1508 45.1412 31.5228C40.0292 30.2158 35.273 30.2754 29.9444 31.4683Z" fill="white"/>
<path fill-rule="evenodd" clip-rule="evenodd" d="M42.866 20.9421C42.7395 20.9038 42.631 20.8061 42.5957 20.6831C42.5605 20.5602 42.6064 20.4162 42.715 20.343C42.7993 20.286 42.909 20.2752 43.0116 20.2848C43.1133 20.2943 43.2174 20.3245 43.2901 20.3937C43.4055 20.5037 43.408 20.6992 43.3071 20.8217C43.2063 20.9442 43.0211 20.989 42.866 20.9421ZM43.1118 20.5423C43.0665 20.5128 43.0039 20.51 42.9559 20.5354C42.8803 20.5814 42.9106 20.7177 42.9992 20.7299C43.0878 20.742 43.1565 20.6192 43.0972 20.5548L43.1118 20.5423Z" fill="#00160A"/>
<path fill-rule="evenodd" clip-rule="evenodd" d="M35.198 44.2447C35.2402 44.6615 35.2823 45.0784 35.3245 45.4952C35.3345 45.594 35.2993 45.7367 35.1976 45.7194C35.0402 45.5206 35.0502 45.2482 35.0406 44.9986C35.0287 44.6866 34.975 44.376 34.8812 44.077C34.8518 43.983 35.0077 43.9202 35.0896 43.9788C35.1716 44.0374 35.1881 44.147 35.198 44.2447Z" fill="#FFB61D"/>
<path fill-rule="evenodd" clip-rule="evenodd" d="M28.8644 46.2558C28.6304 46.7426 28.2339 47.1772 27.7115 47.3649C27.0354 47.6078 26.2703 47.4046 25.6316 47.0815C25.383 46.9557 25.1414 46.8101 24.947 46.6151C24.5493 46.2164 24.3864 45.6487 24.3456 45.0976C24.3169 44.7089 24.3429 44.3109 24.48 43.9442C24.7838 43.1313 25.6521 42.5583 26.5502 42.5346C27.4482 42.5109 28.3285 43.0145 28.7762 43.7634C29.2239 44.5122 29.2414 45.4718 28.8644 46.2558ZM28.2307 46.7868C28.4193 46.6071 28.5583 46.3835 28.6622 46.1485C29.0631 45.242 28.9065 44.1025 28.1904 43.398C27.4743 42.6935 26.2096 42.5378 25.3895 43.1282C24.8587 43.5103 24.5566 44.1529 24.5587 44.7904C24.5607 45.4279 24.8518 46.0509 25.3098 46.5119C25.6863 46.8908 26.184 47.1697 26.7241 47.2398C27.2642 47.3098 27.8436 47.1557 28.2307 46.7868Z" fill="#00160A"/>
<path fill-rule="evenodd" clip-rule="evenodd" d="M32.8127 45.7352C32.685 46.2617 32.0422 46.5959 31.4994 46.4545C30.9566 46.3131 30.5826 45.7588 30.6175 45.2192C30.6271 45.0713 30.6646 44.9222 30.7499 44.7988C30.9568 44.4999 31.3739 44.4284 31.7444 44.3834C31.8665 44.3686 31.9915 44.3538 32.1116 44.3792C32.3502 44.4297 32.5243 44.628 32.6415 44.8341C32.7973 45.1081 32.8864 45.4311 32.8127 45.7352ZM32.2032 46.096C32.3797 45.9334 32.4411 45.6811 32.4198 45.4469C32.3896 45.1163 32.1878 44.7872 31.867 44.6647C31.5461 44.5422 31.1214 44.6856 31.0079 44.999C30.8833 45.343 30.9269 45.7582 31.1848 46.025C31.4429 46.2917 31.9297 46.3481 32.2032 46.096Z" fill="#00160A"/>
<path fill-rule="evenodd" clip-rule="evenodd" d="M45.4615 43.8891C45.5837 43.6373 45.7646 43.4134 45.9798 43.2279C46.9065 42.4287 48.4611 42.4714 49.3928 43.2653C50.3245 44.0592 50.5731 45.4734 50.038 46.5542C49.7504 47.1353 49.232 47.6377 48.5817 47.7906C47.9524 47.9386 47.2883 47.748 46.7066 47.4737C46.252 47.2593 45.8055 46.9742 45.5682 46.5441C45.4316 46.2966 45.3734 46.0167 45.3279 45.74C45.226 45.1198 45.1854 44.4581 45.4615 43.8891ZM48.0565 42.9079C47.6882 42.8461 47.3041 42.8416 46.945 42.9419C46.1707 43.1582 45.5992 43.8695 45.4862 44.6372C45.3731 45.4048 45.6826 46.1999 46.2236 46.7748C46.892 47.4851 48.0296 47.8691 48.9171 47.434C49.427 47.1839 49.7867 46.6975 49.9426 46.1679C50.0985 45.6384 50.065 45.0698 49.928 44.5354C49.86 44.2703 49.7654 44.008 49.6083 43.7806C49.2673 43.2872 48.6636 43.0096 48.0565 42.9079ZM45.9328 46.7062C45.9266 46.7811 45.977 46.8571 46.0503 46.8834C46.0613 46.813 46.0136 46.7383 45.9433 46.716L45.9328 46.7062Z" fill="#00160A"/>
<path fill-rule="evenodd" clip-rule="evenodd" d="M38.2423 44.7365C38.3275 44.8833 38.2984 45.0831 38.1745 45.2018C38.0603 45.0668 37.9909 44.8972 37.979 44.7236C37.8039 44.7243 37.6288 44.7251 37.4537 44.7258C37.4992 44.8875 37.4647 45.0681 37.3623 45.2036C37.2219 45.0885 37.1521 44.899 37.1857 44.7246C37.0111 44.7244 36.8363 44.7243 36.6617 44.7241C36.683 44.8832 36.6214 45.0507 36.5006 45.1613C36.4726 45.1052 36.4446 45.0491 36.4166 44.993C36.3696 44.8987 36.3195 44.8008 36.2328 44.7378C36.1461 44.6748 36.0112 44.6598 35.9339 44.7333C35.7962 44.8644 35.9069 45.1779 35.7179 45.2193C35.6104 45.1054 35.5709 44.9358 35.6176 44.7887C35.5076 44.7893 35.3985 44.7399 35.3289 44.658C35.3091 44.5932 35.4059 44.5584 35.4762 44.5561C36.7351 44.5148 37.9959 44.524 39.254 44.5839C39.3971 44.5907 39.5611 44.6089 39.6418 44.7228C39.6876 44.7874 39.6952 44.8694 39.7014 44.9474C39.7143 45.111 39.7273 45.2744 39.7403 45.4379C39.7527 45.5944 39.7631 45.7605 39.6871 45.8992C39.5423 46.1632 39.1725 46.2018 38.8622 46.2071C37.685 46.2275 36.5078 46.2479 35.3306 46.2683C35.0315 46.2734 34.7038 46.2695 34.4741 46.0852C34.3057 45.9502 34.2224 45.7411 34.1732 45.5357C34.114 45.289 34.0999 45.0107 34.2487 44.802C34.3976 44.5932 34.7598 44.5218 34.9219 44.7212C34.9136 44.8016 34.7909 44.7901 34.7067 44.7909C34.5447 44.7924 34.4156 44.9378 34.3825 45.0904C34.3495 45.243 34.3892 45.4004 34.4288 45.5516C34.4708 45.7122 34.5224 45.8867 34.6633 45.9819C34.7803 46.061 34.9328 46.0669 35.0759 46.0694C36.149 46.0876 37.2227 46.0706 38.2947 46.0184C38.6027 46.0034 38.9116 45.9854 39.2149 45.9318C39.4692 45.8867 39.541 45.5692 39.5244 45.3212C39.513 45.1497 39.4814 44.9681 39.3621 44.8401C39.2428 44.712 39.0097 44.67 38.8878 44.7958C38.8935 44.9382 38.8175 45.0812 38.6941 45.1602C38.6725 45.042 38.6486 44.9187 38.5722 44.8239C38.4958 44.7289 38.3493 44.6746 38.2423 44.7365Z" fill="#00160A"/>
<path fill-rule="evenodd" clip-rule="evenodd" d="M42.9775 45.876C42.7257 46.3621 41.9903 46.4792 41.508 46.1966C41.2123 46.0234 40.9931 45.7228 40.9547 45.3919C40.9164 45.0609 41.0723 44.7088 41.3638 44.5289C41.4987 44.4455 41.6554 44.4002 41.8127 44.3698C42.1197 44.3106 42.4701 44.3155 42.7073 44.5121C42.8429 44.6244 42.9238 44.7858 42.9816 44.9486C43.0883 45.2491 43.1248 45.5919 42.9775 45.876ZM41.9628 46.1561C42.1959 46.1755 42.4301 46.0549 42.5627 45.8696C42.6954 45.6843 42.7308 45.4431 42.681 45.2233C42.6123 44.9204 42.366 44.647 42.0491 44.5895C41.7322 44.5321 41.3726 44.7348 41.3167 45.0401C41.2734 45.2763 41.2828 45.528 41.3902 45.7445C41.4975 45.961 41.7143 46.1354 41.9628 46.1561Z" fill="#00160A"/>
<path fill-rule="evenodd" clip-rule="evenodd" d="M37.9566 24.2832C39.9373 24.0332 40.9005 21.5887 42.833 21.1019C41.6511 22.1508 40.4692 23.1998 39.2873 24.2487C40.8161 24.0699 42.402 24.3758 43.7407 25.1078C42.1628 24.5105 40.4275 24.4589 38.7323 24.4149C36.8878 24.367 35.0432 24.3191 33.1986 24.2713C32.8174 24.2613 32.4154 24.2561 32.0816 24.4333C31.7478 24.6105 31.5265 25.0392 31.7188 25.3558C38.9175 24.5813 46.3053 25.4845 53.0733 27.9665C53.358 28.071 53.651 28.1839 53.8639 28.3937C54.1106 28.6367 54.2175 28.9772 54.3108 29.3048C56.2782 36.2063 55.8813 43.7108 53.1959 50.3849C56.4171 50.8368 59.6383 51.2888 62.8597 51.7407C63.5521 51.8379 63.9492 52.663 63.7298 53.3018C63.5104 53.9406 62.8433 54.3602 62.1585 54.4974C61.4731 54.6346 60.7639 54.539 60.0711 54.4435C46.3296 52.5478 32.291 50.822 18.6353 53.2231C17.629 53.4001 16.5946 53.5994 15.5922 53.4031C14.5898 53.2069 13.6163 52.5012 13.4806 51.5263C13.4636 51.4043 13.4625 51.2712 13.5337 51.1689C13.6116 51.0569 13.7558 51.0094 13.8898 50.9699C16.3658 50.2404 18.9295 49.7865 21.5134 49.6201C19.3837 43.0323 18.9707 35.9384 20.3225 29.1632C20.3894 28.8279 20.4681 28.4778 20.6972 28.2169C20.9423 27.9377 21.3193 27.8058 21.6793 27.6888C24.7596 26.688 27.9245 25.9283 31.1326 25.4197C31.4316 24.6174 32.3038 24.1166 33.1797 23.9857C34.0556 23.8549 34.9463 24.0278 35.8145 24.2C34.8396 22.8321 33.6742 21.5901 32.359 20.5175C32.1756 20.368 32.3945 20.0512 32.6348 20.0602C32.875 20.0693 33.0597 20.2594 33.2157 20.4353C34.2396 21.5904 35.2634 22.7455 36.2873 23.9005C35.5222 23.1497 34.7571 22.3989 33.9921 21.6481C34.9297 23.0092 36.273 24.4958 37.9566 24.2832ZM53.7357 28.6C53.5187 28.3504 53.1882 28.2246 52.8709 28.1115C42.587 24.4481 30.8493 24.2889 20.746 28.3905C19.6689 35.0172 19.9157 41.8404 21.4689 48.3791C21.5916 48.8959 21.8696 49.5284 22.4209 49.5212C30.7779 49.4119 39.1331 49.7713 47.4826 50.1307C49.0406 50.1978 50.5987 50.2649 52.1552 50.3591C52.8063 50.3985 53.2017 49.6955 53.4107 49.1012C55.6388 42.7656 55.8708 35.7949 54.0685 29.3353C53.9959 29.075 53.9154 28.8069 53.7357 28.6ZM13.7992 51.4941C13.8589 52.3598 14.7029 53.0215 15.5842 53.2082C16.4655 53.3949 17.3803 53.2178 18.2673 53.0581C32.1859 50.5518 46.5096 52.3779 60.5318 54.276C61.3442 54.3859 62.2466 54.4765 62.9151 54.0197C63.5835 53.5628 63.6206 52.3308 62.8255 52.1366C54.1339 50.0129 45.0312 50.3717 36.0728 49.9721C33.6425 49.8637 31.2143 49.6984 28.7818 49.6563C24.6362 49.5844 20.484 49.8709 16.3916 50.5112C15.4588 50.6572 14.4673 50.8514 13.7992 51.4941ZM19.9617 33.1334C19.8504 35.0901 19.7879 37.0495 19.774 39.0091C19.7708 39.4592 19.7709 39.9146 19.8823 40.3518C19.9562 37.9463 20.03 35.5391 19.9617 33.1334ZM21.106 47.7124C21.004 47.1822 20.902 46.652 20.8 46.1218C20.7637 45.9331 20.7247 45.738 20.6106 45.5806C20.6939 46.3058 20.8604 47.0221 21.106 47.7124ZM32.7866 20.6115C32.7886 20.4987 32.7906 20.3859 32.7925 20.2732C32.7271 20.2475 32.6545 20.2393 32.5847 20.2499C32.5169 20.3894 32.6177 20.5779 32.7751 20.6062L32.7866 20.6115Z" fill="#00160A"/>
<path fill-rule="evenodd" clip-rule="evenodd" d="M47.9862 46.9551C48.3506 46.6445 48.7149 46.334 49.0793 46.0235C49.1591 45.9554 49.3182 45.9076 49.3419 46.0076C48.951 46.384 48.5416 46.7425 48.1156 47.0817C48.0724 47.0395 48.0293 46.9972 47.9862 46.9551Z" fill="#00160A"/>
<path fill-rule="evenodd" clip-rule="evenodd" d="M25.7899 43.4553C25.8275 43.4625 25.8651 43.4697 25.9027 43.4768C25.7747 43.5966 25.6133 43.6831 25.4401 43.7249C25.5306 43.6107 25.6527 43.5199 25.7904 43.4643L25.7899 43.4553Z" fill="#00160A"/>
<path fill-rule="evenodd" clip-rule="evenodd" d="M27.1819 46.7016C27.0939 46.6724 27.1659 46.5453 27.2435 46.4959C27.4126 46.3886 27.5816 46.2813 27.7506 46.174C27.8254 46.1265 27.9448 46.0878 27.988 46.1633C27.7797 46.3679 27.54 46.5428 27.2791 46.6807C27.2491 46.6966 27.2142 46.7124 27.1819 46.7016Z" fill="#00160A"/>
<path fill-rule="evenodd" clip-rule="evenodd" d="M49.1674 44.911C49.2485 44.8399 49.4064 44.7845 49.4407 44.8846C48.7098 45.5465 47.9739 46.2032 47.2331 46.8548C47.1724 46.854 47.1352 46.7821 47.1493 46.7252C47.1634 46.6685 47.2106 46.6256 47.2555 46.5863C47.8928 46.0278 48.5301 45.4694 49.1674 44.911Z" fill="#00160A"/>
<path fill-rule="evenodd" clip-rule="evenodd" d="M28.2332 45.267C27.621 45.693 26.998 46.1047 26.3649 46.5016C26.3302 46.5233 26.2881 46.546 26.2495 46.5313C26.1612 46.4977 26.2365 46.3707 26.3158 46.3204C26.8454 45.9847 27.375 45.649 27.9046 45.3133C28.0047 45.2499 28.1454 45.1885 28.2332 45.267Z" fill="#00160A"/>
<path fill-rule="evenodd" clip-rule="evenodd" d="M28.2409 29.0686C29.1447 29.2661 30.0849 29.2078 31.0103 29.1576C36.0992 28.8817 41.2045 28.8845 46.293 29.1661C46.493 29.1771 46.7275 29.2087 46.8223 29.3784C46.7151 29.3877 46.6057 29.3724 46.5058 29.3342C48.3568 33.0303 48.3231 37.5485 46.4169 41.2187C46.2234 41.5913 46.0061 41.9781 46.0225 42.3943C45.6765 42.2557 45.2909 42.2505 44.9162 42.2466C39.5946 42.1924 34.2742 42.0282 28.9599 41.7541C28.7919 41.7454 28.6162 41.7344 28.472 41.651C28.27 41.5342 28.1763 41.3044 28.0999 41.0899C27.0609 38.171 26.727 35.0223 27.1323 31.9618C27.2694 30.926 27.5167 29.8467 28.2409 29.0686ZM30.371 39.8787C34.767 40.8051 39.3623 41.2629 43.7567 40.3295C44.0232 40.2729 44.2972 40.2075 44.5146 40.0487C44.8489 39.8046 44.9869 39.3892 45.0822 38.9962C45.6475 36.6658 45.3675 34.2324 45.0846 31.855C45.0232 31.3389 44.3869 31.1118 43.8576 31.0073C39.3938 30.1261 34.7437 30.1271 30.2804 31.0103C30.0049 31.0648 29.7201 31.127 29.4975 31.2921C29.2748 31.4572 29.1334 31.7558 29.2426 32.0049C29.2395 31.7511 29.3981 31.5018 29.6345 31.3889C28.6206 33.8662 28.502 36.6729 29.3035 39.2211C29.4321 39.6301 29.9369 39.7872 30.371 39.8787ZM47.3815 37.7875C47.8383 35.0171 47.4607 32.1242 46.3062 29.5483C45.8715 29.9609 45.4137 30.4155 45.3209 30.9959C45.1754 31.906 45.9758 32.8502 45.6047 33.6989C45.5392 33.3824 45.4738 33.0659 45.4083 32.7494C45.8394 34.891 45.8096 37.1173 45.3212 39.2475C45.2658 39.4889 45.1901 39.7506 44.9798 39.8929C44.7922 40.0198 44.9045 40.3013 45.032 40.4846C45.3114 40.8867 45.5908 41.2887 45.8702 41.6908C46.6221 40.218 47.1222 38.6269 47.3447 37.0003C47.357 37.2627 47.3692 37.5251 47.3815 37.7875ZM29.9317 30.8013C34.6443 29.5389 39.6839 29.9116 44.4581 30.9379C44.5779 30.9637 44.7123 30.9877 44.8161 30.9246C44.8655 30.8944 44.9013 30.8478 44.9358 30.8023C45.2882 30.338 45.6406 29.8737 45.993 29.4093C40.1883 29.043 34.3551 29.0943 28.5583 29.5626C28.668 29.8806 28.7827 30.2069 29.0074 30.4629C29.2322 30.7189 29.5961 30.8912 29.9317 30.8013ZM29.542 39.8568C29.261 40.1601 29.0271 40.5038 28.8504 40.8729C28.7902 40.9989 28.7361 41.1442 28.7901 41.2729C28.8707 41.4651 29.1313 41.5037 29.3468 41.5131C34.646 41.7442 39.9479 41.9198 45.2512 42.0397C45.3143 42.0411 45.3883 42.0375 45.4243 41.9876C45.4548 41.9453 45.4437 41.8881 45.4314 41.8379C45.3442 41.4839 45.2511 41.1178 45.0182 40.831C44.7854 40.5443 44.3709 40.3596 44.02 40.4957C41.3698 41.5236 38.3919 41.2779 35.5554 40.9437C33.5284 40.7047 31.4962 40.4269 29.542 39.8568ZM29.0706 39.2797C28.0225 36.8067 28.5148 34.0043 29.1075 31.3954C29.1347 31.2756 29.1621 31.1512 29.1344 31.0314C29.1105 30.9284 29.0479 30.8382 28.9866 30.7508C28.7152 30.3642 28.4439 29.9776 28.1726 29.591C26.8723 33.2663 26.9569 37.3789 28.4071 41.002C28.8505 40.5156 29.3244 39.8786 29.0706 39.2797ZM36.0939 30.2146C35.1381 30.1889 34.1803 30.231 33.2309 30.3404C33.1714 30.3473 33.0916 30.3959 33.1286 30.4411C34.1439 30.3843 35.1592 30.3275 36.1745 30.2707C36.1862 30.2351 36.1326 30.2156 36.0939 30.2146ZM38.7266 41.0743C39.6548 41.157 40.5944 41.1213 41.513 40.9686C41.5566 40.9614 41.6099 40.9446 41.6154 40.9024C40.6525 40.9597 39.6895 41.0171 38.7266 41.0743ZM42.0629 40.9062C42.1596 40.9245 42.2652 40.8913 42.332 40.8217C42.1991 40.7998 42.0593 40.8181 41.9373 40.8734C41.9347 40.9244 42.0085 40.9609 42.0501 40.9292M42.5262 40.8435C42.5651 40.8719 42.6041 40.7936 42.5703 40.7596C42.5307 40.7494 42.4869 40.756 42.4526 40.7773C42.4441 40.8137 42.4851 40.8513 42.5225 40.8415L42.5262 40.8435Z" fill="#00160A"/>
<path fill-rule="evenodd" clip-rule="evenodd" d="M26.3271 46.8794C25.5241 46.5932 24.8536 45.9155 24.7153 45.1028C24.5769 44.2902 25.0502 43.3867 25.8558 43.1074C26.2345 42.9761 26.6502 42.9818 27.0492 43.033C27.215 43.0542 27.3807 43.0832 27.538 43.138C28.0848 43.3282 28.4799 43.8245 28.6221 44.3666C28.7643 44.9087 28.6778 45.4881 28.4761 46.0125C28.3852 46.2491 28.2676 46.4823 28.0814 46.6599C27.6389 47.0815 26.9113 47.0875 26.3271 46.8794ZM26.0081 46.5312C26.1392 46.63 26.3207 46.732 26.4588 46.6425C26.9719 46.3103 27.485 45.978 27.998 45.6457C28.0853 45.5893 28.2467 45.5619 28.2574 45.6625C27.7251 46.0154 27.1928 46.3683 26.6606 46.7212C27.0598 46.9814 27.6404 46.8252 27.9608 46.4786C28.2812 46.1321 28.3905 45.6502 28.4229 45.1876C28.4548 44.7345 28.4203 44.2631 28.207 43.858C28.1471 43.7442 28.0465 43.6232 27.9144 43.6342C27.8524 43.6394 27.7978 43.6737 27.7462 43.7069C26.8755 44.2679 26.0049 44.829 25.1342 45.39C25.0845 45.422 25.0307 45.4596 25.0187 45.5159C25.0066 45.5723 25.0712 45.6391 25.1219 45.6086C26.058 44.9821 27.0059 44.372 27.965 43.7786C28.0542 43.8204 27.9713 43.948 27.8879 43.9997C27.0266 44.534 26.1784 45.0876 25.3442 45.6601C25.2581 45.7192 25.1617 45.8212 25.2182 45.9072C25.3106 45.861 25.3976 45.8053 25.4843 45.7498C26.2771 45.2418 27.07 44.7338 27.8628 44.2259C27.9793 44.1512 28.1826 44.1034 28.2199 44.2332C27.2367 44.7959 26.2835 45.4071 25.3653 46.0634C25.3846 46.1159 25.4412 46.1535 25.4991 46.1523C26.3061 45.6292 27.1197 45.1155 27.9398 44.6114C28.0699 44.5315 28.2439 44.4522 28.3671 44.5417C27.4228 45.0908 26.5014 45.6762 25.6057 46.2961C25.6234 46.3443 25.6761 46.3784 25.7292 46.3759C26.5248 45.8072 27.3585 45.2877 28.2234 44.8218C28.2668 44.927 28.1458 45.0226 28.043 45.0774C27.3458 45.449 26.6765 45.8689 26.0419 46.3327C25.9917 46.3694 25.9358 46.4259 25.9609 46.4815C25.9703 46.5023 25.9896 46.5172 26.0081 46.5312ZM24.929 44.6314C25.5639 44.181 26.2213 43.76 26.8983 43.3702C26.9734 43.3269 27.0882 43.292 27.1336 43.3641C26.4592 43.8035 25.7849 44.2429 25.1106 44.6823C25.0031 44.7523 24.881 44.8626 24.927 44.9793C25.6739 44.4981 26.4209 44.017 27.1678 43.5359C27.2653 43.4731 27.4201 43.4206 27.4796 43.5179C26.7011 44.0157 25.9226 44.5135 25.1441 45.0114C25.0407 45.0775 24.9228 45.1874 24.9756 45.2956C25.8884 44.7228 26.8013 44.15 27.7141 43.5773C27.7386 43.5619 27.7647 43.5445 27.7737 43.5178C27.794 43.4572 27.7177 43.4109 27.6554 43.3895C27.5055 43.338 27.3556 43.2866 27.2058 43.2352C27.1306 43.2094 27.0531 43.1832 26.9734 43.1865C26.8598 43.1911 26.7589 43.2542 26.6644 43.3151C26.1521 43.6458 25.6397 43.9765 25.1274 44.3073C25.0936 44.2744 25.0404 44.2616 24.9945 44.2751C24.9472 44.3878 24.9248 44.51 24.929 44.6314ZM25.3911 43.7725C25.2076 43.8561 25.064 44.0168 25.0058 44.2038C25.5386 43.8698 26.0713 43.5358 26.6041 43.2019C26.2393 43.2066 25.8758 43.2939 25.5515 43.4548C25.4236 43.5182 25.2879 43.6761 25.3911 43.7725Z" fill="#00160A"/>
<path fill-rule="evenodd" clip-rule="evenodd" d="M47.4234 47.2486C46.5535 46.9834 45.8172 46.2755 45.647 45.4135C45.4768 44.5516 45.9464 43.5821 46.7865 43.2394C47.2702 43.042 47.825 43.0546 48.3332 43.1828C48.7222 43.281 49.1035 43.452 49.3715 43.7403C49.8385 44.2427 49.8728 44.9906 49.7778 45.6582C49.7061 46.1624 49.5543 46.6928 49.1525 47.024C48.6913 47.4043 48.0026 47.4251 47.4234 47.2486ZM49.2786 45.3502C49.3609 45.2849 49.5216 45.2434 49.5414 45.3441C48.8878 45.902 48.2455 46.4723 47.6152 47.0545C48.1757 47.3094 48.9115 47.1322 49.2808 46.6534C49.1704 46.5712 49.0247 46.6947 48.9409 46.8019C48.857 46.9091 48.6897 47.017 48.5979 46.916C48.7323 46.7415 48.9042 46.5938 49.0997 46.485C49.1769 46.442 49.2592 46.404 49.3209 46.3421C49.3935 46.2694 49.4304 46.1711 49.4605 46.0747C49.6265 45.5421 49.6398 44.9664 49.4985 44.4273C48.6654 45.1414 47.8324 45.8557 46.9994 46.5698C46.9511 46.6113 46.8975 46.6548 46.8329 46.6582C46.7683 46.6616 46.6989 46.5997 46.724 46.5423C47.5228 45.8833 48.3216 45.2244 49.1203 44.5653C49.2322 44.473 49.3494 44.3732 49.392 44.2375C49.4345 44.1018 49.364 43.9236 49.2184 43.9014C49.1073 43.8846 49.0062 43.9598 48.921 44.0305C48.0908 44.7184 47.2607 45.4062 46.4305 46.0941C46.339 46.17 46.2415 46.3005 46.3221 46.3871C47.2037 45.6604 48.0854 44.9337 48.967 44.207C49.0708 44.1214 49.2258 44.0339 49.3307 44.1181C48.4049 44.8865 47.4792 45.6548 46.5534 46.4232C46.515 46.455 46.4728 46.4967 46.4824 46.5446C46.4898 46.581 46.5248 46.6052 46.5573 46.6251C46.7674 46.7541 46.9884 46.8666 47.2174 46.9611C47.2918 46.9919 47.3885 47.0171 47.4454 46.9617C48.0272 46.3948 48.6393 45.8566 49.2786 45.3502ZM45.975 44.8909C45.9102 44.9409 45.8402 45.0288 45.8941 45.0896C46.5623 44.593 47.2306 44.0965 47.8988 43.5999C47.9887 43.5331 48.1108 43.4638 48.2073 43.5216C47.4908 44.0666 46.7743 44.6115 46.0578 45.1565C45.9414 45.245 45.8122 45.3863 45.8848 45.5107C46.7638 44.7916 47.6702 44.1035 48.6016 43.4482C48.359 43.3706 48.1071 43.3201 47.8525 43.2979C47.6058 43.2765 47.3501 43.2829 47.1206 43.3724C46.8911 43.462 46.691 43.6469 46.6404 43.88C46.8854 43.6552 47.1925 43.4936 47.5215 43.4166C47.0461 43.7525 46.5708 44.0884 46.0955 44.4243C45.9602 44.5199 45.8098 44.6857 45.9045 44.8189C46.4748 44.2694 47.1328 43.8043 47.8485 43.445C47.224 43.9269 46.5995 44.4089 45.975 44.8909ZM45.9291 45.6529C45.9458 45.7113 45.9625 45.7697 45.9792 45.8281C46.937 45.0827 47.8948 44.3373 48.8526 43.5919C48.7432 43.5015 48.578 43.5898 48.4658 43.6771C47.6203 44.3357 46.7747 44.9943 45.9291 45.6529ZM46.2415 45.8334C46.1515 45.9052 46.0645 46.0526 46.1657 46.1088C47.1237 45.3287 48.0818 44.5486 49.0398 43.7685C48.9684 43.6949 48.8427 43.758 48.7622 43.8223C47.922 44.4926 47.0817 45.163 46.2415 45.8334ZM46.2414 43.8992C46.4376 43.8282 46.6094 43.696 46.7243 43.5273C46.4981 43.5115 46.2747 43.6835 46.2414 43.8992Z" fill="#00160A"/>
<path fill-rule="evenodd" clip-rule="evenodd" d="M34.1651 34.1916C34.2498 34.062 34.8157 33.8863 35.1944 34.2099C35.5731 34.5335 34.2225 34.8093 35.1977 35.0739C36.1729 35.3386 37.8857 35.36 38.7135 35.1648C39.5413 34.9697 38.6029 34.3511 38.7626 34.2335C38.9224 34.1158 39.7634 33.7281 40.1217 34.2335C40.48 34.7389 41.436 35.3667 39.8854 35.7683C38.3349 36.17 35.536 36.1614 34.1651 35.7835C32.7942 35.4056 34.0803 34.3212 34.1651 34.1916Z" fill="#00160A"/>
<path fill-rule="evenodd" clip-rule="evenodd" d="M36.5057 32.374C36.9539 32.1305 37.3498 32.2228 37.6589 32.374C37.968 32.5252 37.6096 33.2145 37.6096 33.2145C37.6096 33.2145 38.628 32.9905 38.5995 33.1703C38.571 33.3501 37.8435 34.5116 37.1159 34.5271C36.3883 34.5426 35.7197 33.3705 35.6255 33.2145C35.5312 33.0585 36.5336 33.2145 36.5336 33.2145C36.5336 33.2145 36.0575 32.6175 36.5057 32.374Z" fill="#00160A"/>
<path fill-rule="evenodd" clip-rule="evenodd" d="M42.5034 37.576C42.7362 37.5798 42.9216 37.7657 42.9173 37.9911C42.9131 38.2166 42.7209 38.3964 42.4881 38.3926L31.9487 38.2213C31.7159 38.2175 31.5306 38.0317 31.5348 37.8062C31.539 37.5807 31.7312 37.401 31.964 37.4047L42.5034 37.576ZM42.5006 37.7286L31.961 37.5568C31.8155 37.5544 31.6954 37.6671 31.6928 37.8085C31.6902 37.9442 31.7969 38.057 31.9342 38.0679L31.9515 38.0687L42.4911 38.2405C42.6366 38.2429 42.7567 38.1302 42.7594 37.9888C42.7619 37.8531 42.6552 37.7403 42.518 37.7294L42.5006 37.7286Z" fill="#00160A"/>
<rect width="8.96022" height="0.810676" rx="0.405338" transform="matrix(0.999859 0.0167767 -0.0181553 0.999835 31.5418 37.3979)" fill="#FFB61D"/>
</svg>
