<svg width="95" height="84" viewBox="0 0 95 84" fill="none" xmlns="http://www.w3.org/2000/svg">
<path fill-rule="evenodd" clip-rule="evenodd" d="M18.2311 61.481C23.9049 67.0001 45.8459 63.8298 60.2931 63.8298C66.5257 63.8298 87.4413 66.6212 78.8043 47.4508C50.4852 -15.4059 0.253435 43.9936 18.2311 61.481Z" fill="#9D2E00"/>
<path fill-rule="evenodd" clip-rule="evenodd" d="M43.3352 61.925C43.3628 61.9061 43.3917 61.8856 43.4037 61.8564C43.4423 61.7629 43.2912 61.7008 43.1797 61.7031C43.018 61.7063 42.8106 61.8037 42.8601 61.9413C42.8888 62.021 42.9985 62.0578 43.0907 62.0432C43.1829 62.0285 43.261 61.9759 43.3352 61.925ZM43.816 60.2861C43.9382 60.3203 44.0587 60.3626 44.1651 60.4263C44.3648 60.5458 44.5007 60.7313 44.6311 60.9117C44.7246 61.041 44.8193 61.1729 44.866 61.3211C44.9165 61.4817 44.9075 61.653 44.8737 61.817C44.7682 62.3278 44.4154 62.794 43.9241 63.0716C43.4328 63.3492 42.8103 63.4342 42.2486 63.3002C42.1393 63.2742 42.0292 63.2386 41.9451 63.171C41.8744 63.1141 41.8268 63.0384 41.7832 62.9629C41.5544 62.5665 41.4002 62.1262 41.4178 61.6805C41.4355 61.2348 41.6405 60.7837 42.0288 60.5036C42.5162 60.1521 43.2185 60.1185 43.816 60.2861" fill="white"/>
<path fill-rule="evenodd" clip-rule="evenodd" d="M69.6096 36.0392C69.3418 36.0362 69.0907 36.2369 69.0642 36.475C69.0533 36.5723 69.0995 36.6933 69.2079 36.7067C69.2892 36.7168 69.3605 36.6607 69.415 36.606C69.5305 36.4903 69.6298 36.3616 69.7096 36.224C69.7364 36.1778 69.76 36.1186 69.7248 36.0771C69.6991 36.047 69.652 36.0397 69.6096 36.0392ZM69.4936 34.9714C69.8739 35.09 70.2185 35.2985 70.4829 35.57C70.7102 35.8033 70.8832 36.1063 70.8355 36.4126C70.8179 36.5251 70.7715 36.6323 70.7185 36.7356C70.518 37.1265 70.173 37.5012 69.6992 37.5769C69.4507 37.6166 69.1945 37.569 68.9555 37.4963C68.679 37.4123 68.4155 37.2944 68.1745 37.147C68.0467 37.0689 67.9198 36.9761 67.8638 36.847C67.8251 36.7581 67.824 36.6602 67.8254 36.5648C67.829 36.3289 67.8465 36.089 67.9385 35.8679C68.055 35.5881 68.2828 35.3572 68.5244 35.1511C68.6216 35.0682 68.7246 34.9866 68.8494 34.9421C69.0536 34.8694 69.2861 34.9067 69.4936 34.9714Z" fill="white"/>
<path fill-rule="evenodd" clip-rule="evenodd" d="M69.6099 17.9522C71.1833 19.4022 72.4252 21.1361 73.2382 23.0178C73.294 23.147 73.3482 23.2906 73.2949 23.4207C72.8848 24.4223 72.0933 25.2574 71.3172 26.0694C70.8213 26.5883 70.3254 27.1071 69.8295 27.626C69.3561 28.1213 68.8826 28.6167 68.3932 29.0996C65.9014 31.5582 62.9571 33.708 59.547 35.0307C59.4184 35.0806 59.2803 35.1304 59.1417 35.1105C59.0031 35.0905 58.8733 34.9707 58.9095 34.85C59.3311 33.447 59.7554 31.9802 59.4171 30.5595C59.3355 30.2168 59.2446 29.7853 59.5627 29.5791C62.1381 27.9095 63.9923 25.5231 65.7694 23.1691C66.2162 22.5772 66.6619 21.9837 67.0573 21.3634C67.7593 20.2622 68.3 19.0796 68.6613 17.855C68.7109 17.6869 68.9492 17.6113 69.138 17.6553C69.3268 17.6993 69.4743 17.8272 69.6099 17.9522" fill="white"/>
<path fill-rule="evenodd" clip-rule="evenodd" d="M20.5412 23.5853C20.797 25.6519 21.509 27.6726 22.6242 29.4974C23.3148 30.6272 24.1547 31.6777 24.9924 32.725C25.5753 33.4538 26.1986 34.2133 27.1082 34.59C27.35 34.6901 27.3163 35.0017 27.2514 35.2327C26.9708 36.2313 26.8399 37.2633 26.8633 38.2926C26.8655 38.3899 26.8683 38.4907 26.8256 38.5801C26.6804 38.8838 26.1831 38.8332 25.8407 38.709C23.7224 37.9405 22.0961 36.3952 20.5769 34.8686C18.6044 32.8865 16.6612 30.8173 15.496 28.3777C15.4167 28.2119 15.3399 28.0373 15.3531 27.8574C15.3666 27.6741 15.472 27.5074 15.579 27.3505C16.6353 25.8001 18.1048 24.4762 19.8312 23.5197C19.9528 23.4523 20.0827 23.3848 20.2256 23.3804C20.3686 23.3759 20.5254 23.4583 20.5412 23.5853Z" fill="white"/>
<path fill-rule="evenodd" clip-rule="evenodd" d="M69.3012 59.8388C69.4837 59.5623 69.71 59.2579 70.0643 59.2055C70.204 59.1848 70.2777 59.0492 70.3252 58.93C70.911 57.4618 70.9674 55.829 70.4843 54.3312C70.3463 53.9037 70.5161 53.4505 70.6842 53.0316C71.1177 51.9508 71.5513 50.8699 71.9849 49.789C71.7365 49.405 71.0815 49.4164 70.7459 49.0896C70.3141 48.6691 70.6398 48.0004 70.9781 47.5163C72.9544 44.688 74.9307 41.8597 76.907 39.0314C77.1492 38.6848 77.6805 38.5762 78.1258 38.6686C78.5711 38.7609 78.9515 39.0113 79.3177 39.2558C80.7591 40.2179 82.2005 41.1799 83.6418 42.142C84.4154 42.6583 85.2694 43.3179 85.2249 44.1798C85.2003 44.6568 84.8948 45.0807 84.5994 45.4785C83.4571 47.0167 82.3147 48.5549 81.1724 50.0931C80.5289 50.9597 80.7066 52.0978 80.5121 53.1233C80.2048 54.7435 78.9615 56.0741 77.8102 57.3555C76.6589 58.6369 75.5069 60.0678 75.4422 61.71C75.365 63.6674 74.3244 65.5792 72.6488 66.8417C73.1349 65.7881 70.0643 66.2083 66.5519 64.9595C67.1299 63.1323 68.2211 61.474 69.3012 59.8388Z" fill="white"/>
<path fill-rule="evenodd" clip-rule="evenodd" d="M30.7328 64.4212C30.5138 64.2611 30.444 63.9909 30.4053 63.7397C29.958 60.8333 31.879 57.9647 31.5369 55.0468C31.3605 53.5432 30.5874 52.1401 29.6144 50.9062C28.9426 50.0541 28.9049 48.9125 29.1556 47.8929C29.4062 46.8733 29.9119 45.9199 30.2529 44.9217C31.7695 40.4828 29.9241 35.7406 28.0995 31.3961C31.7353 29.825 35.9779 30.1293 40.0056 30.3421C44.0333 30.555 48.3651 30.5701 51.7221 28.56C52.1822 32.9084 51.1676 37.2616 50.1588 41.5346C55.2776 41.089 60.3964 40.6433 65.5152 40.1977C65.662 40.1849 65.8225 40.175 65.9445 40.2495C66.1072 40.3489 66.1322 40.5516 66.1415 40.7281C66.3808 45.2502 66.5259 49.7764 66.5766 54.3035C66.5779 54.417 66.5735 54.5436 66.4844 54.6242C66.4081 54.6931 66.2916 54.7075 66.184 54.7182C59.0124 55.4324 51.8409 56.1466 44.6693 56.8608C44.0491 56.9225 43.1657 56.7782 43.202 56.2187C43.364 53.7243 43.2694 51.2166 42.92 48.7377C41.0141 48.6733 39.0953 48.933 37.2952 49.499C36.8868 49.6274 36.3957 49.9727 36.616 50.3072C38.0732 52.5201 36.2646 55.8462 38.2436 57.7037C38.9241 58.3424 38.8771 59.3472 38.7422 60.2229C38.4532 62.0998 37.962 63.9516 37.278 65.744C37.6087 63.6809 30.9349 65.5276 30.7328 64.4212Z" fill="white"/>
<path fill-rule="evenodd" clip-rule="evenodd" d="M10.2202 17.587C10.2263 17.631 10.1997 17.6773 10.156 17.6984C10.1212 17.6673 10.0863 17.6362 10.0515 17.6051C10.1037 17.5847 10.1629 17.5789 10.2188 17.5886L10.2202 17.587Z" fill="#00160A"/>
<path fill-rule="evenodd" clip-rule="evenodd" d="M43.6907 60.2861C43.8128 60.3203 43.9334 60.3626 44.0398 60.4263C44.2395 60.5458 44.3754 60.7313 44.5058 60.9117C44.5992 61.041 44.694 61.1729 44.7407 61.3211C44.7912 61.4817 44.7822 61.653 44.7483 61.817C44.6429 62.3278 44.2901 62.794 43.7988 63.0716C43.3075 63.3492 42.6849 63.4342 42.1233 63.3002C42.014 63.2742 41.9038 63.2386 41.8197 63.171C41.7491 63.1141 41.7015 63.0384 41.6579 62.9629C41.4291 62.5665 41.2749 62.1262 41.2925 61.6805C41.3101 61.2348 41.5152 60.7837 41.9035 60.5036C42.3909 60.1521 43.0931 60.1185 43.6907 60.2861M43.0058 62.9398C43.3113 62.8983 43.5802 62.72 43.7558 62.4928C43.9314 62.2655 44.0215 61.9931 44.0647 61.7196C44.0894 61.5635 44.0917 61.3846 43.9683 61.2718C43.8945 61.2043 43.789 61.1742 43.6879 61.1471C43.308 61.0456 42.8744 60.9593 42.5342 61.1412C42.2865 61.2736 42.1484 61.5191 42.0232 61.7516C41.8765 62.0238 41.9127 62.3674 42.1137 62.6104C42.3146 62.8533 42.6716 62.9851 43.0058 62.9398V62.9398Z" fill="#00160A"/>
<path fill-rule="evenodd" clip-rule="evenodd" d="M57.6455 48.0242C57.6508 47.9663 57.6586 47.9042 57.7015 47.8605C57.7435 47.8178 57.8095 47.8024 57.8714 47.7896C59.4674 47.4575 61.1159 47.3276 62.7522 47.4049C62.9606 47.4148 63.2287 47.4778 63.2425 47.6639C63.3215 48.7308 63.4006 49.7977 63.4796 50.8645C63.4836 50.9185 63.4856 50.9784 63.447 51.02C63.4155 51.054 63.3646 51.0671 63.3169 51.0782C61.6149 51.4747 59.8209 51.5529 58.0838 51.3062C58.039 51.2999 57.992 51.2924 57.9573 51.2664C57.9153 51.235 57.9006 51.1839 57.8886 51.1361C57.6325 50.1177 57.5502 49.0645 57.6455 48.0242ZM58.0218 49.7941C58.0532 50.197 58.1477 50.5959 58.3019 50.9755C58.4557 50.9953 58.6078 51.0238 58.761 51.047C60.0811 51.2467 61.4312 51.0458 62.7511 50.8451C62.8448 50.8309 62.9475 50.8119 63.0053 50.7446C63.0643 50.6757 63.0565 50.5799 63.0458 50.4937C63.0003 50.1261 62.9549 49.7584 62.9094 49.3908C62.9057 49.3612 62.901 49.3294 62.8786 49.3073C62.8514 49.2805 62.8068 49.2762 62.7664 49.2738C61.8284 49.2187 60.8873 49.2812 59.9499 49.3437C59.4318 49.3783 58.9137 49.4128 58.3956 49.4474C58.2738 49.4555 58.1355 49.4716 58.0654 49.561C58.0139 49.6269 58.0156 49.7139 58.0218 49.7941ZM58.0364 48.2564C57.9545 48.4914 57.9397 48.7448 57.9941 48.9861C58.0038 49.0295 58.0175 49.0752 58.0544 49.1048C58.109 49.1485 58.1922 49.1413 58.2648 49.1318C59.1475 49.0163 60.0398 48.9589 60.932 48.9602C61.0578 48.9604 61.0965 48.809 61.0951 48.6965C61.0931 48.5317 61.091 48.367 61.089 48.2022C61.0878 48.1068 61.0825 48.0018 61.0095 47.9323C60.9217 47.8487 60.775 47.8513 60.6471 47.8601C60.3516 47.8803 60.056 47.9004 59.7604 47.9206C59.6191 47.9303 59.244 48.0161 59.0717 48.0262C58.7716 48.069 58.4716 48.1118 58.1715 48.1546C58.1395 48.1591 58.1057 48.1644 58.0811 48.1832C58.0571 48.2015 58.0458 48.2295 58.0364 48.2564ZM61.994 48.9732C62.2286 48.9759 62.4634 48.9549 62.6928 48.9108C62.7474 48.9003 62.8048 48.887 62.8437 48.8512C62.9009 48.7987 62.9003 48.7163 62.8962 48.6432C62.884 48.4307 62.8719 48.2182 62.8598 48.0058C62.8554 47.93 62.8459 47.8446 62.7796 47.7972C62.7213 47.7555 62.639 47.758 62.5645 47.7625C62.3036 47.7784 62.0428 47.7942 61.782 47.8101C61.7407 47.8126 61.6973 47.8157 61.6628 47.8361C61.5996 47.8734 61.5901 47.9516 61.5884 48.0192C61.5826 48.2444 61.5928 48.4699 61.6192 48.694C61.6268 48.7588 61.6374 48.8271 61.6823 48.8785C61.7522 48.9586 61.8803 48.9719 61.994 48.9732Z" fill="#FFB61D"/>
<path fill-rule="evenodd" clip-rule="evenodd" d="M61.7301 43.3619C62.0788 43.227 62.5066 43.2722 62.8105 43.4759C63.1143 43.6796 63.2825 44.034 63.2352 44.3709C63.4489 44.2677 63.7198 44.166 63.9192 44.29C64.1443 44.4299 64.0928 44.7313 64.059 44.9745C63.9999 45.3994 64.0766 45.8387 64.2776 46.2273C64.3606 46.3879 64.4319 46.6315 64.2477 46.6962C64.2166 46.7072 64.1828 46.7097 64.1494 46.7121C61.99 46.8676 59.8305 47.0231 57.6711 47.1786C57.6118 47.1829 57.5455 47.1852 57.5007 47.1503C57.455 47.1147 57.4493 47.0542 57.4468 47.0001C57.4261 46.5462 57.4054 46.0923 57.3847 45.6384C57.3792 45.5166 57.3765 45.3853 57.4534 45.2847C57.5808 45.1182 57.8476 45.1187 58.0704 45.0868C58.2932 45.0549 58.5525 44.8869 58.4667 44.7004C58.3711 44.4924 58.697 44.3405 58.9457 44.3067C59.1944 44.2728 59.5244 44.1403 59.449 43.9258C59.3667 43.6915 59.7275 43.5461 60 43.5137C60.1922 43.4909 60.3933 43.4689 60.5756 43.5278C60.758 43.5868 60.9121 43.7545 60.871 43.9239C60.824 44.1178 61.0883 44.2984 61.2967 44.2299C61.505 44.1614 61.5894 43.907 61.484 43.7324C61.3978 43.5898 61.5637 43.4262 61.7301 43.3619ZM62.8452 46.353C62.7645 46.2192 62.7639 46.0599 62.7632 45.9078C62.7597 45.1939 62.7106 44.4802 62.6162 43.7713C62.6115 43.7355 62.6039 43.6955 62.5711 43.6745C62.5428 43.6565 62.5048 43.6586 62.4702 43.6615C62.3015 43.6756 62.1016 43.7089 62.035 43.8481C62.0065 43.9075 62.0099 43.9746 62.0137 44.0391C62.0565 44.7546 62.0993 45.4701 62.1421 46.1857C62.146 46.2523 62.156 46.3288 62.218 46.3661C62.2517 46.3863 62.2943 46.3901 62.3349 46.3921C62.5059 46.4005 62.6783 46.3873 62.8452 46.353ZM59.9407 45.2529C59.9198 45.3721 59.8904 45.4904 59.8826 45.6109C59.8695 45.8122 59.9169 46.0123 59.9641 46.2095C59.9944 46.3359 60.1772 46.3982 60.3113 46.3494C60.4453 46.3007 60.5262 46.1729 60.5485 46.0451C60.5708 45.9174 60.5447 45.7874 60.5219 45.6597C60.4324 45.1581 60.3936 44.6492 60.4063 44.1414C60.4095 44.0129 60.2692 43.8968 60.1261 43.9095C59.9829 43.9222 59.8709 44.0606 59.9023 44.186C59.9897 44.5353 60.0028 44.8993 59.9407 45.2529ZM61.361 44.5676C61.2768 44.4691 61.0838 44.5216 61.0181 44.6308C60.9524 44.7399 60.9725 44.8724 60.9888 44.9955C61.0313 45.317 61.0354 45.6426 61.0009 45.9649C60.9907 46.0599 60.9794 46.1637 61.0381 46.2434C61.1284 46.3661 61.3265 46.365 61.49 46.3501C61.5413 46.3455 61.6002 46.3366 61.626 46.2968C61.6439 46.269 61.6397 46.2346 61.6349 46.2028C61.5595 45.7028 61.4841 45.2027 61.4087 44.7026C61.4016 44.6553 61.3934 44.6056 61.361 44.5676ZM63.2315 44.7825C63.1681 44.8598 63.1547 44.9604 63.1492 45.0561C63.1303 45.3844 63.179 45.7124 63.2275 46.0382C63.2466 46.1665 63.3123 46.3315 63.4569 46.3228C63.6034 46.3139 63.6417 46.1387 63.6383 46.0075C63.6293 45.66 63.6202 45.3125 63.6112 44.965C63.6089 44.8737 63.5981 44.7678 63.5132 44.7168C63.4242 44.6633 63.295 44.7052 63.2315 44.7825ZM58.8051 44.7004C58.8051 44.7004 58.8695 45.1539 58.8919 45.385C58.9201 45.6751 58.956 45.9646 58.9996 46.2531C59.0059 46.295 59.0144 46.3404 59.049 46.3693C59.109 46.4193 59.3403 46.3861 59.383 46.3234C59.4256 46.2608 59.4232 46.1826 59.4195 46.1094C59.4077 45.8777 59.396 45.6461 59.3843 45.4145C59.3717 45.1662 59.3056 44.6308 59.3056 44.6308M57.9658 46.3425C57.9843 46.3945 58.0062 46.4488 58.0532 46.4836C58.1449 46.5514 58.2937 46.5095 58.366 46.4249C58.4383 46.3404 58.4546 46.2291 58.4684 46.1234C58.4854 45.9937 58.5018 45.859 58.4548 45.7354C58.4078 45.6117 58.2778 45.503 58.1322 45.5145C57.9984 45.525 57.8947 45.6343 57.8635 45.7511C57.8322 45.8679 57.8586 45.9904 57.8911 46.1069C57.9132 46.1861 57.9381 46.2647 57.9658 46.3425Z" fill="#E7EAEE"/>
<path fill-rule="evenodd" clip-rule="evenodd" d="M66.7198 27.7717C66.5455 28.0055 66.3565 28.2424 66.0867 28.3868C65.8169 28.5312 65.4444 28.5594 65.202 28.3804C64.9346 28.1829 64.9181 27.8268 64.9392 27.5174C64.9474 27.3982 64.9581 27.2781 64.9963 27.1637C65.0625 26.9654 65.2072 26.7961 65.3583 26.6391C65.5415 26.4487 65.7445 26.265 65.9986 26.1578C66.2528 26.0506 66.5686 26.0318 66.8068 26.1651C67.0919 26.3247 67.1974 26.6643 67.1434 26.961C67.0894 27.2577 66.9063 27.5215 66.7198 27.7717M66.1661 28.0191C66.386 27.8099 66.5746 27.5744 66.7252 27.3209C66.8244 27.1541 66.9088 26.9728 66.9048 26.7839C66.9008 26.5951 66.7894 26.3977 66.5931 26.3276C66.3375 26.2363 66.0568 26.3823 65.8431 26.5375C65.691 26.6479 65.5438 26.7691 65.4462 26.921C65.3845 27.017 65.3444 27.1227 65.3047 27.2276C65.2296 27.4261 65.1534 27.6329 65.182 27.8408C65.2106 28.0488 65.3771 28.2575 65.6103 28.2791C65.8262 28.299 66.0176 28.1605 66.1661 28.0191Z" fill="#FFB61D"/>
<path fill-rule="evenodd" clip-rule="evenodd" d="M21.8077 30.415C22.0809 30.6622 22.3063 30.9514 22.4713 31.266C22.637 31.5822 22.4699 31.9885 22.1446 32.1819C21.8193 32.3753 21.3795 32.3728 21.0228 32.2303C20.6662 32.0877 20.3859 31.8217 20.1794 31.5252C20.0238 31.3017 19.9031 31.0513 19.8902 30.7883C19.8773 30.5253 19.9856 30.2486 20.2184 30.0873C20.4539 29.9242 20.785 29.9009 21.0697 29.9791C21.3545 30.0574 21.5984 30.2255 21.8077 30.415M20.7421 30.2646C20.5057 30.2429 20.2958 30.4367 20.2553 30.6459C20.2147 30.8551 20.3039 31.0673 20.4194 31.2529C20.6698 31.6552 21.1166 32.0126 21.6312 31.9903C21.8957 31.9789 22.1856 31.8152 22.1809 31.5785C22.1789 31.4762 22.1224 31.3818 22.066 31.2928C21.9161 31.0562 21.7542 30.822 21.538 30.6307C21.3218 30.4394 21.0447 30.2925 20.7421 30.2646Z" fill="#FFB61D"/>
<path fill-rule="evenodd" clip-rule="evenodd" d="M42.4594 61.5387C42.6491 61.4099 42.885 61.3266 43.1228 61.3403C43.3606 61.354 43.5959 61.4759 43.6954 61.6694C43.8022 61.877 43.7356 62.135 43.5691 62.3084C43.4025 62.4818 43.1516 62.5776 42.8983 62.6092C42.7255 62.6308 42.5194 62.6114 42.4248 62.4803C42.3791 62.4171 42.3688 62.3393 42.3596 62.2644C42.3431 62.1302 42.3266 61.9959 42.3101 61.8616C42.3032 61.8047 42.2964 61.7457 42.3169 61.6915C42.341 61.6277 42.3994 61.5795 42.4594 61.5387M43.2099 61.925C43.2375 61.9061 43.2664 61.8856 43.2784 61.8564C43.3169 61.7629 43.1659 61.7008 43.0544 61.7031C42.8927 61.7063 42.6853 61.8037 42.7348 61.9413C42.7634 62.021 42.8732 62.0578 42.9654 62.0432C43.0575 62.0285 43.1357 61.976 43.2099 61.925H43.2099Z" fill="#00160A"/>
<path fill-rule="evenodd" clip-rule="evenodd" d="M69.3329 18.6066C70.8111 19.974 71.9778 21.6092 72.7416 23.3837C72.794 23.5056 72.8449 23.641 72.7949 23.7637C72.4096 24.7083 71.666 25.4958 70.9369 26.2616L69.5392 27.7295L69.5391 27.7296L69.539 27.7297L69.539 27.7297L69.5389 27.7298L69.5389 27.7299L69.5388 27.7299L69.5387 27.73L69.5387 27.73C69.0941 28.197 68.6494 28.664 68.1898 29.1192C65.8488 31.4378 63.0826 33.4652 59.879 34.7126C59.7581 34.7597 59.6284 34.8066 59.4982 34.7878C59.368 34.769 59.246 34.656 59.28 34.5422C59.6761 33.2191 60.0747 31.8358 59.7569 30.4959C59.6803 30.1727 59.5948 29.7658 59.8936 29.5714C62.3132 27.9969 64.0553 25.7464 65.7248 23.5264C66.1446 22.9682 66.5632 22.4085 66.9347 21.8236C67.5943 20.7851 68.1022 19.6698 68.4417 18.5149C68.4883 18.3564 68.7122 18.2851 68.8896 18.3266C69.0669 18.3681 69.2055 18.4887 69.3329 18.6066ZM68.2984 20.3047C68.1482 20.2492 68.0096 20.3994 67.9331 20.5275C67.8503 20.6663 67.7675 20.8052 67.6846 20.9443L67.6846 20.9443C66.1531 23.5151 64.598 26.1252 62.2641 28.1501C62.0436 28.3414 61.7972 28.5725 61.8378 28.8447C61.968 29.7174 61.4467 30.6389 60.5831 31.0626C60.191 31.2549 60.1956 31.7512 60.2531 32.1476C60.2761 32.3063 60.3431 32.5052 60.5216 32.5187C61.045 32.5581 61.5472 32.7883 61.8884 33.1452C61.996 33.2578 62.2 33.1874 62.3403 33.1086C65.8711 31.125 68.584 28.1952 71.2329 25.3165C71.3243 25.2172 71.4215 25.0921 71.3739 24.9708C70.973 23.9504 71.0373 22.7908 71.5489 21.8108C71.247 21.274 70.8872 20.7632 70.4761 20.2878C69.7921 20.5532 68.9875 20.5594 68.2984 20.3047ZM59.9237 34.1886C60.0629 34.2537 60.2315 34.1918 60.3708 34.1268C60.737 33.9559 61.0898 33.7621 61.4256 33.547C61.5143 33.4902 61.5407 33.3767 61.5093 33.2833C61.478 33.1898 61.3995 33.1145 61.3125 33.0555C61.041 32.8714 60.6615 32.823 60.3432 32.9318C60.2844 32.9519 60.226 32.9782 60.1854 33.0212C60.138 33.0717 60.1206 33.1388 60.1054 33.2033C60.0285 33.5291 59.9678 33.8579 59.9237 34.1886ZM69.839 19.6252C69.5991 19.206 69.2291 18.8471 68.7813 18.599C68.6255 18.7217 68.5952 18.9082 68.5643 19.0982V19.0983C68.5432 19.2287 68.5217 19.3609 68.4592 19.4753C68.4389 19.5125 68.414 19.5481 68.3892 19.5837L68.3892 19.5837L68.3892 19.5837L68.3892 19.5838C68.3419 19.6515 68.2948 19.7189 68.2796 19.7967C68.2565 19.9153 68.3689 20.0641 68.4962 20.0249C68.5998 19.993 68.7084 20.0135 68.8179 20.0341C68.8756 20.0451 68.9337 20.056 68.9914 20.0593C69.3276 20.0787 69.6067 19.8433 69.839 19.6252ZM71.7405 22.1378C71.4835 22.5946 71.5242 23.1341 71.5709 23.6437L71.6379 24.3745C71.6453 24.4549 71.6942 24.5634 71.7809 24.5411C71.8348 24.4065 71.9373 24.2954 72.0401 24.1841C72.13 24.0867 72.2201 23.9891 72.278 23.8752C72.4743 23.4898 72.2565 23.0456 72.0419 22.668L71.7405 22.1378ZM60.236 30.2491C60.2468 30.3921 60.4129 30.4991 60.5732 30.4951C60.7334 30.4911 60.8777 30.3984 60.9714 30.2821C61.065 30.1658 61.1164 30.0273 61.1664 29.8912L61.3317 29.4417C61.3777 29.3164 61.3806 29.1248 61.2339 29.11C61.181 29.1047 61.1304 29.1297 61.087 29.1573C60.9226 29.2618 60.8029 29.4118 60.6863 29.5589L60.3689 29.9596C60.3 30.0466 60.228 30.1429 60.236 30.2491ZM22.3736 29.0494C21.2583 27.2246 20.5463 25.2039 20.2905 23.1373C20.2748 23.0103 20.1179 22.9279 19.975 22.9324C19.832 22.9368 19.7021 23.0043 19.5805 23.0717C17.8542 24.0281 16.3846 25.3521 15.3283 26.9025C15.2214 27.0594 15.116 27.2261 15.1025 27.4094C15.0892 27.5893 15.1661 27.7639 15.2453 27.9297C16.4105 30.3693 18.3537 32.4385 20.3262 34.4206C21.8454 35.9472 23.4718 37.4925 25.5901 38.261C25.9324 38.3852 26.4297 38.4358 26.5749 38.1321C26.6171 38.0438 26.6148 37.9444 26.6127 37.8482L26.6126 37.8446C26.5892 36.8153 26.7201 35.7833 27.0007 34.7847C27.0656 34.5537 27.0993 34.2421 26.8575 34.142C25.948 33.7653 25.3246 33.0058 24.7417 32.277C23.904 31.2297 23.0641 30.1792 22.3736 29.0494ZM24.3424 37.0257C24.2171 37.0556 24.092 36.985 23.9874 36.9165C22.0594 35.6542 20.5654 33.9457 19.0974 32.2603L16.5069 29.2859C16.9442 29.037 16.9997 28.4963 17.0092 28.0331C17.0216 27.431 17.0307 26.8111 16.7873 26.2496C16.7332 26.1248 16.8036 25.9865 16.879 25.8708C17.2025 25.3749 17.651 24.9445 18.1817 24.621C18.2331 24.5897 18.2874 24.5586 18.349 24.5508C18.5115 24.5303 18.6362 24.6715 18.723 24.796C19.066 25.2874 19.5374 25.8433 20.184 25.8028C20.4302 25.7874 20.5667 26.0465 20.6385 26.2575C21.5317 28.8815 23.2086 31.2481 25.1752 33.3538C25.4308 33.6274 25.4949 33.9967 25.5584 34.3626C25.6293 34.7707 25.6994 35.1746 26.0335 35.437C26.3187 35.661 26.2657 36.0633 26.1888 36.3956C26.173 36.4636 26.1543 36.5365 26.0965 36.5829C26.0535 36.6173 25.9955 36.6317 25.9398 36.645L24.3424 37.0257ZM19.7718 25.195C19.4182 24.9742 19.1127 24.692 18.8774 24.3688C18.8265 24.2989 18.7771 24.2205 18.786 24.1375C18.7957 24.0472 18.8717 23.975 18.9473 23.9145C19.1341 23.7652 19.3451 23.6402 19.5717 23.5446C19.6547 23.5096 19.7619 23.4812 19.8308 23.5353C19.8714 23.5672 19.8842 23.6181 19.8948 23.6655L20.2215 25.1254C20.2408 25.2117 20.1395 25.2894 20.041 25.2919C19.9426 25.2944 19.8526 25.2454 19.7718 25.195ZM16.5392 28.0187C16.5323 28.2933 16.5088 28.6015 16.2785 28.7834C16.2303 28.7886 16.1983 28.7413 16.1794 28.7013C16.0135 28.3503 15.8453 27.9909 15.8191 27.6106C15.793 27.2302 15.9356 26.8184 16.2834 26.598C16.3305 26.5681 16.3995 26.5435 16.441 26.5793C16.4577 26.5937 16.4649 26.6145 16.471 26.6345C16.5655 26.9449 16.558 27.2719 16.5499 27.5935L16.5392 28.0187ZM25.9242 37.1529C25.9801 37.1938 25.986 37.2668 25.9875 37.3313L26.0041 38.0371C25.6801 37.8766 25.3697 37.6942 25.0764 37.4919C25.0208 37.4536 24.9597 37.3915 24.9937 37.3366C25.0106 37.3094 25.0457 37.2962 25.0784 37.2855C25.2881 37.2164 25.5049 37.1646 25.7251 37.1309C25.7932 37.1205 25.8708 37.1138 25.9242 37.1529ZM25.9429 34.3726C25.9399 34.3407 25.9399 34.306 25.9611 34.2802C26.0171 34.2123 26.1385 34.2738 26.1898 34.3446C26.3135 34.5152 26.3407 34.7386 26.2612 34.929C26.0797 34.79 25.9627 34.5855 25.9429 34.3726ZM74.2058 29.013C74.5288 28.6496 75.1175 28.5973 75.6366 28.6086C75.7579 28.6113 75.8828 28.6165 75.9932 28.6615C76.3004 28.7866 76.3655 29.1452 76.3759 29.4467C76.3854 29.7211 76.3836 29.999 76.309 30.2652C76.2344 30.5315 76.0801 30.788 75.8333 30.9514C75.7224 31.0248 75.5937 31.0783 75.4576 31.0987C75.2472 31.1302 75.0318 31.0819 74.8319 31.0154C74.5654 30.9268 74.3128 30.8051 74.0834 30.6549C73.9714 30.5816 73.8557 30.4855 73.852 30.3614C73.8437 30.0753 73.8796 29.7882 73.9583 29.5107C74.0086 29.3334 74.0785 29.1563 74.2058 29.013ZM75.0433 30.8232C75.4579 30.9295 75.899 30.6429 76.0561 30.2838C76.2132 29.9248 76.1551 29.5216 76.0687 29.1439C76.0355 28.9989 75.8622 28.9179 75.7023 28.8791C75.4549 28.8191 75.1918 28.8111 74.9403 28.8561C74.8154 28.8784 74.6878 28.9166 74.6001 28.9992C74.5523 29.0442 74.5193 29.0998 74.4868 29.1547L74.2439 29.5649C74.2012 29.6371 74.1582 29.7099 74.133 29.7884C74.0579 30.0231 74.1572 30.2838 74.3406 30.4647C74.5241 30.6457 74.7807 30.7558 75.0433 30.8232ZM69.4936 34.9714C69.8739 35.09 70.2185 35.2985 70.4829 35.57C70.7101 35.8033 70.8832 36.1062 70.8354 36.4126C70.8179 36.5251 70.7715 36.6323 70.7185 36.7355C70.518 37.1265 70.173 37.5011 69.6992 37.5769C69.4507 37.6166 69.1945 37.569 68.9555 37.4963C68.679 37.4123 68.4155 37.2944 68.1745 37.147C68.0467 37.0689 67.9198 36.9761 67.8637 36.847C67.8251 36.7581 67.8239 36.6602 67.8254 36.5648C67.829 36.3289 67.8465 36.089 67.9385 35.8679C68.055 35.5881 68.2828 35.3572 68.5244 35.1511C68.6216 35.0682 68.7246 34.9865 68.8494 34.9421C69.0536 34.8694 69.2861 34.9067 69.4936 34.9714ZM69.8824 37.0275C70.1572 36.7846 70.3171 36.4323 70.2735 36.0891C70.23 35.7458 69.97 35.4237 69.6064 35.3065C69.4553 35.2578 69.2877 35.2442 69.1329 35.2825C69.0494 35.3032 68.971 35.3383 68.8979 35.3799C68.5849 35.5578 68.3651 35.8612 68.3118 36.1893C68.2584 36.5173 68.3724 36.8641 68.6158 37.1143C68.7716 37.2745 69.026 37.3431 69.2616 37.3165C69.4973 37.2899 69.7135 37.1768 69.8824 37.0275ZM35.179 32.9479C35.1662 32.786 34.9241 32.7436 34.7426 32.7484C33.7898 32.7734 32.8382 32.8372 31.8919 32.9395C31.7364 32.9563 31.7238 33.1803 31.8486 33.2649C31.9733 33.3495 32.1471 33.3338 32.3021 33.314L35.179 32.9479ZM32.133 34.0423C32.1412 33.959 32.2585 33.9288 32.3515 33.9194L37.9637 33.3515C38.0652 33.3412 38.1733 33.3319 38.2646 33.3727C38.356 33.4136 38.4149 33.5253 38.3552 33.5994C38.3112 33.654 38.2269 33.6651 38.152 33.6716L32.4117 34.1694C32.2924 34.1798 32.1226 34.1491 32.133 34.0423ZM44.7147 34.8871C44.4007 34.9487 44.0784 34.8475 43.7773 34.7469C42.8036 34.4217 41.8337 34.0876 40.8677 33.7445C40.4778 33.606 40.0499 33.8134 39.6992 34.0193C38.6843 34.6151 37.7071 35.2622 36.774 35.9566C36.5343 36.135 36.1655 36.0098 35.9238 35.8337C35.873 35.7967 35.823 35.7572 35.7729 35.7176L35.7726 35.7174L35.7722 35.7171L35.7722 35.717L35.7721 35.717L35.772 35.7169L35.772 35.7169L35.7719 35.7169L35.7718 35.7168C35.5836 35.5681 35.3929 35.4175 35.1493 35.3866C34.775 35.3392 34.4456 35.5928 34.1744 35.8282L32.4251 37.3463C32.1898 37.5505 31.9422 37.8775 32.1516 38.103C32.2897 38.2518 32.5434 38.2443 32.7583 38.222C33.8805 38.1057 34.9973 37.9427 36.1136 37.7798C37.9586 37.5105 39.8025 37.2413 41.6686 37.1836C42.0821 37.1708 42.4958 37.1685 42.9095 37.1661H42.9097C43.1688 37.1647 43.4279 37.1632 43.687 37.1592C44.8554 37.141 46.0229 37.0706 47.1835 36.9484C47.2396 36.9425 47.3036 36.9322 47.3327 36.8889C47.3547 36.8562 47.3492 36.815 47.343 36.7772L46.8513 33.7881C46.8264 33.6362 46.7827 33.4607 46.6274 33.3951C46.4705 33.3288 46.2856 33.4143 46.1568 33.5182C45.9552 33.6809 45.8 33.897 45.6468 34.1101C45.3956 34.4598 45.1499 34.8016 44.7147 34.8871ZM36.7312 36.5227C37.7811 35.7512 38.8759 35.0285 40.0096 34.3584C40.2424 34.2208 40.5254 34.0799 40.7856 34.1703L43.5346 35.1249C43.9935 35.2842 44.4953 35.4456 44.9663 35.3179C45.5139 35.1694 45.8412 34.6825 46.1169 34.2345C46.1705 34.1473 46.3266 34.1573 46.4038 34.2289C46.4811 34.3005 46.5006 34.4059 46.5165 34.5043L46.7177 35.7509C46.7486 35.9423 46.779 36.1409 46.7171 36.3262C46.6552 36.5115 46.4733 36.6798 46.257 36.6761C42.7183 36.615 39.1727 36.8758 35.6928 37.453C35.585 37.4709 35.4772 37.4891 35.3693 37.5073C34.538 37.6475 33.7036 37.7883 32.8588 37.7908C33.2667 37.2745 33.7836 36.8359 34.297 36.401C34.5788 36.1623 34.9312 35.9047 35.3096 35.9828C35.514 36.025 35.6707 36.1562 35.8266 36.2867C35.8766 36.3286 35.9265 36.3704 35.9779 36.4092C36.1895 36.5688 36.5172 36.6798 36.7312 36.5227ZM82.1298 45.2181C82.0359 45.2494 81.9312 45.228 81.8356 45.2012C81.1885 45.0194 80.663 44.6129 80.1465 44.2133C80.0766 44.1592 80.0068 44.1052 79.9369 44.052C79.0811 43.3996 78.1524 42.8238 77.169 42.3358C77.069 42.2861 76.9641 42.2338 76.9028 42.1475C76.8415 42.0611 76.8433 41.9296 76.9378 41.8719C77.3788 41.6029 77.6648 41.1412 77.6858 40.6645C77.6913 40.5374 77.852 40.4527 77.9938 40.4629C78.1357 40.4731 78.2593 40.5492 78.3753 40.6228L82.8687 43.4731C82.9562 43.5286 83.0503 43.5929 83.0718 43.6869C83.0893 43.7635 83.0533 43.8411 83.0172 43.9123C82.8234 44.2944 82.6005 44.6648 82.3506 45.0199C82.294 45.1004 82.2294 45.185 82.1298 45.2181ZM77.6346 41.8369C77.5817 41.9201 77.536 42.0405 77.6216 42.0981L81.2883 44.5652C81.4891 44.7003 81.8011 44.827 81.9593 44.6523C82.1408 44.4518 82.3104 44.2427 82.4671 44.026C82.5099 43.9667 82.5536 43.899 82.5382 43.8298C82.5241 43.7666 82.4646 43.7207 82.4086 43.6802C81.063 42.7051 79.6382 41.8173 78.1492 41.0259L77.6346 41.8369ZM75.8098 43.3456C75.869 43.2548 75.9408 43.1555 76.0557 43.1332C76.1436 43.1162 76.233 43.1498 76.314 43.185C76.7555 43.3766 77.1598 43.6363 77.5038 43.9491C77.5866 44.0244 77.5969 44.1456 77.5601 44.2458C77.5232 44.3461 77.4473 44.4305 77.3728 44.5124C77.2532 44.6441 77.1257 44.7811 76.9492 44.8436C76.7588 44.9111 76.5372 44.8785 76.3567 44.7917C76.1763 44.7049 76.0316 44.5691 75.904 44.4259C75.7375 44.239 75.5885 44.0149 75.6143 43.7772C75.6313 43.6215 75.7215 43.4808 75.8098 43.3456ZM76.582 44.3917C76.8596 44.4882 77.0373 44.4117 77.0446 44.249C77.0492 44.1463 76.9489 44.0672 76.8578 44.0046L76.582 43.815C76.4908 43.7523 76.3903 43.6867 76.2753 43.6874C76.1603 43.688 76.0433 43.794 76.0903 43.8877C76.0832 43.933 76.3043 44.2952 76.582 44.3917ZM75.4859 46.3949C75.5537 46.4281 75.6254 46.4605 75.7026 46.4619C75.7798 46.4634 75.8635 46.4243 75.8824 46.3575C75.9269 46.2005 76.0432 46.0703 76.1569 45.943L76.194 45.9013C76.3186 45.7603 76.4389 45.6007 76.4422 45.4211C76.4456 45.2415 76.2791 45.0501 76.08 45.0746C75.9231 45.0939 75.7772 45.002 75.6632 44.9037L75.6349 44.8789L75.609 44.8558C75.5136 44.7708 75.4167 44.6845 75.2901 44.6476C75.1395 44.6038 74.9344 44.6735 74.9225 44.8146C74.8985 45.0989 74.6341 45.3128 74.3889 45.4951C74.3155 45.5497 74.3818 45.6544 74.4505 45.7137C74.7596 45.9807 75.1088 46.2105 75.4859 46.3949ZM75.5349 45.8533L75.052 45.5613C74.9292 45.4871 74.9391 45.3052 75.0485 45.2159C75.158 45.1266 75.3282 45.1197 75.4677 45.1644C75.6073 45.2092 75.7234 45.2969 75.8362 45.3829C75.9108 45.4398 75.9211 45.5435 75.8869 45.6257C75.8528 45.7079 75.7833 45.7737 75.7155 45.8372C75.6923 45.8589 75.6664 45.8819 75.6331 45.8857C75.5977 45.8898 75.5645 45.8711 75.5349 45.8533ZM79.3636 45.8726L79.5997 45.4242C79.672 45.2869 79.7421 45.117 79.6445 44.9929C79.6106 44.9498 79.5606 44.9194 79.5117 44.89L78.6526 44.3726C78.56 44.3168 78.4595 44.2588 78.3478 44.2604C78.2154 44.2622 78.1045 44.3467 78.0104 44.43C77.8696 44.5547 77.738 44.6877 77.6166 44.8279C77.5242 44.9345 77.4484 45.1101 77.5746 45.184L78.8893 45.9548C78.993 46.0157 79.1247 46.0782 79.2337 46.0252C79.2977 45.9941 79.3326 45.9315 79.3636 45.8726ZM79.0723 45.5552C79.017 45.5665 78.9594 45.554 78.9052 45.5394C78.5733 45.45 78.2695 45.2788 78.0361 45.0498C77.9585 44.9736 78.0024 44.839 78.101 44.7856C78.1996 44.7322 78.3278 44.7445 78.4341 44.7844C78.5028 44.8101 78.5656 44.846 78.6285 44.8819L78.6285 44.882C78.663 44.9017 78.6975 44.9214 78.733 44.9394C78.7711 44.9588 78.8109 44.9767 78.8508 44.9945C78.9637 45.0451 79.0769 45.0958 79.1539 45.1833C79.2581 45.3017 79.2366 45.5214 79.0723 45.5552ZM79.5163 46.056C79.6678 46.0238 79.7141 45.8857 79.7622 45.7422C79.802 45.6237 79.843 45.5014 79.9457 45.432C80.1224 45.3126 80.3728 45.4124 80.5632 45.5136L81.1688 45.8356C81.2653 45.8869 81.3641 45.94 81.4333 46.019C81.5026 46.098 81.5365 46.2099 81.4881 46.3005C81.4558 46.3609 81.3947 46.401 81.3332 46.4414C81.2827 46.4745 81.2319 46.5078 81.1965 46.5527C81.151 46.6103 81.134 46.6826 81.1173 46.754C81.0963 46.8436 81.0756 46.9318 80.9991 46.9881C80.8597 47.0908 80.6524 47.0085 80.4983 46.9244L79.6451 46.4584C79.559 46.4114 79.4682 46.3599 79.426 46.278C79.3837 46.1962 79.4182 46.0768 79.5163 46.056ZM80.6348 46.5186C80.757 46.4813 80.8552 46.4004 80.9495 46.3216C81.0178 46.2644 80.9264 46.1704 80.8449 46.1294L80.3221 45.8664C80.2676 45.8389 80.1917 45.8139 80.1495 45.8551C80.0133 45.9879 79.9935 46.2046 80.1038 46.3553C80.2141 46.5061 80.4441 46.5768 80.6348 46.5186ZM74.6372 46.5023C74.5202 46.4728 74.4011 46.4428 74.3055 46.3845C74.1571 46.2941 73.9504 46.316 73.7947 46.396C73.6389 46.4759 73.5228 46.6041 73.4103 46.7293C73.348 46.7988 73.2839 46.8713 73.26 46.9578C73.2362 47.0443 73.2646 47.1491 73.3517 47.1925L74.2633 47.6465C74.3323 47.6809 74.4094 47.7164 74.4865 47.7012C74.5634 47.6859 74.6164 47.6249 74.6626 47.568L74.8972 47.2797C75.0277 47.1191 75.1641 46.9146 75.0687 46.7354C74.9921 46.5917 74.8172 46.5477 74.6372 46.5023ZM74.3488 47.2493C74.3011 47.2606 74.2521 47.24 74.2081 47.22L73.5871 46.9376C73.7065 46.7866 73.9336 46.7287 74.1395 46.747C74.3454 46.7652 74.5366 46.847 74.7228 46.9276L74.4374 47.1924C74.4118 47.2161 74.3844 47.2409 74.3488 47.2493ZM70.0464 35.9561C70.1425 36.0871 70.1124 36.2622 70.0486 36.4081C69.9646 36.6004 69.8225 36.7787 69.6218 36.881C69.4211 36.9833 69.1575 36.9982 68.9619 36.8883C68.7663 36.7783 68.6681 36.5338 68.7729 36.3497C68.7972 36.3072 68.8302 36.2695 68.8633 36.2318C68.8949 36.1957 68.9266 36.1596 68.9505 36.1192C68.9663 36.0926 68.9786 36.0644 68.9908 36.0362C69.0085 35.9956 69.0261 35.9551 69.0541 35.9197C69.1537 35.7937 69.3498 35.769 69.5223 35.7711C69.7181 35.7736 69.939 35.8098 70.0464 35.9561ZM69.6095 36.0393C69.3417 36.0363 69.0905 36.2369 69.064 36.4751C69.0532 36.5724 69.0994 36.6934 69.2078 36.7068C69.289 36.7168 69.3603 36.6607 69.4149 36.6061C69.5304 36.4904 69.6296 36.3617 69.7094 36.2241C69.7362 36.1779 69.7598 36.1186 69.7246 36.0772C69.699 36.047 69.6519 36.0398 69.6095 36.0393ZM76.014 29.7982C75.9934 29.579 75.8293 29.3635 75.591 29.3087C75.2884 29.2389 74.995 29.4294 74.7547 29.608C74.6837 29.6609 74.6094 29.7177 74.5793 29.7958C74.5282 29.9284 74.6201 30.068 74.7106 30.1826C74.8143 30.3137 74.925 30.4455 75.0762 30.5322C75.2275 30.6189 75.4291 30.6526 75.5878 30.5772C75.6687 30.5388 75.7316 30.4761 75.7863 30.4105C75.9332 30.2341 76.0346 30.0173 76.014 29.7982ZM75.3428 30.3599C75.2402 30.3737 75.1338 30.3367 75.0583 30.2731C74.9452 30.1779 74.9003 30.0249 74.9398 29.8906C74.9814 29.7492 75.1143 29.6324 75.2732 29.5975C75.432 29.5627 75.6103 29.6112 75.7205 29.7192C75.7163 29.7487 75.7129 29.7783 75.7095 29.808L75.7095 29.808C75.6978 29.9088 75.686 30.0097 75.647 30.1043C75.5965 30.2268 75.4873 30.3406 75.3428 30.3599ZM67.1956 64.5386C67.7536 62.7744 68.8072 61.1732 69.85 59.5944C70.0263 59.3275 70.2447 59.0336 70.5869 58.9829C70.7218 58.963 70.7929 58.832 70.8388 58.7169C71.4043 57.2993 71.4589 55.7228 70.9923 54.2767C70.8592 53.8639 71.0231 53.4263 71.1853 53.0219L72.4412 49.8911C72.3107 49.6892 72.0637 49.6005 71.8135 49.5107C71.6041 49.4355 71.3926 49.3595 71.245 49.2158C70.8281 48.8098 71.1425 48.1641 71.4692 47.6967L77.1937 39.5043C77.4275 39.1698 77.9405 39.0649 78.3704 39.154C78.8004 39.2432 79.1676 39.485 79.5213 39.721L83.6963 42.5077C84.4432 43.0062 85.2678 43.6431 85.2248 44.4753C85.201 44.9358 84.9061 45.3451 84.6208 45.7292L81.312 50.1847C80.8842 50.7609 80.8323 51.4613 80.7801 52.1649V52.165C80.7566 52.4832 80.7329 52.8021 80.6744 53.1104C80.3891 54.6147 79.2681 55.8605 78.194 57.0541L78.0657 57.1967C76.9541 58.4339 75.8418 59.8155 75.7793 61.4011C75.7049 63.2911 74.7001 65.1369 73.0823 66.3559L74.4901 63.3039C74.8249 62.5781 75.1349 61.675 74.5746 61.0704C74.3211 60.7968 73.938 60.6521 73.5702 60.5172L71.3837 59.7155C71.2329 59.6603 71.0775 59.6041 70.9146 59.6032C70.4066 59.6005 70.1045 60.0928 69.8985 60.5077C69.186 61.9431 68.276 63.3002 67.1956 64.5386ZM74.3852 60.3935C74.7601 60.5175 75.2879 60.5928 75.4656 60.2728C76.3254 58.724 77.2088 57.1453 78.5775 55.9232C79.3663 55.2188 79.8499 54.2789 80.1235 53.3129C80.397 52.3468 80.4745 51.3463 80.5509 50.3521C80.2187 50.4601 80.1899 50.8606 80.1913 51.1765C80.1944 51.8727 80.0582 52.5693 79.791 53.2234C79.7351 53.3603 79.66 53.5082 79.5103 53.566C79.3605 53.6237 79.14 53.5077 79.1903 53.3691C79.5765 52.3052 79.7205 51.1715 79.6108 50.0573C79.5768 49.7119 79.5048 49.3423 79.2299 49.0975C79.2598 49.6429 79.2896 50.1909 79.2277 50.7342C79.1207 51.6742 78.7435 52.5704 78.3697 53.4542C78.3212 53.569 78.2625 53.6941 78.1392 53.748C78.0159 53.8019 77.8245 53.7165 77.8568 53.5972L78.4165 51.5292C78.7243 50.3922 79.027 49.1691 78.5506 48.0795C78.3106 48.0651 78.254 48.3717 78.2755 48.5858C78.4223 50.0522 77.9686 51.5076 77.5195 52.924C77.467 53.0894 77.2815 53.2962 77.1373 53.1824C77.0751 53.1334 77.0723 53.0489 77.0773 52.9749C77.1056 52.5583 77.2334 52.1551 77.361 51.7523C77.4007 51.6273 77.4403 51.5023 77.4769 51.377C77.8143 50.2218 77.9004 49.0084 77.7289 47.8244C77.4332 48.1631 77.3077 48.5927 77.1893 49.0091L76.4867 51.4807C76.169 52.598 75.7631 53.8263 74.6618 54.4265C74.574 54.4743 74.4723 54.5187 74.3723 54.4975C74.2481 54.4712 74.1777 54.3565 74.1258 54.2522C73.4229 52.8373 73.3351 51.1867 73.8847 49.7186C73.918 49.6295 73.8166 49.5364 73.7118 49.529C73.607 49.5216 73.5089 49.5727 73.423 49.6268C72.5212 50.1955 72.1757 51.2255 71.8889 52.1779L71.5075 53.4442C71.4517 53.6292 71.3957 53.8159 71.3841 54.0071C71.3664 54.2978 71.4514 54.5823 71.5359 54.8652C71.5555 54.9307 71.575 54.9962 71.5933 55.0617C71.9601 56.3773 71.7944 57.8063 71.1334 59.0267C71.0359 59.2067 71.2932 59.3704 71.503 59.4398L74.3852 60.3935ZM75.8099 48.3076C75.6596 48.2151 75.4985 48.1094 75.452 47.9516C75.3807 47.7097 75.6386 47.4666 75.9162 47.434C76.1938 47.4015 76.4654 47.5213 76.6955 47.6639C77.0196 47.8647 77.4298 47.5584 77.6724 47.2806C77.345 47.1055 77.0328 46.8339 77.0199 46.4933C77.007 46.1526 77.4705 45.8281 77.7789 46.0286C77.8986 46.1064 78.0434 46.154 78.1867 46.2011C78.4012 46.2716 78.6121 46.341 78.7298 46.5089C78.8636 46.6999 78.8161 46.958 78.6798 47.1476C78.5436 47.3372 78.3339 47.4733 78.1291 47.6048C78.423 47.6309 78.7091 47.7245 78.9523 47.8743L79.2174 47.1841C79.2379 47.1306 79.2602 47.0746 79.3074 47.0368C79.3982 46.964 79.5396 46.9865 79.6559 47.0195C79.9611 47.106 80.2604 47.2412 80.4618 47.4636C80.6632 47.686 80.7472 48.0091 80.6064 48.2661C80.4657 48.5231 80.0684 48.6601 79.7993 48.5051C79.7434 48.473 79.6873 48.43 79.6312 48.3871C79.4812 48.2722 79.3311 48.1573 79.1863 48.2492C79.6286 48.557 79.9323 49.0193 80.0175 49.5143C81.4097 47.6193 82.787 45.7155 84.1491 43.8031C84.2792 43.6206 84.384 43.3329 84.1723 43.2279C83.2677 42.7794 82.4681 42.1789 81.6705 41.5797L81.6704 41.5797C80.6635 40.8233 79.6597 40.0693 78.4515 39.6265C78.3749 39.5984 78.291 39.5712 78.2109 39.5901C78.1269 39.6099 78.0678 39.6752 78.0149 39.7368C75.7651 42.3609 73.7459 45.1429 71.9822 48.0487C71.7361 48.4541 72.0654 48.9373 72.3805 49.3026C72.5379 49.4851 72.8418 49.6779 73.0134 49.5059C73.2298 49.2892 73.5845 49.1654 73.8909 49.2621C74.1973 49.3589 74.388 49.715 74.2214 49.9643C74.1008 50.1447 74.3368 50.3451 74.5429 50.446C74.9548 50.6477 75.3774 50.832 75.8086 50.9981C75.8686 51.0212 75.9384 51.0439 75.9967 51.0177C76.0523 50.9928 76.0749 50.9337 76.0922 50.8803L76.57 49.4113C76.6486 49.1697 76.7012 48.8561 76.4693 48.7134L75.8099 48.3076ZM84.3566 44.1896C84.2932 44.1701 84.2353 44.2269 84.198 44.2767L80.6207 49.0619C80.5244 49.1907 80.4259 49.3246 80.3978 49.4773C80.3697 49.6301 80.4325 49.8077 80.5881 49.8757C80.8457 49.9883 81.1153 49.7517 81.2806 49.5422L84.6044 45.3327C84.8511 45.0201 84.6423 44.5928 84.4311 44.2601C84.4128 44.2313 84.3916 44.2003 84.3566 44.1896ZM74.2847 50.5796C74.2217 50.5386 74.1275 50.563 74.0748 50.6143C74.0221 50.6655 74.0005 50.7357 73.9807 50.803C73.9318 50.9687 73.8827 51.1361 73.8754 51.3073C73.8682 51.4785 73.903 51.6487 73.9377 51.8173L74.2802 53.4813C74.2946 53.551 74.3114 53.6252 74.3668 53.676C74.4221 53.7268 74.53 53.7379 74.5748 53.6793C75.0819 53.0167 75.596 52.3411 75.8613 51.5741C75.8942 51.4788 75.9038 51.3447 75.7993 51.3096C75.2608 51.1285 74.7498 50.8822 74.2847 50.5796ZM78.2408 46.4739C78.0691 46.3277 77.8421 46.2344 77.6062 46.2129C77.3911 46.1932 77.267 46.4632 77.3652 46.6353C77.4634 46.8074 77.6803 46.8927 77.8809 46.9646C78.0226 47.0153 78.1944 47.0631 78.3179 46.983C78.4953 46.8679 78.3996 46.609 78.2408 46.4739ZM76.8285 48.4021C76.8985 48.3576 76.9076 48.2666 76.888 48.1919C76.8141 47.9102 76.4685 47.7663 76.1582 47.6838C76.0382 47.6519 75.8889 47.6297 75.8043 47.7122C75.7337 47.7811 75.7487 47.8951 75.8096 47.9711C75.8706 48.047 75.9659 48.0938 76.0579 48.1381L76.5372 48.3688C76.6283 48.4127 76.7441 48.4557 76.8285 48.4021ZM79.5555 47.387C79.454 47.5084 79.4644 47.6849 79.549 47.8162C79.6337 47.9475 79.7803 48.0387 79.935 48.1008C79.988 48.1221 80.0462 48.1408 80.1032 48.1306C80.1523 48.1219 80.1943 48.0923 80.2242 48.0566C80.335 47.9244 80.2812 47.7252 80.1544 47.6052C80.0275 47.4851 79.847 47.4249 79.6733 47.3686C79.6433 47.3589 79.6084 47.3495 79.5811 47.3642C79.5707 47.3698 79.5628 47.3783 79.5555 47.387ZM31.4892 58.3927C31.5556 57.9545 31.6486 57.4722 32.0339 57.1947C32.3411 56.9734 32.7629 56.9381 33.1574 56.9313C34.4499 56.9091 35.7466 57.0967 36.9652 57.4821C37.3507 57.604 37.7542 57.7646 37.965 58.0778C38.1932 58.4168 38.1375 58.8444 38.0745 59.236L37.0957 65.3122C37.7706 63.5525 38.2551 61.7346 38.5403 59.892C38.6734 59.0323 38.7198 58.0459 38.0484 57.4189C37.0003 56.4401 37.0289 55.0459 37.058 53.6283C37.0831 52.4048 37.1085 51.1639 36.4425 50.1575C36.2252 49.8291 36.7097 49.4902 37.1126 49.3641C38.8886 48.8084 40.7818 48.5534 42.6622 48.6167C43.0069 51.0503 43.1002 53.5122 42.9404 55.961C42.9046 56.5102 43.7762 56.6519 44.3881 56.5913L65.6149 54.4879C65.721 54.4774 65.836 54.4633 65.9113 54.3956C65.9992 54.3165 66.0035 54.1922 66.0023 54.0808C65.9522 49.6365 65.8091 45.193 65.573 40.7534C65.5638 40.5801 65.5391 40.3812 65.3786 40.2836C65.2582 40.2105 65.0999 40.2202 64.955 40.2327L49.8042 41.5452C50.7995 37.3503 51.8005 33.0767 51.3465 28.8077C48.0344 30.7811 43.7606 30.7663 39.7868 30.5573C39.6216 30.5486 39.4561 30.5398 39.2903 30.5309C35.4661 30.3267 31.478 30.1137 28.04 31.592C29.8402 35.8571 31.6609 40.5126 30.1646 44.8705C30.0322 45.256 29.8747 45.6347 29.7172 46.0133C29.4745 46.5969 29.2319 47.1802 29.0819 47.7873C28.8346 48.7883 28.8718 49.909 29.5346 50.7456C30.4946 51.957 31.2574 53.3344 31.4313 54.8105C31.5964 56.2114 31.2275 57.6007 30.859 58.9884C30.474 60.4384 30.0894 61.8866 30.315 63.3445C30.3531 63.5911 30.422 63.8564 30.6381 64.0136L31.4892 58.3927ZM32.9911 40.7896C33.3925 40.8023 33.552 41.2526 33.6034 41.6086L34.0098 44.4276C33.2162 44.0599 32.0999 44.6839 32.1227 45.4825C31.454 44.3291 31.3524 43.0073 31.2519 41.6989C31.23 41.4143 31.2081 41.1302 31.1805 40.8487C30.8853 37.8385 29.8701 34.9268 28.8611 32.0427C28.7173 31.6314 29.3387 31.3647 29.8158 31.3022C32.9465 30.892 36.1151 30.9487 39.2852 31.0053C40.7221 31.031 42.1593 31.0567 43.5934 31.0389C46.1416 31.0073 48.838 30.7918 50.905 29.4597C51.3696 32.2275 50.7382 35.0199 50.1147 37.7772C50.0303 38.1502 49.9461 38.5225 49.8648 38.894C49.1823 42.0122 48.7178 45.336 50.0236 48.2913C50.0786 48.4158 49.891 48.5097 49.7444 48.537C48.6704 48.7372 47.56 48.7803 46.4707 48.6641C46.0034 48.6143 45.541 48.5355 45.0786 48.4568C44.7303 48.3974 44.382 48.3381 44.0315 48.2911C41.3929 47.9373 38.6388 48.3045 36.2307 49.3312C36.1342 49.3724 36.0194 49.3531 35.9183 49.3218C35.4306 49.171 35.0827 48.7683 34.9091 48.334C34.7356 47.8997 34.7107 47.4309 34.6875 46.9702L34.5904 45.0379C34.5869 44.9684 34.6073 44.8742 34.685 44.872C38.9034 44.7542 43.117 44.5001 47.3148 44.1103C47.1373 43.2227 47.1197 42.3098 47.2629 41.4173C47.3533 40.8539 46.7603 40.3402 46.129 40.2648C45.4977 40.1894 44.8733 40.445 44.3492 40.7683C44.153 40.8892 43.9647 41.0206 43.7765 41.1519C43.4617 41.3716 43.1471 41.591 42.7969 41.7611C42.5676 41.8724 42.2919 41.9622 42.0512 41.8723C41.7566 41.7623 41.6578 41.4491 41.5696 41.1695C41.5641 41.1519 41.5586 41.1345 41.5531 41.1172C41.4382 40.7572 41.2485 40.3988 40.9148 40.1724C40.5811 39.9459 40.0776 39.8895 39.7482 40.121C39.4666 40.3188 39.3776 40.6615 39.3304 40.9789C39.3262 41.0071 39.3222 41.0355 39.3181 41.0639C39.2763 41.3557 39.233 41.6573 39.0382 41.8912C38.8243 42.148 38.347 42.2581 38.1125 42.0162C37.6485 41.5377 36.8345 41.4373 36.1514 41.6052C35.4683 41.7732 34.8838 42.161 34.3171 42.5409C33.9752 42.0628 33.9469 41.419 34.2458 40.9184L34.2508 40.91C34.307 40.8161 34.3715 40.7082 34.3219 40.6124C34.2911 40.5531 34.2232 40.5168 34.156 40.491C33.7541 40.337 33.2405 40.4686 32.9911 40.7896ZM45.0695 48.8701C45.2942 48.9101 45.5705 48.9997 45.5844 49.2041C45.7169 51.1535 47.4506 52.9054 49.5822 53.3369C51.7137 53.7683 54.0761 52.8958 55.3189 51.2893C56.5618 49.6828 56.6591 47.451 55.64 45.7233C54.547 43.8704 51.8909 42.8865 49.6515 43.5048C49.5476 43.0954 49.5593 42.6629 49.6852 42.2585C49.7086 42.1833 49.7391 42.1048 49.8069 42.0558C49.8732 42.0079 49.9628 41.997 50.0474 41.9879L56.3557 41.3089C56.9103 41.2492 57.4663 41.1894 58.0249 41.1853C60.427 41.1676 62.8273 40.9536 65.1859 40.5467C65.5524 44.9445 65.7249 49.3552 65.7028 53.7651C65.7017 53.9743 65.6304 54.2523 65.3964 54.2584C61.4263 54.3617 57.4874 54.8284 53.547 55.2953C50.8996 55.6089 48.2515 55.9227 45.5927 56.1264C45.0001 56.1718 44.4035 56.2117 43.8114 56.1613C43.704 56.1521 43.583 56.1326 43.5247 56.0515C43.4895 56.0027 43.4855 55.9415 43.4826 55.8835L43.1286 48.8299C43.124 48.7388 43.1302 48.6289 43.2185 48.5831C43.277 48.5528 43.3503 48.5637 43.4167 48.5755L45.0695 48.8701ZM34.2076 47.2371C34.1449 47.6034 34.0743 48.0156 34.3429 48.2927C35.3447 49.3266 36.3854 50.4312 36.6517 51.778C36.776 52.4068 36.7226 53.0541 36.6694 53.6987C36.6024 54.5107 36.5357 55.3185 36.8251 56.0802C36.8326 56.1001 36.8404 56.12 36.8482 56.14C36.9014 56.2758 36.9556 56.4142 36.9384 56.556C36.9186 56.7186 36.7606 56.8822 36.5803 56.8544L34.486 56.5316C33.7924 56.4247 33.0597 56.3207 32.4009 56.542C32.2735 56.5847 32.1269 56.5097 32.0587 56.4045C31.9904 56.2993 31.9814 56.1726 31.9755 56.0512C31.9684 55.9045 31.963 55.7568 31.9576 55.6087C31.9238 54.677 31.8893 53.7279 31.4068 52.9116L29.867 50.307C29.6398 49.9225 29.4071 49.5208 29.3915 49.0862C29.381 48.796 29.4687 48.5109 29.5556 48.2311L30.3237 45.7586C30.4854 45.2381 30.6565 44.701 31.0395 44.283C31.9698 45.6935 32.0616 47.5182 31.2767 48.9976C31.204 49.1345 31.4259 49.2754 31.584 49.2208C31.7421 49.1663 31.8224 49.0115 31.8781 48.8684C32.1014 48.2955 32.1797 47.6915 32.2581 47.0867C32.3216 46.5973 32.3851 46.1073 32.5255 45.6328C32.6116 45.3421 32.7357 45.0453 32.9869 44.8452C33.2381 44.6451 33.6478 44.5766 33.911 44.764C34.1125 44.9073 34.1779 45.1523 34.2163 45.3799C34.3174 45.9802 34.3169 46.5942 34.2149 47.1945C34.2125 47.2086 34.2101 47.2228 34.2076 47.2371ZM37.8213 42.3559C38.13 42.567 38.4323 42.7738 38.8027 42.7355C39.2735 42.6868 39.5669 42.2537 39.7036 41.8482C39.7335 41.7594 39.7602 41.6686 39.7868 41.5776C39.8821 41.2527 39.9781 40.9252 40.2275 40.6808C40.3 40.6098 40.4044 40.5436 40.5074 40.5715C40.5908 40.594 40.6394 40.6695 40.6781 40.7393C40.733 40.8382 40.785 40.9387 40.8369 41.0392C40.9835 41.3229 41.1301 41.6066 41.3429 41.853C41.6311 42.1868 42.0795 42.4494 42.5485 42.4035C42.968 42.3624 43.2956 42.097 43.6151 41.8383C43.6805 41.7853 43.7457 41.7326 43.8112 41.6821C44.5805 41.0893 45.5824 40.7424 46.5978 40.7174C46.4609 41.0233 46.5522 41.357 46.6418 41.6844C46.6634 41.7632 46.6849 41.8417 46.703 41.9193C46.8464 42.5317 46.7739 43.183 46.4984 43.7583L39.7161 44.2249C38.1328 44.3338 36.5455 44.4428 34.9585 44.3929C34.8582 44.3898 34.7554 44.3855 34.6632 44.3502C34.489 44.2836 34.3855 44.1175 34.348 43.9515C34.264 43.5794 34.456 43.1918 34.7468 42.915C35.0376 42.6383 35.4174 42.4519 35.7903 42.2701C36.1785 42.081 36.6094 41.8856 37.0422 41.9663C37.3302 42.02 37.5777 42.1893 37.8213 42.3559ZM50.6643 51.1845C49.6368 51.1656 48.7466 50.4165 48.4415 49.5395C48.3793 49.3605 48.5088 49.1641 48.6875 49.0657C48.8661 48.9674 49.0823 48.9442 49.2908 48.9233L50.7963 48.7721C50.3385 47.9769 50.0124 47.1213 49.832 46.2416C49.8156 46.1618 49.8007 46.078 49.8289 46.0009C49.8785 45.8656 50.0417 45.7943 50.1928 45.7489C51.416 45.3816 52.8847 45.8276 53.604 46.7849C54.3233 47.7423 54.229 49.1261 53.3848 49.9983C53.0193 50.3759 52.5403 50.6545 52.0358 50.869C51.6056 51.0518 51.1406 51.1933 50.6643 51.1845ZM55.54 46.4579C55.7228 46.9974 55.7756 47.5649 55.8008 48.1281C55.3902 48.0726 54.9756 48.041 54.5604 48.0338C54.4792 47.0865 53.7736 46.2305 52.846 45.7662C51.9184 45.3019 50.7987 45.2015 49.7504 45.3605C49.7416 45.2269 49.7143 45.0876 49.6871 44.9483C49.6152 44.5805 49.5433 44.2128 49.8093 43.9518C49.9701 43.7941 50.2149 43.731 50.4495 43.692C51.5182 43.5141 52.6577 43.7005 53.5866 44.2052C54.5155 44.7099 55.225 45.5282 55.54 46.4579ZM48.0044 49.4439C48.0027 49.4614 48.001 49.4786 48.0002 49.495C47.9932 49.626 48.0615 49.746 48.1291 49.8649C48.1472 49.8967 48.1652 49.9285 48.1818 49.9604C48.2601 50.1111 48.2981 50.3097 48.1672 50.4278C47.8504 50.7135 47.5706 51.0317 47.3348 51.3743C47.2765 51.459 47.1331 51.4659 47.0372 51.4154C46.9413 51.3649 46.8818 51.2748 46.8264 51.1885C46.476 50.6426 46.1168 50.0714 46.0731 49.4432C46.0677 49.3651 46.0773 49.2706 46.1548 49.2341C46.189 49.2181 46.2293 49.2176 46.2679 49.2175L47.8351 49.2133C47.8725 49.2132 47.9119 49.2135 47.9445 49.23C48.0214 49.2691 48.0126 49.3598 48.0044 49.4439Z" fill="#00160A"/>
</svg>
